M48
INCH,TZ
T1C0.0157
T2C0.0315
T3C0.0394
T4C0.0591
%
G90
G05
T1
X35210Y-34500
X35710Y-32530
X36360Y-28250
X36370Y-32050
X37170Y-28280
X37660Y-31980
X38410Y-28270
X38640Y-19960
X38650Y-20610
X39100Y-32030
X39150Y-33800
X39160Y-36630
X39200Y-36190
X39240Y-34240
X39770Y-29410
X39780Y-29880
X39790Y-30370
X40060Y-36910
X40120Y-34610
X40140Y-32310
X40860Y-33060
X40880Y-36210
X40990Y-19160
X40990Y-20720
X41440Y-21510
X41470Y-22720
X41550Y-26800
X41990Y-25320
X42040Y-26740
X42290Y-27800
X42360Y-22030
X42370Y-22450
X42880Y-29450
X42890Y-32860
X42950Y-27280
X43010Y-26650
X43020Y-22600
X43020Y-25330
X43500Y-22030
X43830Y-25100
X43980Y-22540
X44000Y-27270
X44070Y-37470
X44280Y-25100
X44700Y-22520
X44750Y-25080
X45200Y-22730
X45390Y-21240
X45550Y-36580
X45590Y-26870
X45610Y-37970
X45960Y-18680
X46000Y-21710
X46176Y-31434
X46770Y-26950
X47290Y-26920
X47840Y-26910
X48360Y-22290
X48480Y-23690
X48520Y-28930
X49540Y-28600
X49620Y-25310
X49820Y-21020
X49830Y-22030
X50160Y-26950
X50250Y-30190
X50340Y-22510
X50420Y-21930
X50670Y-32700
X50690Y-26950
X50750Y-23730
X50770Y-30180
X50930Y-23130
X50960Y-21030
X51050Y-24100
X51250Y-26950
X51290Y-30170
X51370Y-24480
X51410Y-20990
X51490Y-32350
X51690Y-28600
X51850Y-20950
X52060Y-28950
X52310Y-18160
X52520Y-23140
X52597Y-29517
X52640Y-37350
X52660Y-36580
X52670Y-38000
X53010Y-23860
X53030Y-23330
X53050Y-31690
X53110Y-29470
X53120Y-20910
X53490Y-31950
X53810Y-23320
X53940Y-30310
X53950Y-32050
X54110Y-19680
X54430Y-31020
X54570Y-31990
X54810Y-18980
X54920Y-19390
X54980Y-31990
X54990Y-35480
X55070Y-18710
X55730Y-31510
X55730Y-35970
X55880Y-19620
X56070Y-21880
X56090Y-25230
X56330Y-22410
X56490Y-35430
X56970Y-26850
X57010Y-35400
X57030Y-34920
X57410Y-27270
X57530Y-35430
X57860Y-22410
X57920Y-38190
X57980Y-23790
X58200Y-32480
X58480Y-32980
X58500Y-31020
X58530Y-21820
X58630Y-24400
X59330Y-18730
X59330Y-23550
X59330Y-29760
X59350Y-23940
X59740Y-36280
X60040Y-30420
X60140Y-35210
X60150Y-18750
X60370Y-30990
X60640Y-36260
X60670Y-18180
X60680Y-34830
X60720Y-21790
X60780Y-23440
X60780Y-23990
X60980Y-38720
X61090Y-36000
X61160Y-31400
X61220Y-21270
X61240Y-36630
X61260Y-20230
X61410Y-35480
X61580Y-22070
X61630Y-31930
X61670Y-30500
X61774Y-28726
X61810Y-34620
X61900Y-31370
X61980Y-30170
X62270Y-29740
X62380Y-20290
X62390Y-30590
X62390Y-33310
X62400Y-21380
X62790Y-33490
X62850Y-30190
X63170Y-29830
X63390Y-33390
X63570Y-20420
X63600Y-21240
X63630Y-31460
X63760Y-32980
X63780Y-19210
X63940Y-31900
X63990Y-37380
X64000Y-21640
X64110Y-18220
X64200Y-30990
X64200Y-32490
X64510Y-35480
X64660Y-18690
X64720Y-22074
X65080Y-19190
X65350Y-22340
X65390Y-36060
X65660Y-22610
X65960Y-22870
X66190Y-30570
X66200Y-35460
X66240Y-23140
X66310Y-37240
X66590Y-25230
X66590Y-26230
X67050Y-26690
X67966Y-30570
X67970Y-23580
X68020Y-32480
X68130Y-21640
X68300Y-32980
X68690Y-24180
X68750Y-30990
X68810Y-21000
X69030Y-29760
X69710Y-18780
X69770Y-30500
X70260Y-18160
X70430Y-30490
X70490Y-23400
X70500Y-23890
X70810Y-31360
X70830Y-32600
X70860Y-30480
X71480Y-31920
X71500Y-29590
X71730Y-22750
X71830Y-35550
T2
X59850Y-20790
X61819Y-20790
X64740Y-22770
X64740Y-23770
X64740Y-24770
X64740Y-25770
X64740Y-26770
X64740Y-27770
X64740Y-28770
X64740Y-29770
X69740Y-22770
X69740Y-23770
X69740Y-24770
X69740Y-25770
X69740Y-26770
X69740Y-27770
X69740Y-28770
X69740Y-29770
X55050Y-22750
X55050Y-23750
X55050Y-24750
X55050Y-25750
X55050Y-26750
X55050Y-27750
X55050Y-28750
X55050Y-29750
X60050Y-22750
X60050Y-23750
X60050Y-24750
X60050Y-25750
X60050Y-26750
X60050Y-27750
X60050Y-28750
X60050Y-29750
X62921Y-20810
X64890Y-20810
T3
X62070Y-18990
X63070Y-18990
X56739Y-18989
X56739Y-19989
X56739Y-20989
X35600Y-22790
X36510Y-35840
X37510Y-35840
X38510Y-35840
X68630Y-38410
X36510Y-33550
X37510Y-33550
X38510Y-33550
X72120Y-24780
X72120Y-25780
X72120Y-26780
X72120Y-27780
X67240Y-38400
X68121Y-19009
X68121Y-20009
X68121Y-21009
X40000Y-20000
X41000Y-20000
X42000Y-20000
X43000Y-20000
X44000Y-20000
X45000Y-20000
X46000Y-20000
X47000Y-20000
X48000Y-20000
X49000Y-20000
X50000Y-20000
X51000Y-20000
X43980Y-27870
X44980Y-27870
X45980Y-27870
X46980Y-27870
X66290Y-19009
X66290Y-20009
X66290Y-21009
X70070Y-38410
X62460Y-24780
X62460Y-25780
X62460Y-26780
X62460Y-27780
X58569Y-18989
X58569Y-19989
X58569Y-20989
X40000Y-26000
X41000Y-26000
X42000Y-26000
X43000Y-26000
X44000Y-26000
X45000Y-26000
X46000Y-26000
X47000Y-26000
X48000Y-26000
X49000Y-26000
X50000Y-26000
X51000Y-26000
X36600Y-22790
X59420Y-37310
X59420Y-38294
X59420Y-39279
X65129Y-37310
X65129Y-39279
T4
G00X62117Y-36090
M15
G01X62629Y-36090
M16
G05
G00X62117Y-40499
M15
G01X62629Y-40499
M16
G05
T0
M30
