G04 #@! TF.GenerationSoftware,KiCad,Pcbnew,(5.1.2-1)-1*
G04 #@! TF.CreationDate,2020-04-13T15:16:54-04:00*
G04 #@! TF.ProjectId,GR_Stepper_IO,47525f53-7465-4707-9065-725f494f2e6b,rev?*
G04 #@! TF.SameCoordinates,Original*
G04 #@! TF.FileFunction,Soldermask,Bot*
G04 #@! TF.FilePolarity,Negative*
%FSLAX46Y46*%
G04 Gerber Fmt 4.6, Leading zero omitted, Abs format (unit mm)*
G04 Created by KiCad (PCBNEW (5.1.2-1)-1) date 2020-04-13 15:16:54*
%MOMM*%
%LPD*%
G04 APERTURE LIST*
%ADD10C,0.152400*%
G04 APERTURE END LIST*
D10*
G36*
X184485172Y-98338028D02*
G01*
X184776902Y-98396057D01*
X185326507Y-98623711D01*
X185821139Y-98954213D01*
X186241787Y-99374861D01*
X186572289Y-99869493D01*
X186799943Y-100419098D01*
X186916000Y-101002557D01*
X186916000Y-101597443D01*
X186799943Y-102180902D01*
X186572289Y-102730507D01*
X186241787Y-103225139D01*
X185821139Y-103645787D01*
X185326507Y-103976289D01*
X184776902Y-104203943D01*
X184485172Y-104261972D01*
X184193444Y-104320000D01*
X183598556Y-104320000D01*
X183306828Y-104261972D01*
X183015098Y-104203943D01*
X182465493Y-103976289D01*
X181970861Y-103645787D01*
X181550213Y-103225139D01*
X181219711Y-102730507D01*
X180992057Y-102180902D01*
X180876000Y-101597443D01*
X180876000Y-101002557D01*
X180992057Y-100419098D01*
X181219711Y-99869493D01*
X181550213Y-99374861D01*
X181970861Y-98954213D01*
X182465493Y-98623711D01*
X183015098Y-98396057D01*
X183306828Y-98338028D01*
X183598556Y-98280000D01*
X184193444Y-98280000D01*
X184485172Y-98338028D01*
X184485172Y-98338028D01*
G37*
G36*
X92664172Y-98338028D02*
G01*
X92955902Y-98396057D01*
X93505507Y-98623711D01*
X94000139Y-98954213D01*
X94420787Y-99374861D01*
X94751289Y-99869493D01*
X94978943Y-100419098D01*
X95095000Y-101002557D01*
X95095000Y-101597443D01*
X94978943Y-102180902D01*
X94751289Y-102730507D01*
X94420787Y-103225139D01*
X94000139Y-103645787D01*
X93505507Y-103976289D01*
X92955902Y-104203943D01*
X92664172Y-104261972D01*
X92372444Y-104320000D01*
X91777556Y-104320000D01*
X91485828Y-104261972D01*
X91194098Y-104203943D01*
X90644493Y-103976289D01*
X90149861Y-103645787D01*
X89729213Y-103225139D01*
X89398711Y-102730507D01*
X89171057Y-102180902D01*
X89055000Y-101597443D01*
X89055000Y-101002557D01*
X89171057Y-100419098D01*
X89398711Y-99869493D01*
X89729213Y-99374861D01*
X90149861Y-98954213D01*
X90644493Y-98623711D01*
X91194098Y-98396057D01*
X91485828Y-98338028D01*
X91777556Y-98280000D01*
X92372444Y-98280000D01*
X92664172Y-98338028D01*
X92664172Y-98338028D01*
G37*
G36*
X160026800Y-103867400D02*
G01*
X156826800Y-103867400D01*
X156826800Y-101867400D01*
X160026800Y-101867400D01*
X160026800Y-103867400D01*
X160026800Y-103867400D01*
G37*
G36*
X165718489Y-98805829D02*
G01*
X165900478Y-98881211D01*
X166064263Y-98990649D01*
X166203551Y-99129937D01*
X166312989Y-99293722D01*
X166388371Y-99475711D01*
X166426800Y-99668909D01*
X166426800Y-99865891D01*
X166388371Y-100059089D01*
X166312989Y-100241078D01*
X166203551Y-100404863D01*
X166064263Y-100544151D01*
X165900478Y-100653589D01*
X165718489Y-100728971D01*
X165525291Y-100767400D01*
X165328309Y-100767400D01*
X165135111Y-100728971D01*
X164953122Y-100653589D01*
X164789337Y-100544151D01*
X164650049Y-100404863D01*
X164540611Y-100241078D01*
X164465229Y-100059089D01*
X164426800Y-99865891D01*
X164426800Y-99668909D01*
X164465229Y-99475711D01*
X164540611Y-99293722D01*
X164650049Y-99129937D01*
X164789337Y-98990649D01*
X164953122Y-98881211D01*
X165135111Y-98805829D01*
X165328309Y-98767400D01*
X165525291Y-98767400D01*
X165718489Y-98805829D01*
X165718489Y-98805829D01*
G37*
G36*
X151218489Y-98805829D02*
G01*
X151400478Y-98881211D01*
X151564263Y-98990649D01*
X151703551Y-99129937D01*
X151812989Y-99293722D01*
X151888371Y-99475711D01*
X151926800Y-99668909D01*
X151926800Y-99865891D01*
X151888371Y-100059089D01*
X151812989Y-100241078D01*
X151703551Y-100404863D01*
X151564263Y-100544151D01*
X151400478Y-100653589D01*
X151218489Y-100728971D01*
X151025291Y-100767400D01*
X150828309Y-100767400D01*
X150635111Y-100728971D01*
X150453122Y-100653589D01*
X150289337Y-100544151D01*
X150150049Y-100404863D01*
X150040611Y-100241078D01*
X149965229Y-100059089D01*
X149926800Y-99865891D01*
X149926800Y-99668909D01*
X149965229Y-99475711D01*
X150040611Y-99293722D01*
X150150049Y-99129937D01*
X150289337Y-98990649D01*
X150453122Y-98881211D01*
X150635111Y-98805829D01*
X150828309Y-98767400D01*
X151025291Y-98767400D01*
X151218489Y-98805829D01*
X151218489Y-98805829D01*
G37*
G36*
X178827800Y-98411400D02*
G01*
X177127800Y-98411400D01*
X177127800Y-96711400D01*
X178827800Y-96711400D01*
X178827800Y-98411400D01*
X178827800Y-98411400D01*
G37*
G36*
X175170200Y-98411400D02*
G01*
X173470200Y-98411400D01*
X173470200Y-96711400D01*
X175170200Y-96711400D01*
X175170200Y-98411400D01*
X175170200Y-98411400D01*
G37*
G36*
X171639600Y-98386000D02*
G01*
X169939600Y-98386000D01*
X169939600Y-96686000D01*
X171639600Y-96686000D01*
X171639600Y-98386000D01*
X171639600Y-98386000D01*
G37*
G36*
X151218489Y-96305829D02*
G01*
X151400478Y-96381211D01*
X151564263Y-96490649D01*
X151703551Y-96629937D01*
X151812989Y-96793722D01*
X151888371Y-96975711D01*
X151926800Y-97168909D01*
X151926800Y-97365891D01*
X151888371Y-97559089D01*
X151812989Y-97741078D01*
X151703551Y-97904863D01*
X151564263Y-98044151D01*
X151400478Y-98153589D01*
X151218489Y-98228971D01*
X151025291Y-98267400D01*
X150828309Y-98267400D01*
X150635111Y-98228971D01*
X150453122Y-98153589D01*
X150289337Y-98044151D01*
X150150049Y-97904863D01*
X150040611Y-97741078D01*
X149965229Y-97559089D01*
X149926800Y-97365891D01*
X149926800Y-97168909D01*
X149965229Y-96975711D01*
X150040611Y-96793722D01*
X150150049Y-96629937D01*
X150289337Y-96490649D01*
X150453122Y-96381211D01*
X150635111Y-96305829D01*
X150828309Y-96267400D01*
X151025291Y-96267400D01*
X151218489Y-96305829D01*
X151218489Y-96305829D01*
G37*
G36*
X151926800Y-95767400D02*
G01*
X149926800Y-95767400D01*
X149926800Y-93767400D01*
X151926800Y-93767400D01*
X151926800Y-95767400D01*
X151926800Y-95767400D01*
G37*
G36*
X165718489Y-93805829D02*
G01*
X165900478Y-93881211D01*
X166064263Y-93990649D01*
X166203551Y-94129937D01*
X166312989Y-94293722D01*
X166388371Y-94475711D01*
X166426800Y-94668909D01*
X166426800Y-94865891D01*
X166388371Y-95059089D01*
X166312989Y-95241078D01*
X166203551Y-95404863D01*
X166064263Y-95544151D01*
X165900478Y-95653589D01*
X165718489Y-95728971D01*
X165525291Y-95767400D01*
X165328309Y-95767400D01*
X165135111Y-95728971D01*
X164953122Y-95653589D01*
X164789337Y-95544151D01*
X164650049Y-95404863D01*
X164540611Y-95241078D01*
X164465229Y-95059089D01*
X164426800Y-94865891D01*
X164426800Y-94668909D01*
X164465229Y-94475711D01*
X164540611Y-94293722D01*
X164650049Y-94129937D01*
X164789337Y-93990649D01*
X164953122Y-93881211D01*
X165135111Y-93805829D01*
X165328309Y-93767400D01*
X165525291Y-93767400D01*
X165718489Y-93805829D01*
X165718489Y-93805829D01*
G37*
G36*
X160026800Y-92667400D02*
G01*
X156826800Y-92667400D01*
X156826800Y-90667400D01*
X160026800Y-90667400D01*
X160026800Y-92667400D01*
X160026800Y-92667400D01*
G37*
G36*
X97982033Y-90195900D02*
G01*
X98110210Y-90234782D01*
X98142255Y-90244503D01*
X98181718Y-90265597D01*
X98289918Y-90323430D01*
X98419348Y-90429652D01*
X98525570Y-90559082D01*
X98583403Y-90667282D01*
X98604497Y-90706745D01*
X98604497Y-90706746D01*
X98653100Y-90866967D01*
X98669512Y-91033600D01*
X98653100Y-91200233D01*
X98614218Y-91328410D01*
X98604497Y-91360455D01*
X98583403Y-91399918D01*
X98525570Y-91508118D01*
X98419348Y-91637548D01*
X98289918Y-91743770D01*
X98181718Y-91801603D01*
X98142255Y-91822697D01*
X98110210Y-91832418D01*
X97982033Y-91871300D01*
X97857153Y-91883600D01*
X97773647Y-91883600D01*
X97648767Y-91871300D01*
X97520590Y-91832418D01*
X97488545Y-91822697D01*
X97449082Y-91801603D01*
X97340882Y-91743770D01*
X97211452Y-91637548D01*
X97105230Y-91508118D01*
X97047397Y-91399919D01*
X97026303Y-91360455D01*
X97016582Y-91328410D01*
X96977700Y-91200233D01*
X96961288Y-91033600D01*
X96977700Y-90866967D01*
X97026303Y-90706746D01*
X97026303Y-90706745D01*
X97047397Y-90667281D01*
X97105230Y-90559082D01*
X97211452Y-90429652D01*
X97340882Y-90323430D01*
X97449082Y-90265597D01*
X97488545Y-90244503D01*
X97520590Y-90234782D01*
X97648767Y-90195900D01*
X97773647Y-90183600D01*
X97857153Y-90183600D01*
X97982033Y-90195900D01*
X97982033Y-90195900D01*
G37*
G36*
X95442033Y-90195900D02*
G01*
X95570210Y-90234782D01*
X95602255Y-90244503D01*
X95641718Y-90265597D01*
X95749918Y-90323430D01*
X95879348Y-90429652D01*
X95985570Y-90559082D01*
X96043403Y-90667282D01*
X96064497Y-90706745D01*
X96064497Y-90706746D01*
X96113100Y-90866967D01*
X96129512Y-91033600D01*
X96113100Y-91200233D01*
X96074218Y-91328410D01*
X96064497Y-91360455D01*
X96043403Y-91399918D01*
X95985570Y-91508118D01*
X95879348Y-91637548D01*
X95749918Y-91743770D01*
X95641718Y-91801603D01*
X95602255Y-91822697D01*
X95570210Y-91832418D01*
X95442033Y-91871300D01*
X95317153Y-91883600D01*
X95233647Y-91883600D01*
X95108767Y-91871300D01*
X94980590Y-91832418D01*
X94948545Y-91822697D01*
X94909082Y-91801603D01*
X94800882Y-91743770D01*
X94671452Y-91637548D01*
X94565230Y-91508118D01*
X94507397Y-91399919D01*
X94486303Y-91360455D01*
X94476582Y-91328410D01*
X94437700Y-91200233D01*
X94421288Y-91033600D01*
X94437700Y-90866967D01*
X94486303Y-90706746D01*
X94486303Y-90706745D01*
X94507397Y-90667281D01*
X94565230Y-90559082D01*
X94671452Y-90429652D01*
X94800882Y-90323430D01*
X94909082Y-90265597D01*
X94948545Y-90244503D01*
X94980590Y-90234782D01*
X95108767Y-90195900D01*
X95233647Y-90183600D01*
X95317153Y-90183600D01*
X95442033Y-90195900D01*
X95442033Y-90195900D01*
G37*
G36*
X93585400Y-91883600D02*
G01*
X91885400Y-91883600D01*
X91885400Y-90183600D01*
X93585400Y-90183600D01*
X93585400Y-91883600D01*
X93585400Y-91883600D01*
G37*
G36*
X97982033Y-84379300D02*
G01*
X98110210Y-84418182D01*
X98142255Y-84427903D01*
X98181718Y-84448997D01*
X98289918Y-84506830D01*
X98419348Y-84613052D01*
X98525570Y-84742482D01*
X98583403Y-84850681D01*
X98604497Y-84890145D01*
X98604497Y-84890146D01*
X98653100Y-85050367D01*
X98669512Y-85217000D01*
X98653100Y-85383633D01*
X98614218Y-85511810D01*
X98604497Y-85543855D01*
X98583403Y-85583318D01*
X98525570Y-85691518D01*
X98419348Y-85820948D01*
X98289918Y-85927170D01*
X98181718Y-85985003D01*
X98142255Y-86006097D01*
X98110210Y-86015818D01*
X97982033Y-86054700D01*
X97857153Y-86067000D01*
X97773647Y-86067000D01*
X97648767Y-86054700D01*
X97520590Y-86015818D01*
X97488545Y-86006097D01*
X97449082Y-85985003D01*
X97340882Y-85927170D01*
X97211452Y-85820948D01*
X97105230Y-85691518D01*
X97047397Y-85583318D01*
X97026303Y-85543855D01*
X97016582Y-85511810D01*
X96977700Y-85383633D01*
X96961288Y-85217000D01*
X96977700Y-85050367D01*
X97026303Y-84890146D01*
X97026303Y-84890145D01*
X97047397Y-84850682D01*
X97105230Y-84742482D01*
X97211452Y-84613052D01*
X97340882Y-84506830D01*
X97449082Y-84448997D01*
X97488545Y-84427903D01*
X97520590Y-84418182D01*
X97648767Y-84379300D01*
X97773647Y-84367000D01*
X97857153Y-84367000D01*
X97982033Y-84379300D01*
X97982033Y-84379300D01*
G37*
G36*
X95442033Y-84379300D02*
G01*
X95570210Y-84418182D01*
X95602255Y-84427903D01*
X95641718Y-84448997D01*
X95749918Y-84506830D01*
X95879348Y-84613052D01*
X95985570Y-84742482D01*
X96043403Y-84850681D01*
X96064497Y-84890145D01*
X96064497Y-84890146D01*
X96113100Y-85050367D01*
X96129512Y-85217000D01*
X96113100Y-85383633D01*
X96074218Y-85511810D01*
X96064497Y-85543855D01*
X96043403Y-85583318D01*
X95985570Y-85691518D01*
X95879348Y-85820948D01*
X95749918Y-85927170D01*
X95641718Y-85985003D01*
X95602255Y-86006097D01*
X95570210Y-86015818D01*
X95442033Y-86054700D01*
X95317153Y-86067000D01*
X95233647Y-86067000D01*
X95108767Y-86054700D01*
X94980590Y-86015818D01*
X94948545Y-86006097D01*
X94909082Y-85985003D01*
X94800882Y-85927170D01*
X94671452Y-85820948D01*
X94565230Y-85691518D01*
X94507397Y-85583318D01*
X94486303Y-85543855D01*
X94476582Y-85511810D01*
X94437700Y-85383633D01*
X94421288Y-85217000D01*
X94437700Y-85050367D01*
X94486303Y-84890146D01*
X94486303Y-84890145D01*
X94507397Y-84850682D01*
X94565230Y-84742482D01*
X94671452Y-84613052D01*
X94800882Y-84506830D01*
X94909082Y-84448997D01*
X94948545Y-84427903D01*
X94980590Y-84418182D01*
X95108767Y-84379300D01*
X95233647Y-84367000D01*
X95317153Y-84367000D01*
X95442033Y-84379300D01*
X95442033Y-84379300D01*
G37*
G36*
X93585400Y-86067000D02*
G01*
X91885400Y-86067000D01*
X91885400Y-84367000D01*
X93585400Y-84367000D01*
X93585400Y-86067000D01*
X93585400Y-86067000D01*
G37*
G36*
X177939600Y-76415800D02*
G01*
X176339600Y-76415800D01*
X176339600Y-74815800D01*
X177939600Y-74815800D01*
X177939600Y-76415800D01*
X177939600Y-76415800D01*
G37*
G36*
X164497996Y-74817681D02*
G01*
X164596427Y-74827376D01*
X164596429Y-74827377D01*
X164596432Y-74827377D01*
X164747226Y-74873119D01*
X164886205Y-74947405D01*
X165008022Y-75047378D01*
X165107995Y-75169195D01*
X165182281Y-75308174D01*
X165228023Y-75458968D01*
X165228023Y-75458971D01*
X165228024Y-75458973D01*
X165243470Y-75615800D01*
X165228024Y-75772627D01*
X165228023Y-75772629D01*
X165228023Y-75772632D01*
X165182281Y-75923426D01*
X165107995Y-76062405D01*
X165008022Y-76184222D01*
X164886205Y-76284195D01*
X164747226Y-76358481D01*
X164596432Y-76404223D01*
X164596429Y-76404223D01*
X164596427Y-76404224D01*
X164497996Y-76413919D01*
X164478894Y-76415800D01*
X164400306Y-76415800D01*
X164381204Y-76413919D01*
X164282773Y-76404224D01*
X164282771Y-76404223D01*
X164282768Y-76404223D01*
X164131974Y-76358481D01*
X163992995Y-76284195D01*
X163871178Y-76184222D01*
X163771205Y-76062405D01*
X163696919Y-75923426D01*
X163651177Y-75772632D01*
X163651177Y-75772629D01*
X163651176Y-75772627D01*
X163635730Y-75615800D01*
X163651176Y-75458973D01*
X163651177Y-75458971D01*
X163651177Y-75458968D01*
X163696919Y-75308174D01*
X163771205Y-75169195D01*
X163871178Y-75047378D01*
X163992995Y-74947405D01*
X164131974Y-74873119D01*
X164282768Y-74827377D01*
X164282771Y-74827377D01*
X164282773Y-74827376D01*
X164381204Y-74817681D01*
X164400306Y-74815800D01*
X164478894Y-74815800D01*
X164497996Y-74817681D01*
X164497996Y-74817681D01*
G37*
G36*
X139885396Y-74766881D02*
G01*
X139983827Y-74776576D01*
X139983829Y-74776577D01*
X139983832Y-74776577D01*
X140134626Y-74822319D01*
X140273605Y-74896605D01*
X140395422Y-74996578D01*
X140495395Y-75118395D01*
X140569681Y-75257374D01*
X140615423Y-75408168D01*
X140615423Y-75408171D01*
X140615424Y-75408173D01*
X140630870Y-75565000D01*
X140615424Y-75721827D01*
X140615423Y-75721829D01*
X140615423Y-75721832D01*
X140569681Y-75872626D01*
X140495395Y-76011605D01*
X140395422Y-76133422D01*
X140273605Y-76233395D01*
X140134626Y-76307681D01*
X139983832Y-76353423D01*
X139983829Y-76353423D01*
X139983827Y-76353424D01*
X139885396Y-76363119D01*
X139866294Y-76365000D01*
X139787706Y-76365000D01*
X139768604Y-76363119D01*
X139670173Y-76353424D01*
X139670171Y-76353423D01*
X139670168Y-76353423D01*
X139519374Y-76307681D01*
X139380395Y-76233395D01*
X139258578Y-76133422D01*
X139158605Y-76011605D01*
X139084319Y-75872626D01*
X139038577Y-75721832D01*
X139038577Y-75721829D01*
X139038576Y-75721827D01*
X139023130Y-75565000D01*
X139038576Y-75408173D01*
X139038577Y-75408171D01*
X139038577Y-75408168D01*
X139084319Y-75257374D01*
X139158605Y-75118395D01*
X139258578Y-74996578D01*
X139380395Y-74896605D01*
X139519374Y-74822319D01*
X139670168Y-74776577D01*
X139670171Y-74776577D01*
X139670173Y-74776576D01*
X139768604Y-74766881D01*
X139787706Y-74765000D01*
X139866294Y-74765000D01*
X139885396Y-74766881D01*
X139885396Y-74766881D01*
G37*
G36*
X153327000Y-76365000D02*
G01*
X151727000Y-76365000D01*
X151727000Y-74765000D01*
X153327000Y-74765000D01*
X153327000Y-76365000D01*
X153327000Y-76365000D01*
G37*
G36*
X164497996Y-72277681D02*
G01*
X164596427Y-72287376D01*
X164596429Y-72287377D01*
X164596432Y-72287377D01*
X164747226Y-72333119D01*
X164886205Y-72407405D01*
X165008022Y-72507378D01*
X165107995Y-72629195D01*
X165182281Y-72768174D01*
X165228023Y-72918968D01*
X165228023Y-72918971D01*
X165228024Y-72918973D01*
X165243470Y-73075800D01*
X165228024Y-73232627D01*
X165228023Y-73232629D01*
X165228023Y-73232632D01*
X165182281Y-73383426D01*
X165107995Y-73522405D01*
X165008022Y-73644222D01*
X164886205Y-73744195D01*
X164747226Y-73818481D01*
X164596432Y-73864223D01*
X164596429Y-73864223D01*
X164596427Y-73864224D01*
X164497996Y-73873919D01*
X164478894Y-73875800D01*
X164400306Y-73875800D01*
X164381204Y-73873919D01*
X164282773Y-73864224D01*
X164282771Y-73864223D01*
X164282768Y-73864223D01*
X164131974Y-73818481D01*
X163992995Y-73744195D01*
X163871178Y-73644222D01*
X163771205Y-73522405D01*
X163696919Y-73383426D01*
X163651177Y-73232632D01*
X163651177Y-73232629D01*
X163651176Y-73232627D01*
X163635730Y-73075800D01*
X163651176Y-72918973D01*
X163651177Y-72918971D01*
X163651177Y-72918968D01*
X163696919Y-72768174D01*
X163771205Y-72629195D01*
X163871178Y-72507378D01*
X163992995Y-72407405D01*
X164131974Y-72333119D01*
X164282768Y-72287377D01*
X164282771Y-72287377D01*
X164282773Y-72287376D01*
X164381204Y-72277681D01*
X164400306Y-72275800D01*
X164478894Y-72275800D01*
X164497996Y-72277681D01*
X164497996Y-72277681D01*
G37*
G36*
X177197996Y-72277681D02*
G01*
X177296427Y-72287376D01*
X177296429Y-72287377D01*
X177296432Y-72287377D01*
X177447226Y-72333119D01*
X177586205Y-72407405D01*
X177708022Y-72507378D01*
X177807995Y-72629195D01*
X177882281Y-72768174D01*
X177928023Y-72918968D01*
X177928023Y-72918971D01*
X177928024Y-72918973D01*
X177943470Y-73075800D01*
X177928024Y-73232627D01*
X177928023Y-73232629D01*
X177928023Y-73232632D01*
X177882281Y-73383426D01*
X177807995Y-73522405D01*
X177708022Y-73644222D01*
X177586205Y-73744195D01*
X177447226Y-73818481D01*
X177296432Y-73864223D01*
X177296429Y-73864223D01*
X177296427Y-73864224D01*
X177197996Y-73873919D01*
X177178894Y-73875800D01*
X177100306Y-73875800D01*
X177081204Y-73873919D01*
X176982773Y-73864224D01*
X176982771Y-73864223D01*
X176982768Y-73864223D01*
X176831974Y-73818481D01*
X176692995Y-73744195D01*
X176571178Y-73644222D01*
X176471205Y-73522405D01*
X176396919Y-73383426D01*
X176351177Y-73232632D01*
X176351177Y-73232629D01*
X176351176Y-73232627D01*
X176335730Y-73075800D01*
X176351176Y-72918973D01*
X176351177Y-72918971D01*
X176351177Y-72918968D01*
X176396919Y-72768174D01*
X176471205Y-72629195D01*
X176571178Y-72507378D01*
X176692995Y-72407405D01*
X176831974Y-72333119D01*
X176982768Y-72287377D01*
X176982771Y-72287377D01*
X176982773Y-72287376D01*
X177081204Y-72277681D01*
X177100306Y-72275800D01*
X177178894Y-72275800D01*
X177197996Y-72277681D01*
X177197996Y-72277681D01*
G37*
G36*
X152585396Y-72226881D02*
G01*
X152683827Y-72236576D01*
X152683829Y-72236577D01*
X152683832Y-72236577D01*
X152834626Y-72282319D01*
X152973605Y-72356605D01*
X153095422Y-72456578D01*
X153195395Y-72578395D01*
X153269681Y-72717374D01*
X153315423Y-72868168D01*
X153315423Y-72868171D01*
X153315424Y-72868173D01*
X153330870Y-73025000D01*
X153315424Y-73181827D01*
X153315423Y-73181829D01*
X153315423Y-73181832D01*
X153269681Y-73332626D01*
X153195395Y-73471605D01*
X153095422Y-73593422D01*
X152973605Y-73693395D01*
X152834626Y-73767681D01*
X152683832Y-73813423D01*
X152683829Y-73813423D01*
X152683827Y-73813424D01*
X152585396Y-73823119D01*
X152566294Y-73825000D01*
X152487706Y-73825000D01*
X152468604Y-73823119D01*
X152370173Y-73813424D01*
X152370171Y-73813423D01*
X152370168Y-73813423D01*
X152219374Y-73767681D01*
X152080395Y-73693395D01*
X151958578Y-73593422D01*
X151858605Y-73471605D01*
X151784319Y-73332626D01*
X151738577Y-73181832D01*
X151738577Y-73181829D01*
X151738576Y-73181827D01*
X151723130Y-73025000D01*
X151738576Y-72868173D01*
X151738577Y-72868171D01*
X151738577Y-72868168D01*
X151784319Y-72717374D01*
X151858605Y-72578395D01*
X151958578Y-72456578D01*
X152080395Y-72356605D01*
X152219374Y-72282319D01*
X152370168Y-72236577D01*
X152370171Y-72236577D01*
X152370173Y-72236576D01*
X152468604Y-72226881D01*
X152487706Y-72225000D01*
X152566294Y-72225000D01*
X152585396Y-72226881D01*
X152585396Y-72226881D01*
G37*
G36*
X139885396Y-72226881D02*
G01*
X139983827Y-72236576D01*
X139983829Y-72236577D01*
X139983832Y-72236577D01*
X140134626Y-72282319D01*
X140273605Y-72356605D01*
X140395422Y-72456578D01*
X140495395Y-72578395D01*
X140569681Y-72717374D01*
X140615423Y-72868168D01*
X140615423Y-72868171D01*
X140615424Y-72868173D01*
X140630870Y-73025000D01*
X140615424Y-73181827D01*
X140615423Y-73181829D01*
X140615423Y-73181832D01*
X140569681Y-73332626D01*
X140495395Y-73471605D01*
X140395422Y-73593422D01*
X140273605Y-73693395D01*
X140134626Y-73767681D01*
X139983832Y-73813423D01*
X139983829Y-73813423D01*
X139983827Y-73813424D01*
X139885396Y-73823119D01*
X139866294Y-73825000D01*
X139787706Y-73825000D01*
X139768604Y-73823119D01*
X139670173Y-73813424D01*
X139670171Y-73813423D01*
X139670168Y-73813423D01*
X139519374Y-73767681D01*
X139380395Y-73693395D01*
X139258578Y-73593422D01*
X139158605Y-73471605D01*
X139084319Y-73332626D01*
X139038577Y-73181832D01*
X139038577Y-73181829D01*
X139038576Y-73181827D01*
X139023130Y-73025000D01*
X139038576Y-72868173D01*
X139038577Y-72868171D01*
X139038577Y-72868168D01*
X139084319Y-72717374D01*
X139158605Y-72578395D01*
X139258578Y-72456578D01*
X139380395Y-72356605D01*
X139519374Y-72282319D01*
X139670168Y-72236577D01*
X139670171Y-72236577D01*
X139670173Y-72236576D01*
X139768604Y-72226881D01*
X139787706Y-72225000D01*
X139866294Y-72225000D01*
X139885396Y-72226881D01*
X139885396Y-72226881D01*
G37*
G36*
X112559200Y-71639800D02*
G01*
X110859200Y-71639800D01*
X110859200Y-69939800D01*
X112559200Y-69939800D01*
X112559200Y-71639800D01*
X112559200Y-71639800D01*
G37*
G36*
X114415833Y-69952100D02*
G01*
X114544010Y-69990982D01*
X114576055Y-70000703D01*
X114615518Y-70021797D01*
X114723718Y-70079630D01*
X114853148Y-70185852D01*
X114959370Y-70315282D01*
X115017203Y-70423482D01*
X115038297Y-70462945D01*
X115038297Y-70462946D01*
X115086900Y-70623167D01*
X115103312Y-70789800D01*
X115086900Y-70956433D01*
X115057478Y-71053422D01*
X115038297Y-71116655D01*
X115018660Y-71153393D01*
X114959370Y-71264318D01*
X114853148Y-71393748D01*
X114723718Y-71499970D01*
X114615519Y-71557803D01*
X114576055Y-71578897D01*
X114544010Y-71588618D01*
X114415833Y-71627500D01*
X114290953Y-71639800D01*
X114207447Y-71639800D01*
X114082567Y-71627500D01*
X113954390Y-71588618D01*
X113922345Y-71578897D01*
X113882882Y-71557803D01*
X113774682Y-71499970D01*
X113645252Y-71393748D01*
X113539030Y-71264318D01*
X113479740Y-71153393D01*
X113460103Y-71116655D01*
X113440922Y-71053422D01*
X113411500Y-70956433D01*
X113395088Y-70789800D01*
X113411500Y-70623167D01*
X113460103Y-70462946D01*
X113460103Y-70462945D01*
X113481197Y-70423481D01*
X113539030Y-70315282D01*
X113645252Y-70185852D01*
X113774682Y-70079630D01*
X113882882Y-70021797D01*
X113922345Y-70000703D01*
X113954390Y-69990982D01*
X114082567Y-69952100D01*
X114207447Y-69939800D01*
X114290953Y-69939800D01*
X114415833Y-69952100D01*
X114415833Y-69952100D01*
G37*
G36*
X116955833Y-69952100D02*
G01*
X117084010Y-69990982D01*
X117116055Y-70000703D01*
X117155518Y-70021797D01*
X117263718Y-70079630D01*
X117393148Y-70185852D01*
X117499370Y-70315282D01*
X117557203Y-70423482D01*
X117578297Y-70462945D01*
X117578297Y-70462946D01*
X117626900Y-70623167D01*
X117643312Y-70789800D01*
X117626900Y-70956433D01*
X117597478Y-71053422D01*
X117578297Y-71116655D01*
X117558660Y-71153393D01*
X117499370Y-71264318D01*
X117393148Y-71393748D01*
X117263718Y-71499970D01*
X117155519Y-71557803D01*
X117116055Y-71578897D01*
X117084010Y-71588618D01*
X116955833Y-71627500D01*
X116830953Y-71639800D01*
X116747447Y-71639800D01*
X116622567Y-71627500D01*
X116494390Y-71588618D01*
X116462345Y-71578897D01*
X116422882Y-71557803D01*
X116314682Y-71499970D01*
X116185252Y-71393748D01*
X116079030Y-71264318D01*
X116019740Y-71153393D01*
X116000103Y-71116655D01*
X115980922Y-71053422D01*
X115951500Y-70956433D01*
X115935088Y-70789800D01*
X115951500Y-70623167D01*
X116000103Y-70462946D01*
X116000103Y-70462945D01*
X116021197Y-70423481D01*
X116079030Y-70315282D01*
X116185252Y-70185852D01*
X116314682Y-70079630D01*
X116422882Y-70021797D01*
X116462345Y-70000703D01*
X116494390Y-69990982D01*
X116622567Y-69952100D01*
X116747447Y-69939800D01*
X116830953Y-69939800D01*
X116955833Y-69952100D01*
X116955833Y-69952100D01*
G37*
G36*
X119495833Y-69952100D02*
G01*
X119624010Y-69990982D01*
X119656055Y-70000703D01*
X119695518Y-70021797D01*
X119803718Y-70079630D01*
X119933148Y-70185852D01*
X120039370Y-70315282D01*
X120097203Y-70423482D01*
X120118297Y-70462945D01*
X120118297Y-70462946D01*
X120166900Y-70623167D01*
X120183312Y-70789800D01*
X120166900Y-70956433D01*
X120137478Y-71053422D01*
X120118297Y-71116655D01*
X120098660Y-71153393D01*
X120039370Y-71264318D01*
X119933148Y-71393748D01*
X119803718Y-71499970D01*
X119695519Y-71557803D01*
X119656055Y-71578897D01*
X119624010Y-71588618D01*
X119495833Y-71627500D01*
X119370953Y-71639800D01*
X119287447Y-71639800D01*
X119162567Y-71627500D01*
X119034390Y-71588618D01*
X119002345Y-71578897D01*
X118962882Y-71557803D01*
X118854682Y-71499970D01*
X118725252Y-71393748D01*
X118619030Y-71264318D01*
X118559740Y-71153393D01*
X118540103Y-71116655D01*
X118520922Y-71053422D01*
X118491500Y-70956433D01*
X118475088Y-70789800D01*
X118491500Y-70623167D01*
X118540103Y-70462946D01*
X118540103Y-70462945D01*
X118561197Y-70423481D01*
X118619030Y-70315282D01*
X118725252Y-70185852D01*
X118854682Y-70079630D01*
X118962882Y-70021797D01*
X119002345Y-70000703D01*
X119034390Y-69990982D01*
X119162567Y-69952100D01*
X119287447Y-69939800D01*
X119370953Y-69939800D01*
X119495833Y-69952100D01*
X119495833Y-69952100D01*
G37*
G36*
X159498400Y-71411200D02*
G01*
X157798400Y-71411200D01*
X157798400Y-69711200D01*
X159498400Y-69711200D01*
X159498400Y-71411200D01*
X159498400Y-71411200D01*
G37*
G36*
X184034800Y-71411200D02*
G01*
X182334800Y-71411200D01*
X182334800Y-69711200D01*
X184034800Y-69711200D01*
X184034800Y-71411200D01*
X184034800Y-71411200D01*
G37*
G36*
X164497996Y-69737681D02*
G01*
X164596427Y-69747376D01*
X164596429Y-69747377D01*
X164596432Y-69747377D01*
X164747226Y-69793119D01*
X164886205Y-69867405D01*
X165008022Y-69967378D01*
X165107995Y-70089195D01*
X165182281Y-70228174D01*
X165228023Y-70378968D01*
X165228023Y-70378971D01*
X165228024Y-70378973D01*
X165243470Y-70535800D01*
X165228024Y-70692627D01*
X165228023Y-70692629D01*
X165228023Y-70692632D01*
X165182281Y-70843426D01*
X165107995Y-70982405D01*
X165008022Y-71104222D01*
X164886205Y-71204195D01*
X164747226Y-71278481D01*
X164596432Y-71324223D01*
X164596429Y-71324223D01*
X164596427Y-71324224D01*
X164497996Y-71333919D01*
X164478894Y-71335800D01*
X164400306Y-71335800D01*
X164381204Y-71333919D01*
X164282773Y-71324224D01*
X164282771Y-71324223D01*
X164282768Y-71324223D01*
X164131974Y-71278481D01*
X163992995Y-71204195D01*
X163871178Y-71104222D01*
X163771205Y-70982405D01*
X163696919Y-70843426D01*
X163651177Y-70692632D01*
X163651177Y-70692629D01*
X163651176Y-70692627D01*
X163635730Y-70535800D01*
X163651176Y-70378973D01*
X163651177Y-70378971D01*
X163651177Y-70378968D01*
X163696919Y-70228174D01*
X163771205Y-70089195D01*
X163871178Y-69967378D01*
X163992995Y-69867405D01*
X164131974Y-69793119D01*
X164282768Y-69747377D01*
X164282771Y-69747377D01*
X164282773Y-69747376D01*
X164381204Y-69737681D01*
X164400306Y-69735800D01*
X164478894Y-69735800D01*
X164497996Y-69737681D01*
X164497996Y-69737681D01*
G37*
G36*
X177197996Y-69737681D02*
G01*
X177296427Y-69747376D01*
X177296429Y-69747377D01*
X177296432Y-69747377D01*
X177447226Y-69793119D01*
X177586205Y-69867405D01*
X177708022Y-69967378D01*
X177807995Y-70089195D01*
X177882281Y-70228174D01*
X177928023Y-70378968D01*
X177928023Y-70378971D01*
X177928024Y-70378973D01*
X177943470Y-70535800D01*
X177928024Y-70692627D01*
X177928023Y-70692629D01*
X177928023Y-70692632D01*
X177882281Y-70843426D01*
X177807995Y-70982405D01*
X177708022Y-71104222D01*
X177586205Y-71204195D01*
X177447226Y-71278481D01*
X177296432Y-71324223D01*
X177296429Y-71324223D01*
X177296427Y-71324224D01*
X177197996Y-71333919D01*
X177178894Y-71335800D01*
X177100306Y-71335800D01*
X177081204Y-71333919D01*
X176982773Y-71324224D01*
X176982771Y-71324223D01*
X176982768Y-71324223D01*
X176831974Y-71278481D01*
X176692995Y-71204195D01*
X176571178Y-71104222D01*
X176471205Y-70982405D01*
X176396919Y-70843426D01*
X176351177Y-70692632D01*
X176351177Y-70692629D01*
X176351176Y-70692627D01*
X176335730Y-70535800D01*
X176351176Y-70378973D01*
X176351177Y-70378971D01*
X176351177Y-70378968D01*
X176396919Y-70228174D01*
X176471205Y-70089195D01*
X176571178Y-69967378D01*
X176692995Y-69867405D01*
X176831974Y-69793119D01*
X176982768Y-69747377D01*
X176982771Y-69747377D01*
X176982773Y-69747376D01*
X177081204Y-69737681D01*
X177100306Y-69735800D01*
X177178894Y-69735800D01*
X177197996Y-69737681D01*
X177197996Y-69737681D01*
G37*
G36*
X139885396Y-69686881D02*
G01*
X139983827Y-69696576D01*
X139983829Y-69696577D01*
X139983832Y-69696577D01*
X140134626Y-69742319D01*
X140273605Y-69816605D01*
X140395422Y-69916578D01*
X140495395Y-70038395D01*
X140569681Y-70177374D01*
X140615423Y-70328168D01*
X140615423Y-70328171D01*
X140615424Y-70328173D01*
X140630870Y-70485000D01*
X140615424Y-70641827D01*
X140615423Y-70641829D01*
X140615423Y-70641832D01*
X140569681Y-70792626D01*
X140495395Y-70931605D01*
X140395422Y-71053422D01*
X140273605Y-71153395D01*
X140134626Y-71227681D01*
X139983832Y-71273423D01*
X139983829Y-71273423D01*
X139983827Y-71273424D01*
X139885396Y-71283119D01*
X139866294Y-71285000D01*
X139787706Y-71285000D01*
X139768604Y-71283119D01*
X139670173Y-71273424D01*
X139670171Y-71273423D01*
X139670168Y-71273423D01*
X139519374Y-71227681D01*
X139380395Y-71153395D01*
X139258578Y-71053422D01*
X139158605Y-70931605D01*
X139084319Y-70792626D01*
X139038577Y-70641832D01*
X139038577Y-70641829D01*
X139038576Y-70641827D01*
X139023130Y-70485000D01*
X139038576Y-70328173D01*
X139038577Y-70328171D01*
X139038577Y-70328168D01*
X139084319Y-70177374D01*
X139158605Y-70038395D01*
X139258578Y-69916578D01*
X139380395Y-69816605D01*
X139519374Y-69742319D01*
X139670168Y-69696577D01*
X139670171Y-69696577D01*
X139670173Y-69696576D01*
X139768604Y-69686881D01*
X139787706Y-69685000D01*
X139866294Y-69685000D01*
X139885396Y-69686881D01*
X139885396Y-69686881D01*
G37*
G36*
X152585396Y-69686881D02*
G01*
X152683827Y-69696576D01*
X152683829Y-69696577D01*
X152683832Y-69696577D01*
X152834626Y-69742319D01*
X152973605Y-69816605D01*
X153095422Y-69916578D01*
X153195395Y-70038395D01*
X153269681Y-70177374D01*
X153315423Y-70328168D01*
X153315423Y-70328171D01*
X153315424Y-70328173D01*
X153330870Y-70485000D01*
X153315424Y-70641827D01*
X153315423Y-70641829D01*
X153315423Y-70641832D01*
X153269681Y-70792626D01*
X153195395Y-70931605D01*
X153095422Y-71053422D01*
X152973605Y-71153395D01*
X152834626Y-71227681D01*
X152683832Y-71273423D01*
X152683829Y-71273423D01*
X152683827Y-71273424D01*
X152585396Y-71283119D01*
X152566294Y-71285000D01*
X152487706Y-71285000D01*
X152468604Y-71283119D01*
X152370173Y-71273424D01*
X152370171Y-71273423D01*
X152370168Y-71273423D01*
X152219374Y-71227681D01*
X152080395Y-71153395D01*
X151958578Y-71053422D01*
X151858605Y-70931605D01*
X151784319Y-70792626D01*
X151738577Y-70641832D01*
X151738577Y-70641829D01*
X151738576Y-70641827D01*
X151723130Y-70485000D01*
X151738576Y-70328173D01*
X151738577Y-70328171D01*
X151738577Y-70328168D01*
X151784319Y-70177374D01*
X151858605Y-70038395D01*
X151958578Y-69916578D01*
X152080395Y-69816605D01*
X152219374Y-69742319D01*
X152370168Y-69696577D01*
X152370171Y-69696577D01*
X152370173Y-69696576D01*
X152468604Y-69686881D01*
X152487706Y-69685000D01*
X152566294Y-69685000D01*
X152585396Y-69686881D01*
X152585396Y-69686881D01*
G37*
G36*
X183351433Y-67183500D02*
G01*
X183479610Y-67222382D01*
X183511655Y-67232103D01*
X183550973Y-67253119D01*
X183659318Y-67311030D01*
X183788748Y-67417252D01*
X183894970Y-67546682D01*
X183943444Y-67637372D01*
X183973897Y-67694345D01*
X183973897Y-67694346D01*
X184022500Y-67854567D01*
X184038912Y-68021200D01*
X184022500Y-68187833D01*
X184002844Y-68252628D01*
X183973897Y-68348055D01*
X183952803Y-68387518D01*
X183894970Y-68495718D01*
X183788748Y-68625148D01*
X183659318Y-68731370D01*
X183560434Y-68784224D01*
X183511655Y-68810297D01*
X183479610Y-68820018D01*
X183351433Y-68858900D01*
X183226553Y-68871200D01*
X183143047Y-68871200D01*
X183018167Y-68858900D01*
X182889990Y-68820018D01*
X182857945Y-68810297D01*
X182809166Y-68784224D01*
X182710282Y-68731370D01*
X182580852Y-68625148D01*
X182474630Y-68495718D01*
X182416797Y-68387518D01*
X182395703Y-68348055D01*
X182366756Y-68252628D01*
X182347100Y-68187833D01*
X182330688Y-68021200D01*
X182347100Y-67854567D01*
X182395703Y-67694346D01*
X182395703Y-67694345D01*
X182426156Y-67637372D01*
X182474630Y-67546682D01*
X182580852Y-67417252D01*
X182710282Y-67311030D01*
X182818627Y-67253119D01*
X182857945Y-67232103D01*
X182889990Y-67222382D01*
X183018167Y-67183500D01*
X183143047Y-67171200D01*
X183226553Y-67171200D01*
X183351433Y-67183500D01*
X183351433Y-67183500D01*
G37*
G36*
X158815033Y-67183500D02*
G01*
X158943210Y-67222382D01*
X158975255Y-67232103D01*
X159014573Y-67253119D01*
X159122918Y-67311030D01*
X159252348Y-67417252D01*
X159358570Y-67546682D01*
X159407044Y-67637372D01*
X159437497Y-67694345D01*
X159437497Y-67694346D01*
X159486100Y-67854567D01*
X159502512Y-68021200D01*
X159486100Y-68187833D01*
X159466444Y-68252628D01*
X159437497Y-68348055D01*
X159416403Y-68387518D01*
X159358570Y-68495718D01*
X159252348Y-68625148D01*
X159122918Y-68731370D01*
X159024034Y-68784224D01*
X158975255Y-68810297D01*
X158943210Y-68820018D01*
X158815033Y-68858900D01*
X158690153Y-68871200D01*
X158606647Y-68871200D01*
X158481767Y-68858900D01*
X158353590Y-68820018D01*
X158321545Y-68810297D01*
X158272766Y-68784224D01*
X158173882Y-68731370D01*
X158044452Y-68625148D01*
X157938230Y-68495718D01*
X157880397Y-68387518D01*
X157859303Y-68348055D01*
X157830356Y-68252628D01*
X157810700Y-68187833D01*
X157794288Y-68021200D01*
X157810700Y-67854567D01*
X157859303Y-67694346D01*
X157859303Y-67694345D01*
X157889756Y-67637372D01*
X157938230Y-67546682D01*
X158044452Y-67417252D01*
X158173882Y-67311030D01*
X158282227Y-67253119D01*
X158321545Y-67232103D01*
X158353590Y-67222382D01*
X158481767Y-67183500D01*
X158606647Y-67171200D01*
X158690153Y-67171200D01*
X158815033Y-67183500D01*
X158815033Y-67183500D01*
G37*
G36*
X177197996Y-67197681D02*
G01*
X177296427Y-67207376D01*
X177296429Y-67207377D01*
X177296432Y-67207377D01*
X177447226Y-67253119D01*
X177586205Y-67327405D01*
X177708022Y-67427378D01*
X177807995Y-67549195D01*
X177882281Y-67688174D01*
X177928023Y-67838968D01*
X177928023Y-67838971D01*
X177928024Y-67838973D01*
X177943470Y-67995800D01*
X177928024Y-68152627D01*
X177928023Y-68152629D01*
X177928023Y-68152632D01*
X177882281Y-68303426D01*
X177807995Y-68442405D01*
X177708022Y-68564222D01*
X177586205Y-68664195D01*
X177447226Y-68738481D01*
X177296432Y-68784223D01*
X177296429Y-68784223D01*
X177296427Y-68784224D01*
X177197996Y-68793919D01*
X177178894Y-68795800D01*
X177100306Y-68795800D01*
X177081204Y-68793919D01*
X176982773Y-68784224D01*
X176982771Y-68784223D01*
X176982768Y-68784223D01*
X176831974Y-68738481D01*
X176692995Y-68664195D01*
X176571178Y-68564222D01*
X176471205Y-68442405D01*
X176396919Y-68303426D01*
X176351177Y-68152632D01*
X176351177Y-68152629D01*
X176351176Y-68152627D01*
X176335730Y-67995800D01*
X176351176Y-67838973D01*
X176351177Y-67838971D01*
X176351177Y-67838968D01*
X176396919Y-67688174D01*
X176471205Y-67549195D01*
X176571178Y-67427378D01*
X176692995Y-67327405D01*
X176831974Y-67253119D01*
X176982768Y-67207377D01*
X176982771Y-67207377D01*
X176982773Y-67207376D01*
X177081204Y-67197681D01*
X177100306Y-67195800D01*
X177178894Y-67195800D01*
X177197996Y-67197681D01*
X177197996Y-67197681D01*
G37*
G36*
X164497996Y-67197681D02*
G01*
X164596427Y-67207376D01*
X164596429Y-67207377D01*
X164596432Y-67207377D01*
X164747226Y-67253119D01*
X164886205Y-67327405D01*
X165008022Y-67427378D01*
X165107995Y-67549195D01*
X165182281Y-67688174D01*
X165228023Y-67838968D01*
X165228023Y-67838971D01*
X165228024Y-67838973D01*
X165243470Y-67995800D01*
X165228024Y-68152627D01*
X165228023Y-68152629D01*
X165228023Y-68152632D01*
X165182281Y-68303426D01*
X165107995Y-68442405D01*
X165008022Y-68564222D01*
X164886205Y-68664195D01*
X164747226Y-68738481D01*
X164596432Y-68784223D01*
X164596429Y-68784223D01*
X164596427Y-68784224D01*
X164497996Y-68793919D01*
X164478894Y-68795800D01*
X164400306Y-68795800D01*
X164381204Y-68793919D01*
X164282773Y-68784224D01*
X164282771Y-68784223D01*
X164282768Y-68784223D01*
X164131974Y-68738481D01*
X163992995Y-68664195D01*
X163871178Y-68564222D01*
X163771205Y-68442405D01*
X163696919Y-68303426D01*
X163651177Y-68152632D01*
X163651177Y-68152629D01*
X163651176Y-68152627D01*
X163635730Y-67995800D01*
X163651176Y-67838973D01*
X163651177Y-67838971D01*
X163651177Y-67838968D01*
X163696919Y-67688174D01*
X163771205Y-67549195D01*
X163871178Y-67427378D01*
X163992995Y-67327405D01*
X164131974Y-67253119D01*
X164282768Y-67207377D01*
X164282771Y-67207377D01*
X164282773Y-67207376D01*
X164381204Y-67197681D01*
X164400306Y-67195800D01*
X164478894Y-67195800D01*
X164497996Y-67197681D01*
X164497996Y-67197681D01*
G37*
G36*
X139885396Y-67146881D02*
G01*
X139983827Y-67156576D01*
X139983829Y-67156577D01*
X139983832Y-67156577D01*
X140134626Y-67202319D01*
X140273605Y-67276605D01*
X140395422Y-67376578D01*
X140495395Y-67498395D01*
X140569681Y-67637374D01*
X140615423Y-67788168D01*
X140615423Y-67788171D01*
X140615424Y-67788173D01*
X140630870Y-67945000D01*
X140615424Y-68101827D01*
X140615423Y-68101829D01*
X140615423Y-68101832D01*
X140569681Y-68252626D01*
X140495395Y-68391605D01*
X140395422Y-68513422D01*
X140273605Y-68613395D01*
X140134626Y-68687681D01*
X139983832Y-68733423D01*
X139983829Y-68733423D01*
X139983827Y-68733424D01*
X139885396Y-68743119D01*
X139866294Y-68745000D01*
X139787706Y-68745000D01*
X139768604Y-68743119D01*
X139670173Y-68733424D01*
X139670171Y-68733423D01*
X139670168Y-68733423D01*
X139519374Y-68687681D01*
X139380395Y-68613395D01*
X139258578Y-68513422D01*
X139158605Y-68391605D01*
X139084319Y-68252626D01*
X139038577Y-68101832D01*
X139038577Y-68101829D01*
X139038576Y-68101827D01*
X139023130Y-67945000D01*
X139038576Y-67788173D01*
X139038577Y-67788171D01*
X139038577Y-67788168D01*
X139084319Y-67637374D01*
X139158605Y-67498395D01*
X139258578Y-67376578D01*
X139380395Y-67276605D01*
X139519374Y-67202319D01*
X139670168Y-67156577D01*
X139670171Y-67156577D01*
X139670173Y-67156576D01*
X139768604Y-67146881D01*
X139787706Y-67145000D01*
X139866294Y-67145000D01*
X139885396Y-67146881D01*
X139885396Y-67146881D01*
G37*
G36*
X152585396Y-67146881D02*
G01*
X152683827Y-67156576D01*
X152683829Y-67156577D01*
X152683832Y-67156577D01*
X152834626Y-67202319D01*
X152973605Y-67276605D01*
X153095422Y-67376578D01*
X153195395Y-67498395D01*
X153269681Y-67637374D01*
X153315423Y-67788168D01*
X153315423Y-67788171D01*
X153315424Y-67788173D01*
X153330870Y-67945000D01*
X153315424Y-68101827D01*
X153315423Y-68101829D01*
X153315423Y-68101832D01*
X153269681Y-68252626D01*
X153195395Y-68391605D01*
X153095422Y-68513422D01*
X152973605Y-68613395D01*
X152834626Y-68687681D01*
X152683832Y-68733423D01*
X152683829Y-68733423D01*
X152683827Y-68733424D01*
X152585396Y-68743119D01*
X152566294Y-68745000D01*
X152487706Y-68745000D01*
X152468604Y-68743119D01*
X152370173Y-68733424D01*
X152370171Y-68733423D01*
X152370168Y-68733423D01*
X152219374Y-68687681D01*
X152080395Y-68613395D01*
X151958578Y-68513422D01*
X151858605Y-68391605D01*
X151784319Y-68252626D01*
X151738577Y-68101832D01*
X151738577Y-68101829D01*
X151738576Y-68101827D01*
X151723130Y-67945000D01*
X151738576Y-67788173D01*
X151738577Y-67788171D01*
X151738577Y-67788168D01*
X151784319Y-67637374D01*
X151858605Y-67498395D01*
X151958578Y-67376578D01*
X152080395Y-67276605D01*
X152219374Y-67202319D01*
X152370168Y-67156577D01*
X152370171Y-67156577D01*
X152370173Y-67156576D01*
X152468604Y-67146881D01*
X152487706Y-67145000D01*
X152566294Y-67145000D01*
X152585396Y-67146881D01*
X152585396Y-67146881D01*
G37*
G36*
X104306633Y-65202300D02*
G01*
X104434810Y-65241182D01*
X104466855Y-65250903D01*
X104506318Y-65271997D01*
X104614518Y-65329830D01*
X104743948Y-65436052D01*
X104850170Y-65565482D01*
X104894187Y-65647833D01*
X104929097Y-65713145D01*
X104929097Y-65713146D01*
X104977700Y-65873367D01*
X104994112Y-66040000D01*
X104977700Y-66206633D01*
X104943644Y-66318900D01*
X104929097Y-66366855D01*
X104908003Y-66406318D01*
X104850170Y-66514518D01*
X104743948Y-66643948D01*
X104614518Y-66750170D01*
X104506319Y-66808003D01*
X104466855Y-66829097D01*
X104434810Y-66838818D01*
X104306633Y-66877700D01*
X104181753Y-66890000D01*
X104098247Y-66890000D01*
X103973367Y-66877700D01*
X103845190Y-66838818D01*
X103813145Y-66829097D01*
X103773681Y-66808003D01*
X103665482Y-66750170D01*
X103536052Y-66643948D01*
X103429830Y-66514518D01*
X103371997Y-66406318D01*
X103350903Y-66366855D01*
X103336356Y-66318900D01*
X103302300Y-66206633D01*
X103285888Y-66040000D01*
X103302300Y-65873367D01*
X103350903Y-65713146D01*
X103350903Y-65713145D01*
X103385813Y-65647833D01*
X103429830Y-65565482D01*
X103536052Y-65436052D01*
X103665482Y-65329830D01*
X103773682Y-65271997D01*
X103813145Y-65250903D01*
X103845190Y-65241182D01*
X103973367Y-65202300D01*
X104098247Y-65190000D01*
X104181753Y-65190000D01*
X104306633Y-65202300D01*
X104306633Y-65202300D01*
G37*
G36*
X119546633Y-65202300D02*
G01*
X119674810Y-65241182D01*
X119706855Y-65250903D01*
X119746318Y-65271997D01*
X119854518Y-65329830D01*
X119983948Y-65436052D01*
X120090170Y-65565482D01*
X120134187Y-65647833D01*
X120169097Y-65713145D01*
X120169097Y-65713146D01*
X120217700Y-65873367D01*
X120234112Y-66040000D01*
X120217700Y-66206633D01*
X120183644Y-66318900D01*
X120169097Y-66366855D01*
X120148003Y-66406318D01*
X120090170Y-66514518D01*
X119983948Y-66643948D01*
X119854518Y-66750170D01*
X119746319Y-66808003D01*
X119706855Y-66829097D01*
X119674810Y-66838818D01*
X119546633Y-66877700D01*
X119421753Y-66890000D01*
X119338247Y-66890000D01*
X119213367Y-66877700D01*
X119085190Y-66838818D01*
X119053145Y-66829097D01*
X119013681Y-66808003D01*
X118905482Y-66750170D01*
X118776052Y-66643948D01*
X118669830Y-66514518D01*
X118611997Y-66406318D01*
X118590903Y-66366855D01*
X118576356Y-66318900D01*
X118542300Y-66206633D01*
X118525888Y-66040000D01*
X118542300Y-65873367D01*
X118590903Y-65713146D01*
X118590903Y-65713145D01*
X118625813Y-65647833D01*
X118669830Y-65565482D01*
X118776052Y-65436052D01*
X118905482Y-65329830D01*
X119013682Y-65271997D01*
X119053145Y-65250903D01*
X119085190Y-65241182D01*
X119213367Y-65202300D01*
X119338247Y-65190000D01*
X119421753Y-65190000D01*
X119546633Y-65202300D01*
X119546633Y-65202300D01*
G37*
G36*
X117006633Y-65202300D02*
G01*
X117134810Y-65241182D01*
X117166855Y-65250903D01*
X117206318Y-65271997D01*
X117314518Y-65329830D01*
X117443948Y-65436052D01*
X117550170Y-65565482D01*
X117594187Y-65647833D01*
X117629097Y-65713145D01*
X117629097Y-65713146D01*
X117677700Y-65873367D01*
X117694112Y-66040000D01*
X117677700Y-66206633D01*
X117643644Y-66318900D01*
X117629097Y-66366855D01*
X117608003Y-66406318D01*
X117550170Y-66514518D01*
X117443948Y-66643948D01*
X117314518Y-66750170D01*
X117206319Y-66808003D01*
X117166855Y-66829097D01*
X117134810Y-66838818D01*
X117006633Y-66877700D01*
X116881753Y-66890000D01*
X116798247Y-66890000D01*
X116673367Y-66877700D01*
X116545190Y-66838818D01*
X116513145Y-66829097D01*
X116473681Y-66808003D01*
X116365482Y-66750170D01*
X116236052Y-66643948D01*
X116129830Y-66514518D01*
X116071997Y-66406318D01*
X116050903Y-66366855D01*
X116036356Y-66318900D01*
X116002300Y-66206633D01*
X115985888Y-66040000D01*
X116002300Y-65873367D01*
X116050903Y-65713146D01*
X116050903Y-65713145D01*
X116085813Y-65647833D01*
X116129830Y-65565482D01*
X116236052Y-65436052D01*
X116365482Y-65329830D01*
X116473682Y-65271997D01*
X116513145Y-65250903D01*
X116545190Y-65241182D01*
X116673367Y-65202300D01*
X116798247Y-65190000D01*
X116881753Y-65190000D01*
X117006633Y-65202300D01*
X117006633Y-65202300D01*
G37*
G36*
X114466633Y-65202300D02*
G01*
X114594810Y-65241182D01*
X114626855Y-65250903D01*
X114666318Y-65271997D01*
X114774518Y-65329830D01*
X114903948Y-65436052D01*
X115010170Y-65565482D01*
X115054187Y-65647833D01*
X115089097Y-65713145D01*
X115089097Y-65713146D01*
X115137700Y-65873367D01*
X115154112Y-66040000D01*
X115137700Y-66206633D01*
X115103644Y-66318900D01*
X115089097Y-66366855D01*
X115068003Y-66406318D01*
X115010170Y-66514518D01*
X114903948Y-66643948D01*
X114774518Y-66750170D01*
X114666319Y-66808003D01*
X114626855Y-66829097D01*
X114594810Y-66838818D01*
X114466633Y-66877700D01*
X114341753Y-66890000D01*
X114258247Y-66890000D01*
X114133367Y-66877700D01*
X114005190Y-66838818D01*
X113973145Y-66829097D01*
X113933681Y-66808003D01*
X113825482Y-66750170D01*
X113696052Y-66643948D01*
X113589830Y-66514518D01*
X113531997Y-66406318D01*
X113510903Y-66366855D01*
X113496356Y-66318900D01*
X113462300Y-66206633D01*
X113445888Y-66040000D01*
X113462300Y-65873367D01*
X113510903Y-65713146D01*
X113510903Y-65713145D01*
X113545813Y-65647833D01*
X113589830Y-65565482D01*
X113696052Y-65436052D01*
X113825482Y-65329830D01*
X113933682Y-65271997D01*
X113973145Y-65250903D01*
X114005190Y-65241182D01*
X114133367Y-65202300D01*
X114258247Y-65190000D01*
X114341753Y-65190000D01*
X114466633Y-65202300D01*
X114466633Y-65202300D01*
G37*
G36*
X129706633Y-65202300D02*
G01*
X129834810Y-65241182D01*
X129866855Y-65250903D01*
X129906318Y-65271997D01*
X130014518Y-65329830D01*
X130143948Y-65436052D01*
X130250170Y-65565482D01*
X130294187Y-65647833D01*
X130329097Y-65713145D01*
X130329097Y-65713146D01*
X130377700Y-65873367D01*
X130394112Y-66040000D01*
X130377700Y-66206633D01*
X130343644Y-66318900D01*
X130329097Y-66366855D01*
X130308003Y-66406318D01*
X130250170Y-66514518D01*
X130143948Y-66643948D01*
X130014518Y-66750170D01*
X129906319Y-66808003D01*
X129866855Y-66829097D01*
X129834810Y-66838818D01*
X129706633Y-66877700D01*
X129581753Y-66890000D01*
X129498247Y-66890000D01*
X129373367Y-66877700D01*
X129245190Y-66838818D01*
X129213145Y-66829097D01*
X129173681Y-66808003D01*
X129065482Y-66750170D01*
X128936052Y-66643948D01*
X128829830Y-66514518D01*
X128771997Y-66406318D01*
X128750903Y-66366855D01*
X128736356Y-66318900D01*
X128702300Y-66206633D01*
X128685888Y-66040000D01*
X128702300Y-65873367D01*
X128750903Y-65713146D01*
X128750903Y-65713145D01*
X128785813Y-65647833D01*
X128829830Y-65565482D01*
X128936052Y-65436052D01*
X129065482Y-65329830D01*
X129173682Y-65271997D01*
X129213145Y-65250903D01*
X129245190Y-65241182D01*
X129373367Y-65202300D01*
X129498247Y-65190000D01*
X129581753Y-65190000D01*
X129706633Y-65202300D01*
X129706633Y-65202300D01*
G37*
G36*
X127166633Y-65202300D02*
G01*
X127294810Y-65241182D01*
X127326855Y-65250903D01*
X127366318Y-65271997D01*
X127474518Y-65329830D01*
X127603948Y-65436052D01*
X127710170Y-65565482D01*
X127754187Y-65647833D01*
X127789097Y-65713145D01*
X127789097Y-65713146D01*
X127837700Y-65873367D01*
X127854112Y-66040000D01*
X127837700Y-66206633D01*
X127803644Y-66318900D01*
X127789097Y-66366855D01*
X127768003Y-66406318D01*
X127710170Y-66514518D01*
X127603948Y-66643948D01*
X127474518Y-66750170D01*
X127366319Y-66808003D01*
X127326855Y-66829097D01*
X127294810Y-66838818D01*
X127166633Y-66877700D01*
X127041753Y-66890000D01*
X126958247Y-66890000D01*
X126833367Y-66877700D01*
X126705190Y-66838818D01*
X126673145Y-66829097D01*
X126633681Y-66808003D01*
X126525482Y-66750170D01*
X126396052Y-66643948D01*
X126289830Y-66514518D01*
X126231997Y-66406318D01*
X126210903Y-66366855D01*
X126196356Y-66318900D01*
X126162300Y-66206633D01*
X126145888Y-66040000D01*
X126162300Y-65873367D01*
X126210903Y-65713146D01*
X126210903Y-65713145D01*
X126245813Y-65647833D01*
X126289830Y-65565482D01*
X126396052Y-65436052D01*
X126525482Y-65329830D01*
X126633682Y-65271997D01*
X126673145Y-65250903D01*
X126705190Y-65241182D01*
X126833367Y-65202300D01*
X126958247Y-65190000D01*
X127041753Y-65190000D01*
X127166633Y-65202300D01*
X127166633Y-65202300D01*
G37*
G36*
X124626633Y-65202300D02*
G01*
X124754810Y-65241182D01*
X124786855Y-65250903D01*
X124826318Y-65271997D01*
X124934518Y-65329830D01*
X125063948Y-65436052D01*
X125170170Y-65565482D01*
X125214187Y-65647833D01*
X125249097Y-65713145D01*
X125249097Y-65713146D01*
X125297700Y-65873367D01*
X125314112Y-66040000D01*
X125297700Y-66206633D01*
X125263644Y-66318900D01*
X125249097Y-66366855D01*
X125228003Y-66406318D01*
X125170170Y-66514518D01*
X125063948Y-66643948D01*
X124934518Y-66750170D01*
X124826319Y-66808003D01*
X124786855Y-66829097D01*
X124754810Y-66838818D01*
X124626633Y-66877700D01*
X124501753Y-66890000D01*
X124418247Y-66890000D01*
X124293367Y-66877700D01*
X124165190Y-66838818D01*
X124133145Y-66829097D01*
X124093681Y-66808003D01*
X123985482Y-66750170D01*
X123856052Y-66643948D01*
X123749830Y-66514518D01*
X123691997Y-66406318D01*
X123670903Y-66366855D01*
X123656356Y-66318900D01*
X123622300Y-66206633D01*
X123605888Y-66040000D01*
X123622300Y-65873367D01*
X123670903Y-65713146D01*
X123670903Y-65713145D01*
X123705813Y-65647833D01*
X123749830Y-65565482D01*
X123856052Y-65436052D01*
X123985482Y-65329830D01*
X124093682Y-65271997D01*
X124133145Y-65250903D01*
X124165190Y-65241182D01*
X124293367Y-65202300D01*
X124418247Y-65190000D01*
X124501753Y-65190000D01*
X124626633Y-65202300D01*
X124626633Y-65202300D01*
G37*
G36*
X122086633Y-65202300D02*
G01*
X122214810Y-65241182D01*
X122246855Y-65250903D01*
X122286318Y-65271997D01*
X122394518Y-65329830D01*
X122523948Y-65436052D01*
X122630170Y-65565482D01*
X122674187Y-65647833D01*
X122709097Y-65713145D01*
X122709097Y-65713146D01*
X122757700Y-65873367D01*
X122774112Y-66040000D01*
X122757700Y-66206633D01*
X122723644Y-66318900D01*
X122709097Y-66366855D01*
X122688003Y-66406318D01*
X122630170Y-66514518D01*
X122523948Y-66643948D01*
X122394518Y-66750170D01*
X122286319Y-66808003D01*
X122246855Y-66829097D01*
X122214810Y-66838818D01*
X122086633Y-66877700D01*
X121961753Y-66890000D01*
X121878247Y-66890000D01*
X121753367Y-66877700D01*
X121625190Y-66838818D01*
X121593145Y-66829097D01*
X121553681Y-66808003D01*
X121445482Y-66750170D01*
X121316052Y-66643948D01*
X121209830Y-66514518D01*
X121151997Y-66406318D01*
X121130903Y-66366855D01*
X121116356Y-66318900D01*
X121082300Y-66206633D01*
X121065888Y-66040000D01*
X121082300Y-65873367D01*
X121130903Y-65713146D01*
X121130903Y-65713145D01*
X121165813Y-65647833D01*
X121209830Y-65565482D01*
X121316052Y-65436052D01*
X121445482Y-65329830D01*
X121553682Y-65271997D01*
X121593145Y-65250903D01*
X121625190Y-65241182D01*
X121753367Y-65202300D01*
X121878247Y-65190000D01*
X121961753Y-65190000D01*
X122086633Y-65202300D01*
X122086633Y-65202300D01*
G37*
G36*
X111926633Y-65202300D02*
G01*
X112054810Y-65241182D01*
X112086855Y-65250903D01*
X112126318Y-65271997D01*
X112234518Y-65329830D01*
X112363948Y-65436052D01*
X112470170Y-65565482D01*
X112514187Y-65647833D01*
X112549097Y-65713145D01*
X112549097Y-65713146D01*
X112597700Y-65873367D01*
X112614112Y-66040000D01*
X112597700Y-66206633D01*
X112563644Y-66318900D01*
X112549097Y-66366855D01*
X112528003Y-66406318D01*
X112470170Y-66514518D01*
X112363948Y-66643948D01*
X112234518Y-66750170D01*
X112126319Y-66808003D01*
X112086855Y-66829097D01*
X112054810Y-66838818D01*
X111926633Y-66877700D01*
X111801753Y-66890000D01*
X111718247Y-66890000D01*
X111593367Y-66877700D01*
X111465190Y-66838818D01*
X111433145Y-66829097D01*
X111393681Y-66808003D01*
X111285482Y-66750170D01*
X111156052Y-66643948D01*
X111049830Y-66514518D01*
X110991997Y-66406318D01*
X110970903Y-66366855D01*
X110956356Y-66318900D01*
X110922300Y-66206633D01*
X110905888Y-66040000D01*
X110922300Y-65873367D01*
X110970903Y-65713146D01*
X110970903Y-65713145D01*
X111005813Y-65647833D01*
X111049830Y-65565482D01*
X111156052Y-65436052D01*
X111285482Y-65329830D01*
X111393682Y-65271997D01*
X111433145Y-65250903D01*
X111465190Y-65241182D01*
X111593367Y-65202300D01*
X111718247Y-65190000D01*
X111801753Y-65190000D01*
X111926633Y-65202300D01*
X111926633Y-65202300D01*
G37*
G36*
X109386633Y-65202300D02*
G01*
X109514810Y-65241182D01*
X109546855Y-65250903D01*
X109586318Y-65271997D01*
X109694518Y-65329830D01*
X109823948Y-65436052D01*
X109930170Y-65565482D01*
X109974187Y-65647833D01*
X110009097Y-65713145D01*
X110009097Y-65713146D01*
X110057700Y-65873367D01*
X110074112Y-66040000D01*
X110057700Y-66206633D01*
X110023644Y-66318900D01*
X110009097Y-66366855D01*
X109988003Y-66406318D01*
X109930170Y-66514518D01*
X109823948Y-66643948D01*
X109694518Y-66750170D01*
X109586319Y-66808003D01*
X109546855Y-66829097D01*
X109514810Y-66838818D01*
X109386633Y-66877700D01*
X109261753Y-66890000D01*
X109178247Y-66890000D01*
X109053367Y-66877700D01*
X108925190Y-66838818D01*
X108893145Y-66829097D01*
X108853681Y-66808003D01*
X108745482Y-66750170D01*
X108616052Y-66643948D01*
X108509830Y-66514518D01*
X108451997Y-66406318D01*
X108430903Y-66366855D01*
X108416356Y-66318900D01*
X108382300Y-66206633D01*
X108365888Y-66040000D01*
X108382300Y-65873367D01*
X108430903Y-65713146D01*
X108430903Y-65713145D01*
X108465813Y-65647833D01*
X108509830Y-65565482D01*
X108616052Y-65436052D01*
X108745482Y-65329830D01*
X108853682Y-65271997D01*
X108893145Y-65250903D01*
X108925190Y-65241182D01*
X109053367Y-65202300D01*
X109178247Y-65190000D01*
X109261753Y-65190000D01*
X109386633Y-65202300D01*
X109386633Y-65202300D01*
G37*
G36*
X106846633Y-65202300D02*
G01*
X106974810Y-65241182D01*
X107006855Y-65250903D01*
X107046318Y-65271997D01*
X107154518Y-65329830D01*
X107283948Y-65436052D01*
X107390170Y-65565482D01*
X107434187Y-65647833D01*
X107469097Y-65713145D01*
X107469097Y-65713146D01*
X107517700Y-65873367D01*
X107534112Y-66040000D01*
X107517700Y-66206633D01*
X107483644Y-66318900D01*
X107469097Y-66366855D01*
X107448003Y-66406318D01*
X107390170Y-66514518D01*
X107283948Y-66643948D01*
X107154518Y-66750170D01*
X107046319Y-66808003D01*
X107006855Y-66829097D01*
X106974810Y-66838818D01*
X106846633Y-66877700D01*
X106721753Y-66890000D01*
X106638247Y-66890000D01*
X106513367Y-66877700D01*
X106385190Y-66838818D01*
X106353145Y-66829097D01*
X106313681Y-66808003D01*
X106205482Y-66750170D01*
X106076052Y-66643948D01*
X105969830Y-66514518D01*
X105911997Y-66406318D01*
X105890903Y-66366855D01*
X105876356Y-66318900D01*
X105842300Y-66206633D01*
X105825888Y-66040000D01*
X105842300Y-65873367D01*
X105890903Y-65713146D01*
X105890903Y-65713145D01*
X105925813Y-65647833D01*
X105969830Y-65565482D01*
X106076052Y-65436052D01*
X106205482Y-65329830D01*
X106313682Y-65271997D01*
X106353145Y-65250903D01*
X106385190Y-65241182D01*
X106513367Y-65202300D01*
X106638247Y-65190000D01*
X106721753Y-65190000D01*
X106846633Y-65202300D01*
X106846633Y-65202300D01*
G37*
G36*
X102450000Y-66890000D02*
G01*
X100750000Y-66890000D01*
X100750000Y-65190000D01*
X102450000Y-65190000D01*
X102450000Y-66890000D01*
X102450000Y-66890000D01*
G37*
G36*
X158815033Y-64643500D02*
G01*
X158943210Y-64682382D01*
X158975255Y-64692103D01*
X159014573Y-64713119D01*
X159122918Y-64771030D01*
X159252348Y-64877252D01*
X159358570Y-65006682D01*
X159407044Y-65097372D01*
X159437497Y-65154345D01*
X159437497Y-65154346D01*
X159486100Y-65314567D01*
X159502512Y-65481200D01*
X159486100Y-65647833D01*
X159466287Y-65713146D01*
X159437497Y-65808055D01*
X159416403Y-65847519D01*
X159358570Y-65955718D01*
X159252348Y-66085148D01*
X159122918Y-66191370D01*
X159024034Y-66244224D01*
X158975255Y-66270297D01*
X158943210Y-66280018D01*
X158815033Y-66318900D01*
X158690153Y-66331200D01*
X158606647Y-66331200D01*
X158481767Y-66318900D01*
X158353590Y-66280018D01*
X158321545Y-66270297D01*
X158272766Y-66244224D01*
X158173882Y-66191370D01*
X158044452Y-66085148D01*
X157938230Y-65955718D01*
X157880397Y-65847519D01*
X157859303Y-65808055D01*
X157830513Y-65713146D01*
X157810700Y-65647833D01*
X157794288Y-65481200D01*
X157810700Y-65314567D01*
X157859303Y-65154346D01*
X157859303Y-65154345D01*
X157889756Y-65097372D01*
X157938230Y-65006682D01*
X158044452Y-64877252D01*
X158173882Y-64771030D01*
X158282227Y-64713119D01*
X158321545Y-64692103D01*
X158353590Y-64682382D01*
X158481767Y-64643500D01*
X158606647Y-64631200D01*
X158690153Y-64631200D01*
X158815033Y-64643500D01*
X158815033Y-64643500D01*
G37*
G36*
X183351433Y-64643500D02*
G01*
X183479610Y-64682382D01*
X183511655Y-64692103D01*
X183550973Y-64713119D01*
X183659318Y-64771030D01*
X183788748Y-64877252D01*
X183894970Y-65006682D01*
X183943444Y-65097372D01*
X183973897Y-65154345D01*
X183973897Y-65154346D01*
X184022500Y-65314567D01*
X184038912Y-65481200D01*
X184022500Y-65647833D01*
X184002687Y-65713146D01*
X183973897Y-65808055D01*
X183952803Y-65847519D01*
X183894970Y-65955718D01*
X183788748Y-66085148D01*
X183659318Y-66191370D01*
X183560434Y-66244224D01*
X183511655Y-66270297D01*
X183479610Y-66280018D01*
X183351433Y-66318900D01*
X183226553Y-66331200D01*
X183143047Y-66331200D01*
X183018167Y-66318900D01*
X182889990Y-66280018D01*
X182857945Y-66270297D01*
X182809166Y-66244224D01*
X182710282Y-66191370D01*
X182580852Y-66085148D01*
X182474630Y-65955718D01*
X182416797Y-65847519D01*
X182395703Y-65808055D01*
X182366913Y-65713146D01*
X182347100Y-65647833D01*
X182330688Y-65481200D01*
X182347100Y-65314567D01*
X182395703Y-65154346D01*
X182395703Y-65154345D01*
X182426156Y-65097372D01*
X182474630Y-65006682D01*
X182580852Y-64877252D01*
X182710282Y-64771030D01*
X182818627Y-64713119D01*
X182857945Y-64692103D01*
X182889990Y-64682382D01*
X183018167Y-64643500D01*
X183143047Y-64631200D01*
X183226553Y-64631200D01*
X183351433Y-64643500D01*
X183351433Y-64643500D01*
G37*
G36*
X164497996Y-64657681D02*
G01*
X164596427Y-64667376D01*
X164596429Y-64667377D01*
X164596432Y-64667377D01*
X164747226Y-64713119D01*
X164886205Y-64787405D01*
X165008022Y-64887378D01*
X165107995Y-65009195D01*
X165182281Y-65148174D01*
X165228023Y-65298968D01*
X165228023Y-65298971D01*
X165228024Y-65298973D01*
X165243470Y-65455800D01*
X165228024Y-65612627D01*
X165228023Y-65612629D01*
X165228023Y-65612632D01*
X165182281Y-65763426D01*
X165107995Y-65902405D01*
X165008022Y-66024222D01*
X164886205Y-66124195D01*
X164747226Y-66198481D01*
X164596432Y-66244223D01*
X164596429Y-66244223D01*
X164596427Y-66244224D01*
X164497996Y-66253919D01*
X164478894Y-66255800D01*
X164400306Y-66255800D01*
X164381204Y-66253919D01*
X164282773Y-66244224D01*
X164282771Y-66244223D01*
X164282768Y-66244223D01*
X164131974Y-66198481D01*
X163992995Y-66124195D01*
X163871178Y-66024222D01*
X163771205Y-65902405D01*
X163696919Y-65763426D01*
X163651177Y-65612632D01*
X163651177Y-65612629D01*
X163651176Y-65612627D01*
X163635730Y-65455800D01*
X163651176Y-65298973D01*
X163651177Y-65298971D01*
X163651177Y-65298968D01*
X163696919Y-65148174D01*
X163771205Y-65009195D01*
X163871178Y-64887378D01*
X163992995Y-64787405D01*
X164131974Y-64713119D01*
X164282768Y-64667377D01*
X164282771Y-64667377D01*
X164282773Y-64667376D01*
X164381204Y-64657681D01*
X164400306Y-64655800D01*
X164478894Y-64655800D01*
X164497996Y-64657681D01*
X164497996Y-64657681D01*
G37*
G36*
X177197996Y-64657681D02*
G01*
X177296427Y-64667376D01*
X177296429Y-64667377D01*
X177296432Y-64667377D01*
X177447226Y-64713119D01*
X177586205Y-64787405D01*
X177708022Y-64887378D01*
X177807995Y-65009195D01*
X177882281Y-65148174D01*
X177928023Y-65298968D01*
X177928023Y-65298971D01*
X177928024Y-65298973D01*
X177943470Y-65455800D01*
X177928024Y-65612627D01*
X177928023Y-65612629D01*
X177928023Y-65612632D01*
X177882281Y-65763426D01*
X177807995Y-65902405D01*
X177708022Y-66024222D01*
X177586205Y-66124195D01*
X177447226Y-66198481D01*
X177296432Y-66244223D01*
X177296429Y-66244223D01*
X177296427Y-66244224D01*
X177197996Y-66253919D01*
X177178894Y-66255800D01*
X177100306Y-66255800D01*
X177081204Y-66253919D01*
X176982773Y-66244224D01*
X176982771Y-66244223D01*
X176982768Y-66244223D01*
X176831974Y-66198481D01*
X176692995Y-66124195D01*
X176571178Y-66024222D01*
X176471205Y-65902405D01*
X176396919Y-65763426D01*
X176351177Y-65612632D01*
X176351177Y-65612629D01*
X176351176Y-65612627D01*
X176335730Y-65455800D01*
X176351176Y-65298973D01*
X176351177Y-65298971D01*
X176351177Y-65298968D01*
X176396919Y-65148174D01*
X176471205Y-65009195D01*
X176571178Y-64887378D01*
X176692995Y-64787405D01*
X176831974Y-64713119D01*
X176982768Y-64667377D01*
X176982771Y-64667377D01*
X176982773Y-64667376D01*
X177081204Y-64657681D01*
X177100306Y-64655800D01*
X177178894Y-64655800D01*
X177197996Y-64657681D01*
X177197996Y-64657681D01*
G37*
G36*
X152585396Y-64606881D02*
G01*
X152683827Y-64616576D01*
X152683829Y-64616577D01*
X152683832Y-64616577D01*
X152834626Y-64662319D01*
X152973605Y-64736605D01*
X153095422Y-64836578D01*
X153195395Y-64958395D01*
X153269681Y-65097374D01*
X153315423Y-65248168D01*
X153315423Y-65248171D01*
X153315424Y-65248173D01*
X153330870Y-65405000D01*
X153315424Y-65561827D01*
X153315423Y-65561829D01*
X153315423Y-65561832D01*
X153269681Y-65712626D01*
X153195395Y-65851605D01*
X153095422Y-65973422D01*
X152973605Y-66073395D01*
X152834626Y-66147681D01*
X152683832Y-66193423D01*
X152683829Y-66193423D01*
X152683827Y-66193424D01*
X152585396Y-66203119D01*
X152566294Y-66205000D01*
X152487706Y-66205000D01*
X152468604Y-66203119D01*
X152370173Y-66193424D01*
X152370171Y-66193423D01*
X152370168Y-66193423D01*
X152219374Y-66147681D01*
X152080395Y-66073395D01*
X151958578Y-65973422D01*
X151858605Y-65851605D01*
X151784319Y-65712626D01*
X151738577Y-65561832D01*
X151738577Y-65561829D01*
X151738576Y-65561827D01*
X151723130Y-65405000D01*
X151738576Y-65248173D01*
X151738577Y-65248171D01*
X151738577Y-65248168D01*
X151784319Y-65097374D01*
X151858605Y-64958395D01*
X151958578Y-64836578D01*
X152080395Y-64736605D01*
X152219374Y-64662319D01*
X152370168Y-64616577D01*
X152370171Y-64616577D01*
X152370173Y-64616576D01*
X152468604Y-64606881D01*
X152487706Y-64605000D01*
X152566294Y-64605000D01*
X152585396Y-64606881D01*
X152585396Y-64606881D01*
G37*
G36*
X139885396Y-64606881D02*
G01*
X139983827Y-64616576D01*
X139983829Y-64616577D01*
X139983832Y-64616577D01*
X140134626Y-64662319D01*
X140273605Y-64736605D01*
X140395422Y-64836578D01*
X140495395Y-64958395D01*
X140569681Y-65097374D01*
X140615423Y-65248168D01*
X140615423Y-65248171D01*
X140615424Y-65248173D01*
X140630870Y-65405000D01*
X140615424Y-65561827D01*
X140615423Y-65561829D01*
X140615423Y-65561832D01*
X140569681Y-65712626D01*
X140495395Y-65851605D01*
X140395422Y-65973422D01*
X140273605Y-66073395D01*
X140134626Y-66147681D01*
X139983832Y-66193423D01*
X139983829Y-66193423D01*
X139983827Y-66193424D01*
X139885396Y-66203119D01*
X139866294Y-66205000D01*
X139787706Y-66205000D01*
X139768604Y-66203119D01*
X139670173Y-66193424D01*
X139670171Y-66193423D01*
X139670168Y-66193423D01*
X139519374Y-66147681D01*
X139380395Y-66073395D01*
X139258578Y-65973422D01*
X139158605Y-65851605D01*
X139084319Y-65712626D01*
X139038577Y-65561832D01*
X139038577Y-65561829D01*
X139038576Y-65561827D01*
X139023130Y-65405000D01*
X139038576Y-65248173D01*
X139038577Y-65248171D01*
X139038577Y-65248168D01*
X139084319Y-65097374D01*
X139158605Y-64958395D01*
X139258578Y-64836578D01*
X139380395Y-64736605D01*
X139519374Y-64662319D01*
X139670168Y-64616577D01*
X139670171Y-64616577D01*
X139670173Y-64616576D01*
X139768604Y-64606881D01*
X139787706Y-64605000D01*
X139866294Y-64605000D01*
X139885396Y-64606881D01*
X139885396Y-64606881D01*
G37*
G36*
X158815033Y-62103500D02*
G01*
X158943210Y-62142382D01*
X158975255Y-62152103D01*
X159014573Y-62173119D01*
X159122918Y-62231030D01*
X159252348Y-62337252D01*
X159358570Y-62466682D01*
X159407044Y-62557372D01*
X159437497Y-62614345D01*
X159437497Y-62614346D01*
X159486100Y-62774567D01*
X159502512Y-62941200D01*
X159486100Y-63107833D01*
X159466444Y-63172628D01*
X159437497Y-63268055D01*
X159416403Y-63307519D01*
X159358570Y-63415718D01*
X159252348Y-63545148D01*
X159122918Y-63651370D01*
X159024034Y-63704224D01*
X158975255Y-63730297D01*
X158943210Y-63740018D01*
X158815033Y-63778900D01*
X158690153Y-63791200D01*
X158606647Y-63791200D01*
X158481767Y-63778900D01*
X158353590Y-63740018D01*
X158321545Y-63730297D01*
X158272766Y-63704224D01*
X158173882Y-63651370D01*
X158044452Y-63545148D01*
X157938230Y-63415718D01*
X157880397Y-63307519D01*
X157859303Y-63268055D01*
X157830356Y-63172628D01*
X157810700Y-63107833D01*
X157794288Y-62941200D01*
X157810700Y-62774567D01*
X157859303Y-62614346D01*
X157859303Y-62614345D01*
X157889756Y-62557372D01*
X157938230Y-62466682D01*
X158044452Y-62337252D01*
X158173882Y-62231030D01*
X158282227Y-62173119D01*
X158321545Y-62152103D01*
X158353590Y-62142382D01*
X158481767Y-62103500D01*
X158606647Y-62091200D01*
X158690153Y-62091200D01*
X158815033Y-62103500D01*
X158815033Y-62103500D01*
G37*
G36*
X183351433Y-62103500D02*
G01*
X183479610Y-62142382D01*
X183511655Y-62152103D01*
X183550973Y-62173119D01*
X183659318Y-62231030D01*
X183788748Y-62337252D01*
X183894970Y-62466682D01*
X183943444Y-62557372D01*
X183973897Y-62614345D01*
X183973897Y-62614346D01*
X184022500Y-62774567D01*
X184038912Y-62941200D01*
X184022500Y-63107833D01*
X184002844Y-63172628D01*
X183973897Y-63268055D01*
X183952803Y-63307519D01*
X183894970Y-63415718D01*
X183788748Y-63545148D01*
X183659318Y-63651370D01*
X183560434Y-63704224D01*
X183511655Y-63730297D01*
X183479610Y-63740018D01*
X183351433Y-63778900D01*
X183226553Y-63791200D01*
X183143047Y-63791200D01*
X183018167Y-63778900D01*
X182889990Y-63740018D01*
X182857945Y-63730297D01*
X182809166Y-63704224D01*
X182710282Y-63651370D01*
X182580852Y-63545148D01*
X182474630Y-63415718D01*
X182416797Y-63307519D01*
X182395703Y-63268055D01*
X182366756Y-63172628D01*
X182347100Y-63107833D01*
X182330688Y-62941200D01*
X182347100Y-62774567D01*
X182395703Y-62614346D01*
X182395703Y-62614345D01*
X182426156Y-62557372D01*
X182474630Y-62466682D01*
X182580852Y-62337252D01*
X182710282Y-62231030D01*
X182818627Y-62173119D01*
X182857945Y-62152103D01*
X182889990Y-62142382D01*
X183018167Y-62103500D01*
X183143047Y-62091200D01*
X183226553Y-62091200D01*
X183351433Y-62103500D01*
X183351433Y-62103500D01*
G37*
G36*
X177197996Y-62117681D02*
G01*
X177296427Y-62127376D01*
X177296429Y-62127377D01*
X177296432Y-62127377D01*
X177447226Y-62173119D01*
X177586205Y-62247405D01*
X177708022Y-62347378D01*
X177807995Y-62469195D01*
X177882281Y-62608174D01*
X177928023Y-62758968D01*
X177928023Y-62758971D01*
X177928024Y-62758973D01*
X177943470Y-62915800D01*
X177928024Y-63072627D01*
X177928023Y-63072629D01*
X177928023Y-63072632D01*
X177882281Y-63223426D01*
X177807995Y-63362405D01*
X177708022Y-63484222D01*
X177586205Y-63584195D01*
X177447226Y-63658481D01*
X177296432Y-63704223D01*
X177296429Y-63704223D01*
X177296427Y-63704224D01*
X177197996Y-63713919D01*
X177178894Y-63715800D01*
X177100306Y-63715800D01*
X177081204Y-63713919D01*
X176982773Y-63704224D01*
X176982771Y-63704223D01*
X176982768Y-63704223D01*
X176831974Y-63658481D01*
X176692995Y-63584195D01*
X176571178Y-63484222D01*
X176471205Y-63362405D01*
X176396919Y-63223426D01*
X176351177Y-63072632D01*
X176351177Y-63072629D01*
X176351176Y-63072627D01*
X176335730Y-62915800D01*
X176351176Y-62758973D01*
X176351177Y-62758971D01*
X176351177Y-62758968D01*
X176396919Y-62608174D01*
X176471205Y-62469195D01*
X176571178Y-62347378D01*
X176692995Y-62247405D01*
X176831974Y-62173119D01*
X176982768Y-62127377D01*
X176982771Y-62127377D01*
X176982773Y-62127376D01*
X177081204Y-62117681D01*
X177100306Y-62115800D01*
X177178894Y-62115800D01*
X177197996Y-62117681D01*
X177197996Y-62117681D01*
G37*
G36*
X164497996Y-62117681D02*
G01*
X164596427Y-62127376D01*
X164596429Y-62127377D01*
X164596432Y-62127377D01*
X164747226Y-62173119D01*
X164886205Y-62247405D01*
X165008022Y-62347378D01*
X165107995Y-62469195D01*
X165182281Y-62608174D01*
X165228023Y-62758968D01*
X165228023Y-62758971D01*
X165228024Y-62758973D01*
X165243470Y-62915800D01*
X165228024Y-63072627D01*
X165228023Y-63072629D01*
X165228023Y-63072632D01*
X165182281Y-63223426D01*
X165107995Y-63362405D01*
X165008022Y-63484222D01*
X164886205Y-63584195D01*
X164747226Y-63658481D01*
X164596432Y-63704223D01*
X164596429Y-63704223D01*
X164596427Y-63704224D01*
X164497996Y-63713919D01*
X164478894Y-63715800D01*
X164400306Y-63715800D01*
X164381204Y-63713919D01*
X164282773Y-63704224D01*
X164282771Y-63704223D01*
X164282768Y-63704223D01*
X164131974Y-63658481D01*
X163992995Y-63584195D01*
X163871178Y-63484222D01*
X163771205Y-63362405D01*
X163696919Y-63223426D01*
X163651177Y-63072632D01*
X163651177Y-63072629D01*
X163651176Y-63072627D01*
X163635730Y-62915800D01*
X163651176Y-62758973D01*
X163651177Y-62758971D01*
X163651177Y-62758968D01*
X163696919Y-62608174D01*
X163771205Y-62469195D01*
X163871178Y-62347378D01*
X163992995Y-62247405D01*
X164131974Y-62173119D01*
X164282768Y-62127377D01*
X164282771Y-62127377D01*
X164282773Y-62127376D01*
X164381204Y-62117681D01*
X164400306Y-62115800D01*
X164478894Y-62115800D01*
X164497996Y-62117681D01*
X164497996Y-62117681D01*
G37*
G36*
X152585396Y-62066881D02*
G01*
X152683827Y-62076576D01*
X152683829Y-62076577D01*
X152683832Y-62076577D01*
X152834626Y-62122319D01*
X152973605Y-62196605D01*
X153095422Y-62296578D01*
X153195395Y-62418395D01*
X153269681Y-62557374D01*
X153315423Y-62708168D01*
X153315423Y-62708171D01*
X153315424Y-62708173D01*
X153330870Y-62865000D01*
X153315424Y-63021827D01*
X153315423Y-63021829D01*
X153315423Y-63021832D01*
X153269681Y-63172626D01*
X153195395Y-63311605D01*
X153095422Y-63433422D01*
X152973605Y-63533395D01*
X152834626Y-63607681D01*
X152683832Y-63653423D01*
X152683829Y-63653423D01*
X152683827Y-63653424D01*
X152585396Y-63663119D01*
X152566294Y-63665000D01*
X152487706Y-63665000D01*
X152468604Y-63663119D01*
X152370173Y-63653424D01*
X152370171Y-63653423D01*
X152370168Y-63653423D01*
X152219374Y-63607681D01*
X152080395Y-63533395D01*
X151958578Y-63433422D01*
X151858605Y-63311605D01*
X151784319Y-63172626D01*
X151738577Y-63021832D01*
X151738577Y-63021829D01*
X151738576Y-63021827D01*
X151723130Y-62865000D01*
X151738576Y-62708173D01*
X151738577Y-62708171D01*
X151738577Y-62708168D01*
X151784319Y-62557374D01*
X151858605Y-62418395D01*
X151958578Y-62296578D01*
X152080395Y-62196605D01*
X152219374Y-62122319D01*
X152370168Y-62076577D01*
X152370171Y-62076577D01*
X152370173Y-62076576D01*
X152468604Y-62066881D01*
X152487706Y-62065000D01*
X152566294Y-62065000D01*
X152585396Y-62066881D01*
X152585396Y-62066881D01*
G37*
G36*
X139885396Y-62066881D02*
G01*
X139983827Y-62076576D01*
X139983829Y-62076577D01*
X139983832Y-62076577D01*
X140134626Y-62122319D01*
X140273605Y-62196605D01*
X140395422Y-62296578D01*
X140495395Y-62418395D01*
X140569681Y-62557374D01*
X140615423Y-62708168D01*
X140615423Y-62708171D01*
X140615424Y-62708173D01*
X140630870Y-62865000D01*
X140615424Y-63021827D01*
X140615423Y-63021829D01*
X140615423Y-63021832D01*
X140569681Y-63172626D01*
X140495395Y-63311605D01*
X140395422Y-63433422D01*
X140273605Y-63533395D01*
X140134626Y-63607681D01*
X139983832Y-63653423D01*
X139983829Y-63653423D01*
X139983827Y-63653424D01*
X139885396Y-63663119D01*
X139866294Y-63665000D01*
X139787706Y-63665000D01*
X139768604Y-63663119D01*
X139670173Y-63653424D01*
X139670171Y-63653423D01*
X139670168Y-63653423D01*
X139519374Y-63607681D01*
X139380395Y-63533395D01*
X139258578Y-63433422D01*
X139158605Y-63311605D01*
X139084319Y-63172626D01*
X139038577Y-63021832D01*
X139038577Y-63021829D01*
X139038576Y-63021827D01*
X139023130Y-62865000D01*
X139038576Y-62708173D01*
X139038577Y-62708171D01*
X139038577Y-62708168D01*
X139084319Y-62557374D01*
X139158605Y-62418395D01*
X139258578Y-62296578D01*
X139380395Y-62196605D01*
X139519374Y-62122319D01*
X139670168Y-62076577D01*
X139670171Y-62076577D01*
X139670173Y-62076576D01*
X139768604Y-62066881D01*
X139787706Y-62065000D01*
X139866294Y-62065000D01*
X139885396Y-62066881D01*
X139885396Y-62066881D01*
G37*
G36*
X177197996Y-59577681D02*
G01*
X177296427Y-59587376D01*
X177296429Y-59587377D01*
X177296432Y-59587377D01*
X177447226Y-59633119D01*
X177586205Y-59707405D01*
X177708022Y-59807378D01*
X177807995Y-59929195D01*
X177882281Y-60068174D01*
X177928023Y-60218968D01*
X177928023Y-60218971D01*
X177928024Y-60218973D01*
X177943470Y-60375800D01*
X177928024Y-60532627D01*
X177928023Y-60532629D01*
X177928023Y-60532632D01*
X177882281Y-60683426D01*
X177807995Y-60822405D01*
X177708022Y-60944222D01*
X177586205Y-61044195D01*
X177447226Y-61118481D01*
X177296432Y-61164223D01*
X177296429Y-61164223D01*
X177296427Y-61164224D01*
X177197996Y-61173919D01*
X177178894Y-61175800D01*
X177100306Y-61175800D01*
X177081204Y-61173919D01*
X176982773Y-61164224D01*
X176982771Y-61164223D01*
X176982768Y-61164223D01*
X176831974Y-61118481D01*
X176692995Y-61044195D01*
X176571178Y-60944222D01*
X176471205Y-60822405D01*
X176396919Y-60683426D01*
X176351177Y-60532632D01*
X176351177Y-60532629D01*
X176351176Y-60532627D01*
X176335730Y-60375800D01*
X176351176Y-60218973D01*
X176351177Y-60218971D01*
X176351177Y-60218968D01*
X176396919Y-60068174D01*
X176471205Y-59929195D01*
X176571178Y-59807378D01*
X176692995Y-59707405D01*
X176831974Y-59633119D01*
X176982768Y-59587377D01*
X176982771Y-59587377D01*
X176982773Y-59587376D01*
X177081204Y-59577681D01*
X177100306Y-59575800D01*
X177178894Y-59575800D01*
X177197996Y-59577681D01*
X177197996Y-59577681D01*
G37*
G36*
X164497996Y-59577681D02*
G01*
X164596427Y-59587376D01*
X164596429Y-59587377D01*
X164596432Y-59587377D01*
X164747226Y-59633119D01*
X164886205Y-59707405D01*
X165008022Y-59807378D01*
X165107995Y-59929195D01*
X165182281Y-60068174D01*
X165228023Y-60218968D01*
X165228023Y-60218971D01*
X165228024Y-60218973D01*
X165243470Y-60375800D01*
X165228024Y-60532627D01*
X165228023Y-60532629D01*
X165228023Y-60532632D01*
X165182281Y-60683426D01*
X165107995Y-60822405D01*
X165008022Y-60944222D01*
X164886205Y-61044195D01*
X164747226Y-61118481D01*
X164596432Y-61164223D01*
X164596429Y-61164223D01*
X164596427Y-61164224D01*
X164497996Y-61173919D01*
X164478894Y-61175800D01*
X164400306Y-61175800D01*
X164381204Y-61173919D01*
X164282773Y-61164224D01*
X164282771Y-61164223D01*
X164282768Y-61164223D01*
X164131974Y-61118481D01*
X163992995Y-61044195D01*
X163871178Y-60944222D01*
X163771205Y-60822405D01*
X163696919Y-60683426D01*
X163651177Y-60532632D01*
X163651177Y-60532629D01*
X163651176Y-60532627D01*
X163635730Y-60375800D01*
X163651176Y-60218973D01*
X163651177Y-60218971D01*
X163651177Y-60218968D01*
X163696919Y-60068174D01*
X163771205Y-59929195D01*
X163871178Y-59807378D01*
X163992995Y-59707405D01*
X164131974Y-59633119D01*
X164282768Y-59587377D01*
X164282771Y-59587377D01*
X164282773Y-59587376D01*
X164381204Y-59577681D01*
X164400306Y-59575800D01*
X164478894Y-59575800D01*
X164497996Y-59577681D01*
X164497996Y-59577681D01*
G37*
G36*
X152585396Y-59526881D02*
G01*
X152683827Y-59536576D01*
X152683829Y-59536577D01*
X152683832Y-59536577D01*
X152834626Y-59582319D01*
X152973605Y-59656605D01*
X153095422Y-59756578D01*
X153195395Y-59878395D01*
X153269681Y-60017374D01*
X153315423Y-60168168D01*
X153315423Y-60168171D01*
X153315424Y-60168173D01*
X153330870Y-60325000D01*
X153315424Y-60481827D01*
X153315423Y-60481829D01*
X153315423Y-60481832D01*
X153269681Y-60632626D01*
X153195395Y-60771605D01*
X153095422Y-60893422D01*
X152973605Y-60993395D01*
X152834626Y-61067681D01*
X152683832Y-61113423D01*
X152683829Y-61113423D01*
X152683827Y-61113424D01*
X152585396Y-61123119D01*
X152566294Y-61125000D01*
X152487706Y-61125000D01*
X152468604Y-61123119D01*
X152370173Y-61113424D01*
X152370171Y-61113423D01*
X152370168Y-61113423D01*
X152219374Y-61067681D01*
X152080395Y-60993395D01*
X151958578Y-60893422D01*
X151858605Y-60771605D01*
X151784319Y-60632626D01*
X151738577Y-60481832D01*
X151738577Y-60481829D01*
X151738576Y-60481827D01*
X151723130Y-60325000D01*
X151738576Y-60168173D01*
X151738577Y-60168171D01*
X151738577Y-60168168D01*
X151784319Y-60017374D01*
X151858605Y-59878395D01*
X151958578Y-59756578D01*
X152080395Y-59656605D01*
X152219374Y-59582319D01*
X152370168Y-59536577D01*
X152370171Y-59536577D01*
X152370173Y-59536576D01*
X152468604Y-59526881D01*
X152487706Y-59525000D01*
X152566294Y-59525000D01*
X152585396Y-59526881D01*
X152585396Y-59526881D01*
G37*
G36*
X139885396Y-59526881D02*
G01*
X139983827Y-59536576D01*
X139983829Y-59536577D01*
X139983832Y-59536577D01*
X140134626Y-59582319D01*
X140273605Y-59656605D01*
X140395422Y-59756578D01*
X140495395Y-59878395D01*
X140569681Y-60017374D01*
X140615423Y-60168168D01*
X140615423Y-60168171D01*
X140615424Y-60168173D01*
X140630870Y-60325000D01*
X140615424Y-60481827D01*
X140615423Y-60481829D01*
X140615423Y-60481832D01*
X140569681Y-60632626D01*
X140495395Y-60771605D01*
X140395422Y-60893422D01*
X140273605Y-60993395D01*
X140134626Y-61067681D01*
X139983832Y-61113423D01*
X139983829Y-61113423D01*
X139983827Y-61113424D01*
X139885396Y-61123119D01*
X139866294Y-61125000D01*
X139787706Y-61125000D01*
X139768604Y-61123119D01*
X139670173Y-61113424D01*
X139670171Y-61113423D01*
X139670168Y-61113423D01*
X139519374Y-61067681D01*
X139380395Y-60993395D01*
X139258578Y-60893422D01*
X139158605Y-60771605D01*
X139084319Y-60632626D01*
X139038577Y-60481832D01*
X139038577Y-60481829D01*
X139038576Y-60481827D01*
X139023130Y-60325000D01*
X139038576Y-60168173D01*
X139038577Y-60168171D01*
X139038577Y-60168168D01*
X139084319Y-60017374D01*
X139158605Y-59878395D01*
X139258578Y-59756578D01*
X139380395Y-59656605D01*
X139519374Y-59582319D01*
X139670168Y-59536577D01*
X139670171Y-59536577D01*
X139670173Y-59536576D01*
X139768604Y-59526881D01*
X139787706Y-59525000D01*
X139866294Y-59525000D01*
X139885396Y-59526881D01*
X139885396Y-59526881D01*
G37*
G36*
X93814000Y-58736600D02*
G01*
X92114000Y-58736600D01*
X92114000Y-57036600D01*
X93814000Y-57036600D01*
X93814000Y-58736600D01*
X93814000Y-58736600D01*
G37*
G36*
X91274000Y-58736600D02*
G01*
X89574000Y-58736600D01*
X89574000Y-57036600D01*
X91274000Y-57036600D01*
X91274000Y-58736600D01*
X91274000Y-58736600D01*
G37*
G36*
X164487016Y-57036600D02*
G01*
X164596427Y-57047376D01*
X164596429Y-57047377D01*
X164596432Y-57047377D01*
X164747226Y-57093119D01*
X164886205Y-57167405D01*
X165008022Y-57267378D01*
X165107995Y-57389195D01*
X165182281Y-57528174D01*
X165228023Y-57678968D01*
X165228023Y-57678971D01*
X165228024Y-57678973D01*
X165243470Y-57835800D01*
X165228024Y-57992627D01*
X165228023Y-57992629D01*
X165228023Y-57992632D01*
X165182281Y-58143426D01*
X165107995Y-58282405D01*
X165008022Y-58404222D01*
X164886205Y-58504195D01*
X164747226Y-58578481D01*
X164596432Y-58624223D01*
X164596429Y-58624223D01*
X164596427Y-58624224D01*
X164497996Y-58633919D01*
X164478894Y-58635800D01*
X164400306Y-58635800D01*
X164381204Y-58633919D01*
X164282773Y-58624224D01*
X164282771Y-58624223D01*
X164282768Y-58624223D01*
X164131974Y-58578481D01*
X163992995Y-58504195D01*
X163871178Y-58404222D01*
X163771205Y-58282405D01*
X163696919Y-58143426D01*
X163651177Y-57992632D01*
X163651177Y-57992629D01*
X163651176Y-57992627D01*
X163635730Y-57835800D01*
X163651176Y-57678973D01*
X163651177Y-57678971D01*
X163651177Y-57678968D01*
X163696919Y-57528174D01*
X163771205Y-57389195D01*
X163871178Y-57267378D01*
X163992995Y-57167405D01*
X164131974Y-57093119D01*
X164282768Y-57047377D01*
X164282771Y-57047377D01*
X164282773Y-57047376D01*
X164392184Y-57036600D01*
X164400306Y-57035800D01*
X164478894Y-57035800D01*
X164487016Y-57036600D01*
X164487016Y-57036600D01*
G37*
G36*
X177187016Y-57036600D02*
G01*
X177296427Y-57047376D01*
X177296429Y-57047377D01*
X177296432Y-57047377D01*
X177447226Y-57093119D01*
X177586205Y-57167405D01*
X177708022Y-57267378D01*
X177807995Y-57389195D01*
X177882281Y-57528174D01*
X177928023Y-57678968D01*
X177928023Y-57678971D01*
X177928024Y-57678973D01*
X177943470Y-57835800D01*
X177928024Y-57992627D01*
X177928023Y-57992629D01*
X177928023Y-57992632D01*
X177882281Y-58143426D01*
X177807995Y-58282405D01*
X177708022Y-58404222D01*
X177586205Y-58504195D01*
X177447226Y-58578481D01*
X177296432Y-58624223D01*
X177296429Y-58624223D01*
X177296427Y-58624224D01*
X177197996Y-58633919D01*
X177178894Y-58635800D01*
X177100306Y-58635800D01*
X177081204Y-58633919D01*
X176982773Y-58624224D01*
X176982771Y-58624223D01*
X176982768Y-58624223D01*
X176831974Y-58578481D01*
X176692995Y-58504195D01*
X176571178Y-58404222D01*
X176471205Y-58282405D01*
X176396919Y-58143426D01*
X176351177Y-57992632D01*
X176351177Y-57992629D01*
X176351176Y-57992627D01*
X176335730Y-57835800D01*
X176351176Y-57678973D01*
X176351177Y-57678971D01*
X176351177Y-57678968D01*
X176396919Y-57528174D01*
X176471205Y-57389195D01*
X176571178Y-57267378D01*
X176692995Y-57167405D01*
X176831974Y-57093119D01*
X176982768Y-57047377D01*
X176982771Y-57047377D01*
X176982773Y-57047376D01*
X177092184Y-57036600D01*
X177100306Y-57035800D01*
X177178894Y-57035800D01*
X177187016Y-57036600D01*
X177187016Y-57036600D01*
G37*
G36*
X152585396Y-56986881D02*
G01*
X152683827Y-56996576D01*
X152683829Y-56996577D01*
X152683832Y-56996577D01*
X152834626Y-57042319D01*
X152973605Y-57116605D01*
X153095422Y-57216578D01*
X153195395Y-57338395D01*
X153269681Y-57477374D01*
X153315423Y-57628168D01*
X153315423Y-57628171D01*
X153315424Y-57628173D01*
X153330870Y-57785000D01*
X153315424Y-57941827D01*
X153315423Y-57941829D01*
X153315423Y-57941832D01*
X153269681Y-58092626D01*
X153195395Y-58231605D01*
X153095422Y-58353422D01*
X152973605Y-58453395D01*
X152834626Y-58527681D01*
X152683832Y-58573423D01*
X152683829Y-58573423D01*
X152683827Y-58573424D01*
X152585396Y-58583119D01*
X152566294Y-58585000D01*
X152487706Y-58585000D01*
X152468604Y-58583119D01*
X152370173Y-58573424D01*
X152370171Y-58573423D01*
X152370168Y-58573423D01*
X152219374Y-58527681D01*
X152080395Y-58453395D01*
X151958578Y-58353422D01*
X151858605Y-58231605D01*
X151784319Y-58092626D01*
X151738577Y-57941832D01*
X151738577Y-57941829D01*
X151738576Y-57941827D01*
X151723130Y-57785000D01*
X151738576Y-57628173D01*
X151738577Y-57628171D01*
X151738577Y-57628168D01*
X151784319Y-57477374D01*
X151858605Y-57338395D01*
X151958578Y-57216578D01*
X152080395Y-57116605D01*
X152219374Y-57042319D01*
X152370168Y-56996577D01*
X152370171Y-56996577D01*
X152370173Y-56996576D01*
X152468604Y-56986881D01*
X152487706Y-56985000D01*
X152566294Y-56985000D01*
X152585396Y-56986881D01*
X152585396Y-56986881D01*
G37*
G36*
X139885396Y-56986881D02*
G01*
X139983827Y-56996576D01*
X139983829Y-56996577D01*
X139983832Y-56996577D01*
X140134626Y-57042319D01*
X140273605Y-57116605D01*
X140395422Y-57216578D01*
X140495395Y-57338395D01*
X140569681Y-57477374D01*
X140615423Y-57628168D01*
X140615423Y-57628171D01*
X140615424Y-57628173D01*
X140630870Y-57785000D01*
X140615424Y-57941827D01*
X140615423Y-57941829D01*
X140615423Y-57941832D01*
X140569681Y-58092626D01*
X140495395Y-58231605D01*
X140395422Y-58353422D01*
X140273605Y-58453395D01*
X140134626Y-58527681D01*
X139983832Y-58573423D01*
X139983829Y-58573423D01*
X139983827Y-58573424D01*
X139885396Y-58583119D01*
X139866294Y-58585000D01*
X139787706Y-58585000D01*
X139768604Y-58583119D01*
X139670173Y-58573424D01*
X139670171Y-58573423D01*
X139670168Y-58573423D01*
X139519374Y-58527681D01*
X139380395Y-58453395D01*
X139258578Y-58353422D01*
X139158605Y-58231605D01*
X139084319Y-58092626D01*
X139038577Y-57941832D01*
X139038577Y-57941829D01*
X139038576Y-57941827D01*
X139023130Y-57785000D01*
X139038576Y-57628173D01*
X139038577Y-57628171D01*
X139038577Y-57628168D01*
X139084319Y-57477374D01*
X139158605Y-57338395D01*
X139258578Y-57216578D01*
X139380395Y-57116605D01*
X139519374Y-57042319D01*
X139670168Y-56996577D01*
X139670171Y-56996577D01*
X139670173Y-56996576D01*
X139768604Y-56986881D01*
X139787706Y-56985000D01*
X139866294Y-56985000D01*
X139885396Y-56986881D01*
X139885396Y-56986881D01*
G37*
G36*
X168543034Y-52524501D02*
G01*
X168671211Y-52563383D01*
X168703256Y-52573104D01*
X168742719Y-52594198D01*
X168850919Y-52652031D01*
X168980349Y-52758253D01*
X169086571Y-52887683D01*
X169138345Y-52984546D01*
X169165498Y-53035346D01*
X169165498Y-53035347D01*
X169214101Y-53195568D01*
X169230513Y-53362201D01*
X169214101Y-53528834D01*
X169184426Y-53626657D01*
X169165498Y-53689056D01*
X169144404Y-53728520D01*
X169086571Y-53836719D01*
X168980349Y-53966149D01*
X168850919Y-54072371D01*
X168742719Y-54130204D01*
X168703256Y-54151298D01*
X168671211Y-54161019D01*
X168543034Y-54199901D01*
X168418154Y-54212201D01*
X168334648Y-54212201D01*
X168209768Y-54199901D01*
X168081591Y-54161019D01*
X168049546Y-54151298D01*
X168010083Y-54130204D01*
X167901883Y-54072371D01*
X167772453Y-53966149D01*
X167666231Y-53836719D01*
X167608398Y-53728520D01*
X167587304Y-53689056D01*
X167568376Y-53626657D01*
X167538701Y-53528834D01*
X167522289Y-53362201D01*
X167538701Y-53195568D01*
X167587304Y-53035347D01*
X167587304Y-53035346D01*
X167614457Y-52984546D01*
X167666231Y-52887683D01*
X167772453Y-52758253D01*
X167901883Y-52652031D01*
X168010082Y-52594198D01*
X168049546Y-52573104D01*
X168081591Y-52563383D01*
X168209768Y-52524501D01*
X168334648Y-52512201D01*
X168418154Y-52512201D01*
X168543034Y-52524501D01*
X168543034Y-52524501D01*
G37*
G36*
X173193034Y-52524501D02*
G01*
X173321211Y-52563383D01*
X173353256Y-52573104D01*
X173392719Y-52594198D01*
X173500919Y-52652031D01*
X173630349Y-52758253D01*
X173736571Y-52887683D01*
X173788345Y-52984546D01*
X173815498Y-53035346D01*
X173815498Y-53035347D01*
X173864101Y-53195568D01*
X173880513Y-53362201D01*
X173864101Y-53528834D01*
X173834426Y-53626657D01*
X173815498Y-53689056D01*
X173794404Y-53728520D01*
X173736571Y-53836719D01*
X173630349Y-53966149D01*
X173500919Y-54072371D01*
X173392719Y-54130204D01*
X173353256Y-54151298D01*
X173321211Y-54161019D01*
X173193034Y-54199901D01*
X173068154Y-54212201D01*
X172984648Y-54212201D01*
X172859768Y-54199901D01*
X172731591Y-54161019D01*
X172699546Y-54151298D01*
X172660083Y-54130204D01*
X172551883Y-54072371D01*
X172422453Y-53966149D01*
X172316231Y-53836719D01*
X172258398Y-53728520D01*
X172237304Y-53689056D01*
X172218376Y-53626657D01*
X172188701Y-53528834D01*
X172172289Y-53362201D01*
X172188701Y-53195568D01*
X172237304Y-53035347D01*
X172237304Y-53035346D01*
X172264457Y-52984546D01*
X172316231Y-52887683D01*
X172422453Y-52758253D01*
X172551883Y-52652031D01*
X172660082Y-52594198D01*
X172699546Y-52573104D01*
X172731591Y-52563383D01*
X172859768Y-52524501D01*
X172984648Y-52512201D01*
X173068154Y-52512201D01*
X173193034Y-52524501D01*
X173193034Y-52524501D01*
G37*
G36*
X148932434Y-52473701D02*
G01*
X149059350Y-52512201D01*
X149092656Y-52522304D01*
X149132119Y-52543398D01*
X149240319Y-52601231D01*
X149369749Y-52707453D01*
X149475971Y-52836883D01*
X149533804Y-52945082D01*
X149554898Y-52984546D01*
X149554898Y-52984547D01*
X149603501Y-53144768D01*
X149619913Y-53311401D01*
X149603501Y-53478034D01*
X149573826Y-53575857D01*
X149554898Y-53638256D01*
X149544665Y-53657400D01*
X149475971Y-53785919D01*
X149369749Y-53915349D01*
X149240319Y-54021571D01*
X149132120Y-54079404D01*
X149092656Y-54100498D01*
X149060611Y-54110219D01*
X148932434Y-54149101D01*
X148807554Y-54161401D01*
X148724048Y-54161401D01*
X148599168Y-54149101D01*
X148470991Y-54110219D01*
X148438946Y-54100498D01*
X148399482Y-54079404D01*
X148291283Y-54021571D01*
X148161853Y-53915349D01*
X148055631Y-53785919D01*
X147986937Y-53657400D01*
X147976704Y-53638256D01*
X147957776Y-53575857D01*
X147928101Y-53478034D01*
X147911689Y-53311401D01*
X147928101Y-53144768D01*
X147976704Y-52984547D01*
X147976704Y-52984546D01*
X147997798Y-52945083D01*
X148055631Y-52836883D01*
X148161853Y-52707453D01*
X148291283Y-52601231D01*
X148399483Y-52543398D01*
X148438946Y-52522304D01*
X148472252Y-52512201D01*
X148599168Y-52473701D01*
X148724048Y-52461401D01*
X148807554Y-52461401D01*
X148932434Y-52473701D01*
X148932434Y-52473701D01*
G37*
G36*
X144282434Y-52473701D02*
G01*
X144409350Y-52512201D01*
X144442656Y-52522304D01*
X144482119Y-52543398D01*
X144590319Y-52601231D01*
X144719749Y-52707453D01*
X144825971Y-52836883D01*
X144883804Y-52945082D01*
X144904898Y-52984546D01*
X144904898Y-52984547D01*
X144953501Y-53144768D01*
X144969913Y-53311401D01*
X144953501Y-53478034D01*
X144923826Y-53575857D01*
X144904898Y-53638256D01*
X144894665Y-53657400D01*
X144825971Y-53785919D01*
X144719749Y-53915349D01*
X144590319Y-54021571D01*
X144482120Y-54079404D01*
X144442656Y-54100498D01*
X144410611Y-54110219D01*
X144282434Y-54149101D01*
X144157554Y-54161401D01*
X144074048Y-54161401D01*
X143949168Y-54149101D01*
X143820991Y-54110219D01*
X143788946Y-54100498D01*
X143749482Y-54079404D01*
X143641283Y-54021571D01*
X143511853Y-53915349D01*
X143405631Y-53785919D01*
X143336937Y-53657400D01*
X143326704Y-53638256D01*
X143307776Y-53575857D01*
X143278101Y-53478034D01*
X143261689Y-53311401D01*
X143278101Y-53144768D01*
X143326704Y-52984547D01*
X143326704Y-52984546D01*
X143347798Y-52945083D01*
X143405631Y-52836883D01*
X143511853Y-52707453D01*
X143641283Y-52601231D01*
X143749483Y-52543398D01*
X143788946Y-52522304D01*
X143822252Y-52512201D01*
X143949168Y-52473701D01*
X144074048Y-52461401D01*
X144157554Y-52461401D01*
X144282434Y-52473701D01*
X144282434Y-52473701D01*
G37*
G36*
X165620600Y-53657400D02*
G01*
X164020600Y-53657400D01*
X164020600Y-52057400D01*
X165620600Y-52057400D01*
X165620600Y-53657400D01*
X165620600Y-53657400D01*
G37*
G36*
X160053951Y-52088143D02*
G01*
X160156900Y-52130786D01*
X160199543Y-52148449D01*
X160330571Y-52236000D01*
X160442000Y-52347429D01*
X160529551Y-52478457D01*
X160529551Y-52478458D01*
X160589857Y-52624049D01*
X160620600Y-52778607D01*
X160620600Y-52936193D01*
X160589857Y-53090751D01*
X160550593Y-53185542D01*
X160529551Y-53236343D01*
X160442000Y-53367371D01*
X160330571Y-53478800D01*
X160199543Y-53566351D01*
X160176595Y-53575856D01*
X160053951Y-53626657D01*
X159899393Y-53657400D01*
X159741807Y-53657400D01*
X159587249Y-53626657D01*
X159464605Y-53575856D01*
X159441657Y-53566351D01*
X159310629Y-53478800D01*
X159199200Y-53367371D01*
X159111649Y-53236343D01*
X159090607Y-53185542D01*
X159051343Y-53090751D01*
X159020600Y-52936193D01*
X159020600Y-52778607D01*
X159051343Y-52624049D01*
X159111649Y-52478458D01*
X159111649Y-52478457D01*
X159199200Y-52347429D01*
X159310629Y-52236000D01*
X159441657Y-52148449D01*
X159484300Y-52130786D01*
X159587249Y-52088143D01*
X159741807Y-52057400D01*
X159899393Y-52057400D01*
X160053951Y-52088143D01*
X160053951Y-52088143D01*
G37*
G36*
X152819000Y-53606600D02*
G01*
X151219000Y-53606600D01*
X151219000Y-52006600D01*
X152819000Y-52006600D01*
X152819000Y-53606600D01*
X152819000Y-53606600D01*
G37*
G36*
X157252351Y-52037343D02*
G01*
X157355300Y-52079986D01*
X157397943Y-52097649D01*
X157528971Y-52185200D01*
X157640400Y-52296629D01*
X157727951Y-52427657D01*
X157727951Y-52427658D01*
X157788257Y-52573249D01*
X157819000Y-52727807D01*
X157819000Y-52885393D01*
X157788257Y-53039951D01*
X157745614Y-53142900D01*
X157727951Y-53185543D01*
X157640400Y-53316571D01*
X157528971Y-53428000D01*
X157397943Y-53515551D01*
X157365884Y-53528830D01*
X157252351Y-53575857D01*
X157097793Y-53606600D01*
X156940207Y-53606600D01*
X156785649Y-53575857D01*
X156672116Y-53528830D01*
X156640057Y-53515551D01*
X156509029Y-53428000D01*
X156397600Y-53316571D01*
X156310049Y-53185543D01*
X156292386Y-53142900D01*
X156249743Y-53039951D01*
X156219000Y-52885393D01*
X156219000Y-52727807D01*
X156249743Y-52573249D01*
X156310049Y-52427658D01*
X156310049Y-52427657D01*
X156397600Y-52296629D01*
X156509029Y-52185200D01*
X156640057Y-52097649D01*
X156682700Y-52079986D01*
X156785649Y-52037343D01*
X156940207Y-52006600D01*
X157097793Y-52006600D01*
X157252351Y-52037343D01*
X157252351Y-52037343D01*
G37*
G36*
X92664173Y-45933029D02*
G01*
X92955902Y-45991057D01*
X93505507Y-46218711D01*
X94000139Y-46549213D01*
X94420787Y-46969861D01*
X94751289Y-47464493D01*
X94978943Y-48014098D01*
X95095000Y-48597557D01*
X95095000Y-49192443D01*
X94978943Y-49775902D01*
X94751289Y-50325507D01*
X94420787Y-50820139D01*
X94000139Y-51240787D01*
X93505507Y-51571289D01*
X92955902Y-51798943D01*
X92664172Y-51856972D01*
X92372444Y-51915000D01*
X91777556Y-51915000D01*
X91485828Y-51856972D01*
X91194098Y-51798943D01*
X90644493Y-51571289D01*
X90149861Y-51240787D01*
X89729213Y-50820139D01*
X89398711Y-50325507D01*
X89171057Y-49775902D01*
X89055000Y-49192443D01*
X89055000Y-48597557D01*
X89171057Y-48014098D01*
X89398711Y-47464493D01*
X89729213Y-46969861D01*
X90149861Y-46549213D01*
X90644493Y-46218711D01*
X91194098Y-45991057D01*
X91485828Y-45933028D01*
X91777556Y-45875000D01*
X92372444Y-45875000D01*
X92664173Y-45933029D01*
X92664173Y-45933029D01*
G37*
G36*
X184485173Y-45933029D02*
G01*
X184776902Y-45991057D01*
X185326507Y-46218711D01*
X185821139Y-46549213D01*
X186241787Y-46969861D01*
X186572289Y-47464493D01*
X186799943Y-48014098D01*
X186916000Y-48597557D01*
X186916000Y-49192443D01*
X186799943Y-49775902D01*
X186572289Y-50325507D01*
X186241787Y-50820139D01*
X185821139Y-51240787D01*
X185326507Y-51571289D01*
X184776902Y-51798943D01*
X184485172Y-51856972D01*
X184193444Y-51915000D01*
X183598556Y-51915000D01*
X183306828Y-51856972D01*
X183015098Y-51798943D01*
X182465493Y-51571289D01*
X181970861Y-51240787D01*
X181550213Y-50820139D01*
X181219711Y-50325507D01*
X180992057Y-49775902D01*
X180876000Y-49192443D01*
X180876000Y-48597557D01*
X180992057Y-48014098D01*
X181219711Y-47464493D01*
X181550213Y-46969861D01*
X181970861Y-46549213D01*
X182465493Y-46218711D01*
X183015098Y-45991057D01*
X183306828Y-45933028D01*
X183598556Y-45875000D01*
X184193444Y-45875000D01*
X184485173Y-45933029D01*
X184485173Y-45933029D01*
G37*
G36*
X173193034Y-49984501D02*
G01*
X173321211Y-50023383D01*
X173353256Y-50033104D01*
X173392720Y-50054198D01*
X173500919Y-50112031D01*
X173630349Y-50218253D01*
X173736571Y-50347683D01*
X173788345Y-50444546D01*
X173815498Y-50495346D01*
X173815498Y-50495347D01*
X173864101Y-50655568D01*
X173880513Y-50822201D01*
X173864101Y-50988834D01*
X173830908Y-51098255D01*
X173815498Y-51149056D01*
X173794404Y-51188520D01*
X173736571Y-51296719D01*
X173630349Y-51426149D01*
X173500919Y-51532371D01*
X173394791Y-51589097D01*
X173353256Y-51611298D01*
X173321211Y-51621019D01*
X173193034Y-51659901D01*
X173068154Y-51672201D01*
X172984648Y-51672201D01*
X172859768Y-51659901D01*
X172731591Y-51621019D01*
X172699546Y-51611298D01*
X172658011Y-51589097D01*
X172551883Y-51532371D01*
X172422453Y-51426149D01*
X172316231Y-51296719D01*
X172258398Y-51188520D01*
X172237304Y-51149056D01*
X172221894Y-51098255D01*
X172188701Y-50988834D01*
X172172289Y-50822201D01*
X172188701Y-50655568D01*
X172237304Y-50495347D01*
X172237304Y-50495346D01*
X172264457Y-50444546D01*
X172316231Y-50347683D01*
X172422453Y-50218253D01*
X172551883Y-50112031D01*
X172660083Y-50054198D01*
X172699546Y-50033104D01*
X172731591Y-50023383D01*
X172859768Y-49984501D01*
X172984648Y-49972201D01*
X173068154Y-49972201D01*
X173193034Y-49984501D01*
X173193034Y-49984501D01*
G37*
G36*
X168543034Y-49984501D02*
G01*
X168671211Y-50023383D01*
X168703256Y-50033104D01*
X168742720Y-50054198D01*
X168850919Y-50112031D01*
X168980349Y-50218253D01*
X169086571Y-50347683D01*
X169138345Y-50444546D01*
X169165498Y-50495346D01*
X169165498Y-50495347D01*
X169214101Y-50655568D01*
X169230513Y-50822201D01*
X169214101Y-50988834D01*
X169180908Y-51098255D01*
X169165498Y-51149056D01*
X169144404Y-51188520D01*
X169086571Y-51296719D01*
X168980349Y-51426149D01*
X168850919Y-51532371D01*
X168744791Y-51589097D01*
X168703256Y-51611298D01*
X168671211Y-51621019D01*
X168543034Y-51659901D01*
X168418154Y-51672201D01*
X168334648Y-51672201D01*
X168209768Y-51659901D01*
X168081591Y-51621019D01*
X168049546Y-51611298D01*
X168008011Y-51589097D01*
X167901883Y-51532371D01*
X167772453Y-51426149D01*
X167666231Y-51296719D01*
X167608398Y-51188520D01*
X167587304Y-51149056D01*
X167571894Y-51098255D01*
X167538701Y-50988834D01*
X167522289Y-50822201D01*
X167538701Y-50655568D01*
X167587304Y-50495347D01*
X167587304Y-50495346D01*
X167614457Y-50444546D01*
X167666231Y-50347683D01*
X167772453Y-50218253D01*
X167901883Y-50112031D01*
X168010083Y-50054198D01*
X168049546Y-50033104D01*
X168081591Y-50023383D01*
X168209768Y-49984501D01*
X168334648Y-49972201D01*
X168418154Y-49972201D01*
X168543034Y-49984501D01*
X168543034Y-49984501D01*
G37*
G36*
X119546633Y-49962300D02*
G01*
X119674810Y-50001182D01*
X119706855Y-50010903D01*
X119746318Y-50031997D01*
X119854518Y-50089830D01*
X119983948Y-50196052D01*
X120090170Y-50325482D01*
X120148003Y-50433682D01*
X120169097Y-50473145D01*
X120169097Y-50473146D01*
X120217700Y-50633367D01*
X120234112Y-50800000D01*
X120217700Y-50966633D01*
X120178818Y-51094810D01*
X120169097Y-51126855D01*
X120157230Y-51149056D01*
X120090170Y-51274518D01*
X119983948Y-51403948D01*
X119854518Y-51510170D01*
X119746318Y-51568003D01*
X119706855Y-51589097D01*
X119674810Y-51598818D01*
X119546633Y-51637700D01*
X119421753Y-51650000D01*
X119338247Y-51650000D01*
X119213367Y-51637700D01*
X119085190Y-51598818D01*
X119053145Y-51589097D01*
X119013682Y-51568003D01*
X118905482Y-51510170D01*
X118776052Y-51403948D01*
X118669830Y-51274518D01*
X118602770Y-51149056D01*
X118590903Y-51126855D01*
X118581182Y-51094810D01*
X118542300Y-50966633D01*
X118525888Y-50800000D01*
X118542300Y-50633367D01*
X118590903Y-50473146D01*
X118590903Y-50473145D01*
X118611997Y-50433681D01*
X118669830Y-50325482D01*
X118776052Y-50196052D01*
X118905482Y-50089830D01*
X119013682Y-50031997D01*
X119053145Y-50010903D01*
X119085190Y-50001182D01*
X119213367Y-49962300D01*
X119338247Y-49950000D01*
X119421753Y-49950000D01*
X119546633Y-49962300D01*
X119546633Y-49962300D01*
G37*
G36*
X122086633Y-49962300D02*
G01*
X122214810Y-50001182D01*
X122246855Y-50010903D01*
X122286318Y-50031997D01*
X122394518Y-50089830D01*
X122523948Y-50196052D01*
X122630170Y-50325482D01*
X122688003Y-50433682D01*
X122709097Y-50473145D01*
X122709097Y-50473146D01*
X122757700Y-50633367D01*
X122774112Y-50800000D01*
X122757700Y-50966633D01*
X122718818Y-51094810D01*
X122709097Y-51126855D01*
X122697230Y-51149056D01*
X122630170Y-51274518D01*
X122523948Y-51403948D01*
X122394518Y-51510170D01*
X122286318Y-51568003D01*
X122246855Y-51589097D01*
X122214810Y-51598818D01*
X122086633Y-51637700D01*
X121961753Y-51650000D01*
X121878247Y-51650000D01*
X121753367Y-51637700D01*
X121625190Y-51598818D01*
X121593145Y-51589097D01*
X121553682Y-51568003D01*
X121445482Y-51510170D01*
X121316052Y-51403948D01*
X121209830Y-51274518D01*
X121142770Y-51149056D01*
X121130903Y-51126855D01*
X121121182Y-51094810D01*
X121082300Y-50966633D01*
X121065888Y-50800000D01*
X121082300Y-50633367D01*
X121130903Y-50473146D01*
X121130903Y-50473145D01*
X121151997Y-50433681D01*
X121209830Y-50325482D01*
X121316052Y-50196052D01*
X121445482Y-50089830D01*
X121553682Y-50031997D01*
X121593145Y-50010903D01*
X121625190Y-50001182D01*
X121753367Y-49962300D01*
X121878247Y-49950000D01*
X121961753Y-49950000D01*
X122086633Y-49962300D01*
X122086633Y-49962300D01*
G37*
G36*
X124626633Y-49962300D02*
G01*
X124754810Y-50001182D01*
X124786855Y-50010903D01*
X124826318Y-50031997D01*
X124934518Y-50089830D01*
X125063948Y-50196052D01*
X125170170Y-50325482D01*
X125228003Y-50433682D01*
X125249097Y-50473145D01*
X125249097Y-50473146D01*
X125297700Y-50633367D01*
X125314112Y-50800000D01*
X125297700Y-50966633D01*
X125258818Y-51094810D01*
X125249097Y-51126855D01*
X125237230Y-51149056D01*
X125170170Y-51274518D01*
X125063948Y-51403948D01*
X124934518Y-51510170D01*
X124826318Y-51568003D01*
X124786855Y-51589097D01*
X124754810Y-51598818D01*
X124626633Y-51637700D01*
X124501753Y-51650000D01*
X124418247Y-51650000D01*
X124293367Y-51637700D01*
X124165190Y-51598818D01*
X124133145Y-51589097D01*
X124093682Y-51568003D01*
X123985482Y-51510170D01*
X123856052Y-51403948D01*
X123749830Y-51274518D01*
X123682770Y-51149056D01*
X123670903Y-51126855D01*
X123661182Y-51094810D01*
X123622300Y-50966633D01*
X123605888Y-50800000D01*
X123622300Y-50633367D01*
X123670903Y-50473146D01*
X123670903Y-50473145D01*
X123691997Y-50433681D01*
X123749830Y-50325482D01*
X123856052Y-50196052D01*
X123985482Y-50089830D01*
X124093682Y-50031997D01*
X124133145Y-50010903D01*
X124165190Y-50001182D01*
X124293367Y-49962300D01*
X124418247Y-49950000D01*
X124501753Y-49950000D01*
X124626633Y-49962300D01*
X124626633Y-49962300D01*
G37*
G36*
X127166633Y-49962300D02*
G01*
X127294810Y-50001182D01*
X127326855Y-50010903D01*
X127366318Y-50031997D01*
X127474518Y-50089830D01*
X127603948Y-50196052D01*
X127710170Y-50325482D01*
X127768003Y-50433682D01*
X127789097Y-50473145D01*
X127789097Y-50473146D01*
X127837700Y-50633367D01*
X127854112Y-50800000D01*
X127837700Y-50966633D01*
X127798818Y-51094810D01*
X127789097Y-51126855D01*
X127777230Y-51149056D01*
X127710170Y-51274518D01*
X127603948Y-51403948D01*
X127474518Y-51510170D01*
X127366318Y-51568003D01*
X127326855Y-51589097D01*
X127294810Y-51598818D01*
X127166633Y-51637700D01*
X127041753Y-51650000D01*
X126958247Y-51650000D01*
X126833367Y-51637700D01*
X126705190Y-51598818D01*
X126673145Y-51589097D01*
X126633682Y-51568003D01*
X126525482Y-51510170D01*
X126396052Y-51403948D01*
X126289830Y-51274518D01*
X126222770Y-51149056D01*
X126210903Y-51126855D01*
X126201182Y-51094810D01*
X126162300Y-50966633D01*
X126145888Y-50800000D01*
X126162300Y-50633367D01*
X126210903Y-50473146D01*
X126210903Y-50473145D01*
X126231997Y-50433681D01*
X126289830Y-50325482D01*
X126396052Y-50196052D01*
X126525482Y-50089830D01*
X126633682Y-50031997D01*
X126673145Y-50010903D01*
X126705190Y-50001182D01*
X126833367Y-49962300D01*
X126958247Y-49950000D01*
X127041753Y-49950000D01*
X127166633Y-49962300D01*
X127166633Y-49962300D01*
G37*
G36*
X129706633Y-49962300D02*
G01*
X129834810Y-50001182D01*
X129866855Y-50010903D01*
X129906318Y-50031997D01*
X130014518Y-50089830D01*
X130143948Y-50196052D01*
X130250170Y-50325482D01*
X130308003Y-50433682D01*
X130329097Y-50473145D01*
X130329097Y-50473146D01*
X130377700Y-50633367D01*
X130394112Y-50800000D01*
X130377700Y-50966633D01*
X130338818Y-51094810D01*
X130329097Y-51126855D01*
X130317230Y-51149056D01*
X130250170Y-51274518D01*
X130143948Y-51403948D01*
X130014518Y-51510170D01*
X129906318Y-51568003D01*
X129866855Y-51589097D01*
X129834810Y-51598818D01*
X129706633Y-51637700D01*
X129581753Y-51650000D01*
X129498247Y-51650000D01*
X129373367Y-51637700D01*
X129245190Y-51598818D01*
X129213145Y-51589097D01*
X129173682Y-51568003D01*
X129065482Y-51510170D01*
X128936052Y-51403948D01*
X128829830Y-51274518D01*
X128762770Y-51149056D01*
X128750903Y-51126855D01*
X128741182Y-51094810D01*
X128702300Y-50966633D01*
X128685888Y-50800000D01*
X128702300Y-50633367D01*
X128750903Y-50473146D01*
X128750903Y-50473145D01*
X128771997Y-50433681D01*
X128829830Y-50325482D01*
X128936052Y-50196052D01*
X129065482Y-50089830D01*
X129173682Y-50031997D01*
X129213145Y-50010903D01*
X129245190Y-50001182D01*
X129373367Y-49962300D01*
X129498247Y-49950000D01*
X129581753Y-49950000D01*
X129706633Y-49962300D01*
X129706633Y-49962300D01*
G37*
G36*
X117006633Y-49962300D02*
G01*
X117134810Y-50001182D01*
X117166855Y-50010903D01*
X117206318Y-50031997D01*
X117314518Y-50089830D01*
X117443948Y-50196052D01*
X117550170Y-50325482D01*
X117608003Y-50433682D01*
X117629097Y-50473145D01*
X117629097Y-50473146D01*
X117677700Y-50633367D01*
X117694112Y-50800000D01*
X117677700Y-50966633D01*
X117638818Y-51094810D01*
X117629097Y-51126855D01*
X117617230Y-51149056D01*
X117550170Y-51274518D01*
X117443948Y-51403948D01*
X117314518Y-51510170D01*
X117206318Y-51568003D01*
X117166855Y-51589097D01*
X117134810Y-51598818D01*
X117006633Y-51637700D01*
X116881753Y-51650000D01*
X116798247Y-51650000D01*
X116673367Y-51637700D01*
X116545190Y-51598818D01*
X116513145Y-51589097D01*
X116473682Y-51568003D01*
X116365482Y-51510170D01*
X116236052Y-51403948D01*
X116129830Y-51274518D01*
X116062770Y-51149056D01*
X116050903Y-51126855D01*
X116041182Y-51094810D01*
X116002300Y-50966633D01*
X115985888Y-50800000D01*
X116002300Y-50633367D01*
X116050903Y-50473146D01*
X116050903Y-50473145D01*
X116071997Y-50433681D01*
X116129830Y-50325482D01*
X116236052Y-50196052D01*
X116365482Y-50089830D01*
X116473682Y-50031997D01*
X116513145Y-50010903D01*
X116545190Y-50001182D01*
X116673367Y-49962300D01*
X116798247Y-49950000D01*
X116881753Y-49950000D01*
X117006633Y-49962300D01*
X117006633Y-49962300D01*
G37*
G36*
X114466633Y-49962300D02*
G01*
X114594810Y-50001182D01*
X114626855Y-50010903D01*
X114666318Y-50031997D01*
X114774518Y-50089830D01*
X114903948Y-50196052D01*
X115010170Y-50325482D01*
X115068003Y-50433682D01*
X115089097Y-50473145D01*
X115089097Y-50473146D01*
X115137700Y-50633367D01*
X115154112Y-50800000D01*
X115137700Y-50966633D01*
X115098818Y-51094810D01*
X115089097Y-51126855D01*
X115077230Y-51149056D01*
X115010170Y-51274518D01*
X114903948Y-51403948D01*
X114774518Y-51510170D01*
X114666318Y-51568003D01*
X114626855Y-51589097D01*
X114594810Y-51598818D01*
X114466633Y-51637700D01*
X114341753Y-51650000D01*
X114258247Y-51650000D01*
X114133367Y-51637700D01*
X114005190Y-51598818D01*
X113973145Y-51589097D01*
X113933682Y-51568003D01*
X113825482Y-51510170D01*
X113696052Y-51403948D01*
X113589830Y-51274518D01*
X113522770Y-51149056D01*
X113510903Y-51126855D01*
X113501182Y-51094810D01*
X113462300Y-50966633D01*
X113445888Y-50800000D01*
X113462300Y-50633367D01*
X113510903Y-50473146D01*
X113510903Y-50473145D01*
X113531997Y-50433681D01*
X113589830Y-50325482D01*
X113696052Y-50196052D01*
X113825482Y-50089830D01*
X113933682Y-50031997D01*
X113973145Y-50010903D01*
X114005190Y-50001182D01*
X114133367Y-49962300D01*
X114258247Y-49950000D01*
X114341753Y-49950000D01*
X114466633Y-49962300D01*
X114466633Y-49962300D01*
G37*
G36*
X104306633Y-49962300D02*
G01*
X104434810Y-50001182D01*
X104466855Y-50010903D01*
X104506318Y-50031997D01*
X104614518Y-50089830D01*
X104743948Y-50196052D01*
X104850170Y-50325482D01*
X104908003Y-50433682D01*
X104929097Y-50473145D01*
X104929097Y-50473146D01*
X104977700Y-50633367D01*
X104994112Y-50800000D01*
X104977700Y-50966633D01*
X104938818Y-51094810D01*
X104929097Y-51126855D01*
X104917230Y-51149056D01*
X104850170Y-51274518D01*
X104743948Y-51403948D01*
X104614518Y-51510170D01*
X104506318Y-51568003D01*
X104466855Y-51589097D01*
X104434810Y-51598818D01*
X104306633Y-51637700D01*
X104181753Y-51650000D01*
X104098247Y-51650000D01*
X103973367Y-51637700D01*
X103845190Y-51598818D01*
X103813145Y-51589097D01*
X103773682Y-51568003D01*
X103665482Y-51510170D01*
X103536052Y-51403948D01*
X103429830Y-51274518D01*
X103362770Y-51149056D01*
X103350903Y-51126855D01*
X103341182Y-51094810D01*
X103302300Y-50966633D01*
X103285888Y-50800000D01*
X103302300Y-50633367D01*
X103350903Y-50473146D01*
X103350903Y-50473145D01*
X103371997Y-50433682D01*
X103429830Y-50325482D01*
X103536052Y-50196052D01*
X103665482Y-50089830D01*
X103773682Y-50031997D01*
X103813145Y-50010903D01*
X103845190Y-50001182D01*
X103973367Y-49962300D01*
X104098247Y-49950000D01*
X104181753Y-49950000D01*
X104306633Y-49962300D01*
X104306633Y-49962300D01*
G37*
G36*
X106846633Y-49962300D02*
G01*
X106974810Y-50001182D01*
X107006855Y-50010903D01*
X107046318Y-50031997D01*
X107154518Y-50089830D01*
X107283948Y-50196052D01*
X107390170Y-50325482D01*
X107448003Y-50433682D01*
X107469097Y-50473145D01*
X107469097Y-50473146D01*
X107517700Y-50633367D01*
X107534112Y-50800000D01*
X107517700Y-50966633D01*
X107478818Y-51094810D01*
X107469097Y-51126855D01*
X107457230Y-51149056D01*
X107390170Y-51274518D01*
X107283948Y-51403948D01*
X107154518Y-51510170D01*
X107046318Y-51568003D01*
X107006855Y-51589097D01*
X106974810Y-51598818D01*
X106846633Y-51637700D01*
X106721753Y-51650000D01*
X106638247Y-51650000D01*
X106513367Y-51637700D01*
X106385190Y-51598818D01*
X106353145Y-51589097D01*
X106313682Y-51568003D01*
X106205482Y-51510170D01*
X106076052Y-51403948D01*
X105969830Y-51274518D01*
X105902770Y-51149056D01*
X105890903Y-51126855D01*
X105881182Y-51094810D01*
X105842300Y-50966633D01*
X105825888Y-50800000D01*
X105842300Y-50633367D01*
X105890903Y-50473146D01*
X105890903Y-50473145D01*
X105911997Y-50433682D01*
X105969830Y-50325482D01*
X106076052Y-50196052D01*
X106205482Y-50089830D01*
X106313682Y-50031997D01*
X106353145Y-50010903D01*
X106385190Y-50001182D01*
X106513367Y-49962300D01*
X106638247Y-49950000D01*
X106721753Y-49950000D01*
X106846633Y-49962300D01*
X106846633Y-49962300D01*
G37*
G36*
X102450000Y-51650000D02*
G01*
X100750000Y-51650000D01*
X100750000Y-49950000D01*
X102450000Y-49950000D01*
X102450000Y-51650000D01*
X102450000Y-51650000D01*
G37*
G36*
X111926633Y-49962300D02*
G01*
X112054810Y-50001182D01*
X112086855Y-50010903D01*
X112126318Y-50031997D01*
X112234518Y-50089830D01*
X112363948Y-50196052D01*
X112470170Y-50325482D01*
X112528003Y-50433682D01*
X112549097Y-50473145D01*
X112549097Y-50473146D01*
X112597700Y-50633367D01*
X112614112Y-50800000D01*
X112597700Y-50966633D01*
X112558818Y-51094810D01*
X112549097Y-51126855D01*
X112537230Y-51149056D01*
X112470170Y-51274518D01*
X112363948Y-51403948D01*
X112234518Y-51510170D01*
X112126318Y-51568003D01*
X112086855Y-51589097D01*
X112054810Y-51598818D01*
X111926633Y-51637700D01*
X111801753Y-51650000D01*
X111718247Y-51650000D01*
X111593367Y-51637700D01*
X111465190Y-51598818D01*
X111433145Y-51589097D01*
X111393682Y-51568003D01*
X111285482Y-51510170D01*
X111156052Y-51403948D01*
X111049830Y-51274518D01*
X110982770Y-51149056D01*
X110970903Y-51126855D01*
X110961182Y-51094810D01*
X110922300Y-50966633D01*
X110905888Y-50800000D01*
X110922300Y-50633367D01*
X110970903Y-50473146D01*
X110970903Y-50473145D01*
X110991997Y-50433681D01*
X111049830Y-50325482D01*
X111156052Y-50196052D01*
X111285482Y-50089830D01*
X111393682Y-50031997D01*
X111433145Y-50010903D01*
X111465190Y-50001182D01*
X111593367Y-49962300D01*
X111718247Y-49950000D01*
X111801753Y-49950000D01*
X111926633Y-49962300D01*
X111926633Y-49962300D01*
G37*
G36*
X109386633Y-49962300D02*
G01*
X109514810Y-50001182D01*
X109546855Y-50010903D01*
X109586318Y-50031997D01*
X109694518Y-50089830D01*
X109823948Y-50196052D01*
X109930170Y-50325482D01*
X109988003Y-50433682D01*
X110009097Y-50473145D01*
X110009097Y-50473146D01*
X110057700Y-50633367D01*
X110074112Y-50800000D01*
X110057700Y-50966633D01*
X110018818Y-51094810D01*
X110009097Y-51126855D01*
X109997230Y-51149056D01*
X109930170Y-51274518D01*
X109823948Y-51403948D01*
X109694518Y-51510170D01*
X109586318Y-51568003D01*
X109546855Y-51589097D01*
X109514810Y-51598818D01*
X109386633Y-51637700D01*
X109261753Y-51650000D01*
X109178247Y-51650000D01*
X109053367Y-51637700D01*
X108925190Y-51598818D01*
X108893145Y-51589097D01*
X108853682Y-51568003D01*
X108745482Y-51510170D01*
X108616052Y-51403948D01*
X108509830Y-51274518D01*
X108442770Y-51149056D01*
X108430903Y-51126855D01*
X108421182Y-51094810D01*
X108382300Y-50966633D01*
X108365888Y-50800000D01*
X108382300Y-50633367D01*
X108430903Y-50473146D01*
X108430903Y-50473145D01*
X108451997Y-50433681D01*
X108509830Y-50325482D01*
X108616052Y-50196052D01*
X108745482Y-50089830D01*
X108853682Y-50031997D01*
X108893145Y-50010903D01*
X108925190Y-50001182D01*
X109053367Y-49962300D01*
X109178247Y-49950000D01*
X109261753Y-49950000D01*
X109386633Y-49962300D01*
X109386633Y-49962300D01*
G37*
G36*
X148932434Y-49933701D02*
G01*
X149059350Y-49972201D01*
X149092656Y-49982304D01*
X149132119Y-50003398D01*
X149240319Y-50061231D01*
X149369749Y-50167453D01*
X149475971Y-50296883D01*
X149533804Y-50405082D01*
X149554898Y-50444546D01*
X149564619Y-50476591D01*
X149603501Y-50604768D01*
X149619913Y-50771401D01*
X149603501Y-50938034D01*
X149564619Y-51066211D01*
X149554898Y-51098256D01*
X149539612Y-51126854D01*
X149475971Y-51245919D01*
X149369749Y-51375349D01*
X149240319Y-51481571D01*
X149132120Y-51539404D01*
X149092656Y-51560498D01*
X149060611Y-51570219D01*
X148932434Y-51609101D01*
X148807554Y-51621401D01*
X148724048Y-51621401D01*
X148599168Y-51609101D01*
X148470991Y-51570219D01*
X148438946Y-51560498D01*
X148399482Y-51539404D01*
X148291283Y-51481571D01*
X148161853Y-51375349D01*
X148055631Y-51245919D01*
X147991990Y-51126854D01*
X147976704Y-51098256D01*
X147966983Y-51066211D01*
X147928101Y-50938034D01*
X147911689Y-50771401D01*
X147928101Y-50604768D01*
X147966983Y-50476591D01*
X147976704Y-50444546D01*
X147997798Y-50405082D01*
X148055631Y-50296883D01*
X148161853Y-50167453D01*
X148291283Y-50061231D01*
X148399483Y-50003398D01*
X148438946Y-49982304D01*
X148472252Y-49972201D01*
X148599168Y-49933701D01*
X148724048Y-49921401D01*
X148807554Y-49921401D01*
X148932434Y-49933701D01*
X148932434Y-49933701D01*
G37*
G36*
X144282434Y-49933701D02*
G01*
X144409350Y-49972201D01*
X144442656Y-49982304D01*
X144482119Y-50003398D01*
X144590319Y-50061231D01*
X144719749Y-50167453D01*
X144825971Y-50296883D01*
X144883804Y-50405082D01*
X144904898Y-50444546D01*
X144914619Y-50476591D01*
X144953501Y-50604768D01*
X144969913Y-50771401D01*
X144953501Y-50938034D01*
X144914619Y-51066211D01*
X144904898Y-51098256D01*
X144889612Y-51126854D01*
X144825971Y-51245919D01*
X144719749Y-51375349D01*
X144590319Y-51481571D01*
X144482120Y-51539404D01*
X144442656Y-51560498D01*
X144410611Y-51570219D01*
X144282434Y-51609101D01*
X144157554Y-51621401D01*
X144074048Y-51621401D01*
X143949168Y-51609101D01*
X143820991Y-51570219D01*
X143788946Y-51560498D01*
X143749482Y-51539404D01*
X143641283Y-51481571D01*
X143511853Y-51375349D01*
X143405631Y-51245919D01*
X143341990Y-51126854D01*
X143326704Y-51098256D01*
X143316983Y-51066211D01*
X143278101Y-50938034D01*
X143261689Y-50771401D01*
X143278101Y-50604768D01*
X143316983Y-50476591D01*
X143326704Y-50444546D01*
X143347798Y-50405082D01*
X143405631Y-50296883D01*
X143511853Y-50167453D01*
X143641283Y-50061231D01*
X143749483Y-50003398D01*
X143788946Y-49982304D01*
X143822252Y-49972201D01*
X143949168Y-49933701D01*
X144074048Y-49921401D01*
X144157554Y-49921401D01*
X144282434Y-49933701D01*
X144282434Y-49933701D01*
G37*
G36*
X169226401Y-49132201D02*
G01*
X167526401Y-49132201D01*
X167526401Y-47432201D01*
X169226401Y-47432201D01*
X169226401Y-49132201D01*
X169226401Y-49132201D01*
G37*
G36*
X173876401Y-49132201D02*
G01*
X172176401Y-49132201D01*
X172176401Y-47432201D01*
X173876401Y-47432201D01*
X173876401Y-49132201D01*
X173876401Y-49132201D01*
G37*
G36*
X160364433Y-47396900D02*
G01*
X160492610Y-47435782D01*
X160524655Y-47445503D01*
X160560182Y-47464493D01*
X160672318Y-47524430D01*
X160801748Y-47630652D01*
X160907970Y-47760082D01*
X160965803Y-47868282D01*
X160986897Y-47907745D01*
X160986897Y-47907746D01*
X161035500Y-48067967D01*
X161051912Y-48234600D01*
X161035500Y-48401233D01*
X160996618Y-48529410D01*
X160986897Y-48561455D01*
X160967600Y-48597556D01*
X160907970Y-48709118D01*
X160801748Y-48838548D01*
X160672318Y-48944770D01*
X160564119Y-49002603D01*
X160524655Y-49023697D01*
X160492610Y-49033418D01*
X160364433Y-49072300D01*
X160239553Y-49084600D01*
X160156047Y-49084600D01*
X160031167Y-49072300D01*
X159902990Y-49033418D01*
X159870945Y-49023697D01*
X159831482Y-49002603D01*
X159723282Y-48944770D01*
X159593852Y-48838548D01*
X159487630Y-48709118D01*
X159428000Y-48597556D01*
X159408703Y-48561455D01*
X159398982Y-48529410D01*
X159360100Y-48401233D01*
X159343688Y-48234600D01*
X159360100Y-48067967D01*
X159408703Y-47907746D01*
X159408703Y-47907745D01*
X159429797Y-47868282D01*
X159487630Y-47760082D01*
X159593852Y-47630652D01*
X159723282Y-47524430D01*
X159835418Y-47464493D01*
X159870945Y-47445503D01*
X159902990Y-47435782D01*
X160031167Y-47396900D01*
X160156047Y-47384600D01*
X160239553Y-47384600D01*
X160364433Y-47396900D01*
X160364433Y-47396900D01*
G37*
G36*
X158507800Y-49084600D02*
G01*
X156807800Y-49084600D01*
X156807800Y-47384600D01*
X158507800Y-47384600D01*
X158507800Y-49084600D01*
X158507800Y-49084600D01*
G37*
G36*
X144965801Y-49081401D02*
G01*
X143265801Y-49081401D01*
X143265801Y-47381401D01*
X144965801Y-47381401D01*
X144965801Y-49081401D01*
X144965801Y-49081401D01*
G37*
G36*
X149615801Y-49081401D02*
G01*
X147915801Y-49081401D01*
X147915801Y-47381401D01*
X149615801Y-47381401D01*
X149615801Y-49081401D01*
X149615801Y-49081401D01*
G37*
M02*
