G04 #@! TF.GenerationSoftware,KiCad,Pcbnew,(5.1.2-1)-1*
G04 #@! TF.CreationDate,2020-04-13T15:16:54-04:00*
G04 #@! TF.ProjectId,GR_Stepper_IO,47525f53-7465-4707-9065-725f494f2e6b,rev?*
G04 #@! TF.SameCoordinates,Original*
G04 #@! TF.FileFunction,Legend,Top*
G04 #@! TF.FilePolarity,Positive*
%FSLAX46Y46*%
G04 Gerber Fmt 4.6, Leading zero omitted, Abs format (unit mm)*
G04 Created by KiCad (PCBNEW (5.1.2-1)-1) date 2020-04-13 15:16:54*
%MOMM*%
%LPD*%
G04 APERTURE LIST*
%ADD10C,0.150000*%
%ADD11C,0.152400*%
%ADD12C,0.010000*%
%ADD13C,0.120000*%
G04 APERTURE END LIST*
D10*
X140920175Y-79984600D02*
G75*
G03X140920175Y-79984600I-331175J0D01*
G01*
X140787380Y-79984600D02*
G75*
G03X140787380Y-79984600I-198380J0D01*
G01*
X140694722Y-79984600D02*
G75*
G03X140694722Y-79984600I-80322J0D01*
G01*
X140751639Y-79933800D02*
G75*
G03X140751639Y-79933800I-162639J0D01*
G01*
X165354975Y-79908400D02*
G75*
G03X165354975Y-79908400I-331175J0D01*
G01*
X165222180Y-79908400D02*
G75*
G03X165222180Y-79908400I-198380J0D01*
G01*
X165186439Y-79857600D02*
G75*
G03X165186439Y-79857600I-162639J0D01*
G01*
X165129522Y-79908400D02*
G75*
G03X165129522Y-79908400I-80322J0D01*
G01*
X179222476Y-76231800D02*
X179146285Y-76193704D01*
X179032000Y-76193704D01*
X178917714Y-76231800D01*
X178841523Y-76307990D01*
X178803428Y-76384180D01*
X178765333Y-76536561D01*
X178765333Y-76650847D01*
X178803428Y-76803228D01*
X178841523Y-76879419D01*
X178917714Y-76955609D01*
X179032000Y-76993704D01*
X179108190Y-76993704D01*
X179222476Y-76955609D01*
X179260571Y-76917514D01*
X179260571Y-76650847D01*
X179108190Y-76650847D01*
X179603428Y-76993704D02*
X179603428Y-76193704D01*
X180060571Y-76993704D01*
X180060571Y-76193704D01*
X180441523Y-76993704D02*
X180441523Y-76193704D01*
X180632000Y-76193704D01*
X180746285Y-76231800D01*
X180822476Y-76307990D01*
X180860571Y-76384180D01*
X180898666Y-76536561D01*
X180898666Y-76650847D01*
X180860571Y-76803228D01*
X180822476Y-76879419D01*
X180746285Y-76955609D01*
X180632000Y-76993704D01*
X180441523Y-76993704D01*
X178993933Y-71393104D02*
X179260600Y-72193104D01*
X179527266Y-71393104D01*
X180251076Y-72116914D02*
X180212980Y-72155009D01*
X180098695Y-72193104D01*
X180022504Y-72193104D01*
X179908219Y-72155009D01*
X179832028Y-72078819D01*
X179793933Y-72002628D01*
X179755838Y-71850247D01*
X179755838Y-71735961D01*
X179793933Y-71583580D01*
X179832028Y-71507390D01*
X179908219Y-71431200D01*
X180022504Y-71393104D01*
X180098695Y-71393104D01*
X180212980Y-71431200D01*
X180251076Y-71469295D01*
X181051076Y-72116914D02*
X181012980Y-72155009D01*
X180898695Y-72193104D01*
X180822504Y-72193104D01*
X180708219Y-72155009D01*
X180632028Y-72078819D01*
X180593933Y-72002628D01*
X180555838Y-71850247D01*
X180555838Y-71735961D01*
X180593933Y-71583580D01*
X180632028Y-71507390D01*
X180708219Y-71431200D01*
X180822504Y-71393104D01*
X180898695Y-71393104D01*
X181012980Y-71431200D01*
X181051076Y-71469295D01*
X180143171Y-70872304D02*
X179686028Y-70872304D01*
X179914600Y-70872304D02*
X179914600Y-70072304D01*
X179838409Y-70186590D01*
X179762219Y-70262780D01*
X179686028Y-70300876D01*
X180752695Y-70453257D02*
X180866980Y-70491352D01*
X180905076Y-70529447D01*
X180943171Y-70605638D01*
X180943171Y-70719923D01*
X180905076Y-70796114D01*
X180866980Y-70834209D01*
X180790790Y-70872304D01*
X180486028Y-70872304D01*
X180486028Y-70072304D01*
X180752695Y-70072304D01*
X180828885Y-70110400D01*
X180866980Y-70148495D01*
X180905076Y-70224685D01*
X180905076Y-70300876D01*
X180866980Y-70377066D01*
X180828885Y-70415161D01*
X180752695Y-70453257D01*
X180486028Y-70453257D01*
X180174914Y-68256104D02*
X179717771Y-68256104D01*
X179946342Y-68256104D02*
X179946342Y-67456104D01*
X179870152Y-67570390D01*
X179793961Y-67646580D01*
X179717771Y-67684676D01*
X180479676Y-68027533D02*
X180860628Y-68027533D01*
X180403485Y-68256104D02*
X180670152Y-67456104D01*
X180936819Y-68256104D01*
X179666971Y-65144695D02*
X179705066Y-65106600D01*
X179781257Y-65068504D01*
X179971733Y-65068504D01*
X180047923Y-65106600D01*
X180086019Y-65144695D01*
X180124114Y-65220885D01*
X180124114Y-65297076D01*
X180086019Y-65411361D01*
X179628876Y-65868504D01*
X180124114Y-65868504D01*
X180428876Y-65639933D02*
X180809828Y-65639933D01*
X180352685Y-65868504D02*
X180619352Y-65068504D01*
X180886019Y-65868504D01*
X179635228Y-62604695D02*
X179673323Y-62566600D01*
X179749514Y-62528504D01*
X179939990Y-62528504D01*
X180016180Y-62566600D01*
X180054276Y-62604695D01*
X180092371Y-62680885D01*
X180092371Y-62757076D01*
X180054276Y-62871361D01*
X179597133Y-63328504D01*
X180092371Y-63328504D01*
X180701895Y-62909457D02*
X180816180Y-62947552D01*
X180854276Y-62985647D01*
X180892371Y-63061838D01*
X180892371Y-63176123D01*
X180854276Y-63252314D01*
X180816180Y-63290409D01*
X180739990Y-63328504D01*
X180435228Y-63328504D01*
X180435228Y-62528504D01*
X180701895Y-62528504D01*
X180778085Y-62566600D01*
X180816180Y-62604695D01*
X180854276Y-62680885D01*
X180854276Y-62757076D01*
X180816180Y-62833266D01*
X180778085Y-62871361D01*
X180701895Y-62909457D01*
X180435228Y-62909457D01*
X180009876Y-59925000D02*
X179933685Y-59886904D01*
X179819400Y-59886904D01*
X179705114Y-59925000D01*
X179628923Y-60001190D01*
X179590828Y-60077380D01*
X179552733Y-60229761D01*
X179552733Y-60344047D01*
X179590828Y-60496428D01*
X179628923Y-60572619D01*
X179705114Y-60648809D01*
X179819400Y-60686904D01*
X179895590Y-60686904D01*
X180009876Y-60648809D01*
X180047971Y-60610714D01*
X180047971Y-60344047D01*
X179895590Y-60344047D01*
X180390828Y-60686904D02*
X180390828Y-59886904D01*
X180847971Y-60686904D01*
X180847971Y-59886904D01*
X181228923Y-60686904D02*
X181228923Y-59886904D01*
X181419400Y-59886904D01*
X181533685Y-59925000D01*
X181609876Y-60001190D01*
X181647971Y-60077380D01*
X181686066Y-60229761D01*
X181686066Y-60344047D01*
X181647971Y-60496428D01*
X181609876Y-60572619D01*
X181533685Y-60648809D01*
X181419400Y-60686904D01*
X181228923Y-60686904D01*
X178949514Y-57423104D02*
X179216180Y-58223104D01*
X179482847Y-57423104D01*
X179749514Y-58223104D02*
X179749514Y-57423104D01*
X180016180Y-57994533D01*
X180282847Y-57423104D01*
X180282847Y-58223104D01*
X180778085Y-58223104D02*
X180701895Y-58185009D01*
X180663800Y-58146914D01*
X180625704Y-58070723D01*
X180625704Y-57842152D01*
X180663800Y-57765961D01*
X180701895Y-57727866D01*
X180778085Y-57689771D01*
X180892371Y-57689771D01*
X180968561Y-57727866D01*
X181006657Y-57765961D01*
X181044752Y-57842152D01*
X181044752Y-58070723D01*
X181006657Y-58146914D01*
X180968561Y-58185009D01*
X180892371Y-58223104D01*
X180778085Y-58223104D01*
X181273323Y-57689771D02*
X181578085Y-57689771D01*
X181387609Y-57423104D02*
X181387609Y-58108819D01*
X181425704Y-58185009D01*
X181501895Y-58223104D01*
X181578085Y-58223104D01*
X161150400Y-76155504D02*
X161150400Y-75355504D01*
X161340876Y-75355504D01*
X161455161Y-75393600D01*
X161531352Y-75469790D01*
X161569447Y-75545980D01*
X161607542Y-75698361D01*
X161607542Y-75812647D01*
X161569447Y-75965028D01*
X161531352Y-76041219D01*
X161455161Y-76117409D01*
X161340876Y-76155504D01*
X161150400Y-76155504D01*
X161950400Y-76155504D02*
X161950400Y-75355504D01*
X162788495Y-76155504D02*
X162521828Y-75774552D01*
X162331352Y-76155504D02*
X162331352Y-75355504D01*
X162636114Y-75355504D01*
X162712304Y-75393600D01*
X162750400Y-75431695D01*
X162788495Y-75507885D01*
X162788495Y-75622171D01*
X162750400Y-75698361D01*
X162712304Y-75736457D01*
X162636114Y-75774552D01*
X162331352Y-75774552D01*
X160223361Y-73552009D02*
X160337647Y-73590104D01*
X160528123Y-73590104D01*
X160604314Y-73552009D01*
X160642409Y-73513914D01*
X160680504Y-73437723D01*
X160680504Y-73361533D01*
X160642409Y-73285342D01*
X160604314Y-73247247D01*
X160528123Y-73209152D01*
X160375742Y-73171057D01*
X160299552Y-73132961D01*
X160261457Y-73094866D01*
X160223361Y-73018676D01*
X160223361Y-72942485D01*
X160261457Y-72866295D01*
X160299552Y-72828200D01*
X160375742Y-72790104D01*
X160566219Y-72790104D01*
X160680504Y-72828200D01*
X160909076Y-72790104D02*
X161366219Y-72790104D01*
X161137647Y-73590104D02*
X161137647Y-72790104D01*
X161632885Y-73171057D02*
X161899552Y-73171057D01*
X162013838Y-73590104D02*
X161632885Y-73590104D01*
X161632885Y-72790104D01*
X162013838Y-72790104D01*
X162356695Y-73590104D02*
X162356695Y-72790104D01*
X162661457Y-72790104D01*
X162737647Y-72828200D01*
X162775742Y-72866295D01*
X162813838Y-72942485D01*
X162813838Y-73056771D01*
X162775742Y-73132961D01*
X162737647Y-73171057D01*
X162661457Y-73209152D01*
X162356695Y-73209152D01*
X160267809Y-70542171D02*
X160267809Y-71075504D01*
X160267809Y-70618361D02*
X160305904Y-70580266D01*
X160382095Y-70542171D01*
X160496380Y-70542171D01*
X160572571Y-70580266D01*
X160610666Y-70656457D01*
X160610666Y-71075504D01*
X160953523Y-71037409D02*
X161067809Y-71075504D01*
X161258285Y-71075504D01*
X161334476Y-71037409D01*
X161372571Y-70999314D01*
X161410666Y-70923123D01*
X161410666Y-70846933D01*
X161372571Y-70770742D01*
X161334476Y-70732647D01*
X161258285Y-70694552D01*
X161105904Y-70656457D01*
X161029714Y-70618361D01*
X160991619Y-70580266D01*
X160953523Y-70504076D01*
X160953523Y-70427885D01*
X160991619Y-70351695D01*
X161029714Y-70313600D01*
X161105904Y-70275504D01*
X161296380Y-70275504D01*
X161410666Y-70313600D01*
X162134476Y-71075504D02*
X161753523Y-71075504D01*
X161753523Y-70275504D01*
X162401142Y-71075504D02*
X162401142Y-70275504D01*
X162705904Y-70275504D01*
X162782095Y-70313600D01*
X162820190Y-70351695D01*
X162858285Y-70427885D01*
X162858285Y-70542171D01*
X162820190Y-70618361D01*
X162782095Y-70656457D01*
X162705904Y-70694552D01*
X162401142Y-70694552D01*
X160210657Y-67875171D02*
X160210657Y-68408504D01*
X160210657Y-67951361D02*
X160248752Y-67913266D01*
X160324942Y-67875171D01*
X160439228Y-67875171D01*
X160515419Y-67913266D01*
X160553514Y-67989457D01*
X160553514Y-68408504D01*
X161391609Y-68408504D02*
X161124942Y-68027552D01*
X160934466Y-68408504D02*
X160934466Y-67608504D01*
X161239228Y-67608504D01*
X161315419Y-67646600D01*
X161353514Y-67684695D01*
X161391609Y-67760885D01*
X161391609Y-67875171D01*
X161353514Y-67951361D01*
X161315419Y-67989457D01*
X161239228Y-68027552D01*
X160934466Y-68027552D01*
X161696371Y-68370409D02*
X161810657Y-68408504D01*
X162001133Y-68408504D01*
X162077323Y-68370409D01*
X162115419Y-68332314D01*
X162153514Y-68256123D01*
X162153514Y-68179933D01*
X162115419Y-68103742D01*
X162077323Y-68065647D01*
X162001133Y-68027552D01*
X161848752Y-67989457D01*
X161772561Y-67951361D01*
X161734466Y-67913266D01*
X161696371Y-67837076D01*
X161696371Y-67760885D01*
X161734466Y-67684695D01*
X161772561Y-67646600D01*
X161848752Y-67608504D01*
X162039228Y-67608504D01*
X162153514Y-67646600D01*
X162382085Y-67608504D02*
X162839228Y-67608504D01*
X162610657Y-68408504D02*
X162610657Y-67608504D01*
X160718628Y-65868504D02*
X160718628Y-65068504D01*
X160985295Y-65639933D01*
X161251961Y-65068504D01*
X161251961Y-65868504D01*
X161594819Y-65830409D02*
X161709104Y-65868504D01*
X161899580Y-65868504D01*
X161975771Y-65830409D01*
X162013866Y-65792314D01*
X162051961Y-65716123D01*
X162051961Y-65639933D01*
X162013866Y-65563742D01*
X161975771Y-65525647D01*
X161899580Y-65487552D01*
X161747200Y-65449457D01*
X161671009Y-65411361D01*
X161632914Y-65373266D01*
X161594819Y-65297076D01*
X161594819Y-65220885D01*
X161632914Y-65144695D01*
X161671009Y-65106600D01*
X161747200Y-65068504D01*
X161937676Y-65068504D01*
X162051961Y-65106600D01*
X162318628Y-65068504D02*
X162813866Y-65068504D01*
X162547200Y-65373266D01*
X162661485Y-65373266D01*
X162737676Y-65411361D01*
X162775771Y-65449457D01*
X162813866Y-65525647D01*
X162813866Y-65716123D01*
X162775771Y-65792314D01*
X162737676Y-65830409D01*
X162661485Y-65868504D01*
X162432914Y-65868504D01*
X162356723Y-65830409D01*
X162318628Y-65792314D01*
X160617028Y-63303104D02*
X160617028Y-62503104D01*
X160883695Y-63074533D01*
X161150361Y-62503104D01*
X161150361Y-63303104D01*
X161493219Y-63265009D02*
X161607504Y-63303104D01*
X161797980Y-63303104D01*
X161874171Y-63265009D01*
X161912266Y-63226914D01*
X161950361Y-63150723D01*
X161950361Y-63074533D01*
X161912266Y-62998342D01*
X161874171Y-62960247D01*
X161797980Y-62922152D01*
X161645600Y-62884057D01*
X161569409Y-62845961D01*
X161531314Y-62807866D01*
X161493219Y-62731676D01*
X161493219Y-62655485D01*
X161531314Y-62579295D01*
X161569409Y-62541200D01*
X161645600Y-62503104D01*
X161836076Y-62503104D01*
X161950361Y-62541200D01*
X162255123Y-62579295D02*
X162293219Y-62541200D01*
X162369409Y-62503104D01*
X162559885Y-62503104D01*
X162636076Y-62541200D01*
X162674171Y-62579295D01*
X162712266Y-62655485D01*
X162712266Y-62731676D01*
X162674171Y-62845961D01*
X162217028Y-63303104D01*
X162712266Y-63303104D01*
X160642428Y-60737704D02*
X160642428Y-59937704D01*
X160909095Y-60509133D01*
X161175761Y-59937704D01*
X161175761Y-60737704D01*
X161518619Y-60699609D02*
X161632904Y-60737704D01*
X161823380Y-60737704D01*
X161899571Y-60699609D01*
X161937666Y-60661514D01*
X161975761Y-60585323D01*
X161975761Y-60509133D01*
X161937666Y-60432942D01*
X161899571Y-60394847D01*
X161823380Y-60356752D01*
X161671000Y-60318657D01*
X161594809Y-60280561D01*
X161556714Y-60242466D01*
X161518619Y-60166276D01*
X161518619Y-60090085D01*
X161556714Y-60013895D01*
X161594809Y-59975800D01*
X161671000Y-59937704D01*
X161861476Y-59937704D01*
X161975761Y-59975800D01*
X162737666Y-60737704D02*
X162280523Y-60737704D01*
X162509095Y-60737704D02*
X162509095Y-59937704D01*
X162432904Y-60051990D01*
X162356714Y-60128180D01*
X162280523Y-60166276D01*
X159969361Y-57664371D02*
X159969361Y-58197704D01*
X159969361Y-57740561D02*
X160007457Y-57702466D01*
X160083647Y-57664371D01*
X160197933Y-57664371D01*
X160274123Y-57702466D01*
X160312219Y-57778657D01*
X160312219Y-58197704D01*
X160693171Y-57778657D02*
X160959838Y-57778657D01*
X161074123Y-58197704D02*
X160693171Y-58197704D01*
X160693171Y-57397704D01*
X161074123Y-57397704D01*
X161416980Y-58197704D02*
X161416980Y-57397704D01*
X161874123Y-58197704D01*
X161874123Y-57397704D01*
X162216980Y-57969133D02*
X162597933Y-57969133D01*
X162140790Y-58197704D02*
X162407457Y-57397704D01*
X162674123Y-58197704D01*
X155022761Y-46081942D02*
X155632285Y-46081942D01*
X155327523Y-46386704D02*
X155327523Y-45777180D01*
X155898952Y-45586704D02*
X156165619Y-46386704D01*
X156432285Y-45586704D01*
X156698952Y-46386704D02*
X156698952Y-45586704D01*
X156965619Y-46158133D01*
X157232285Y-45586704D01*
X157232285Y-46386704D01*
X157727523Y-46386704D02*
X157651333Y-46348609D01*
X157613238Y-46310514D01*
X157575142Y-46234323D01*
X157575142Y-46005752D01*
X157613238Y-45929561D01*
X157651333Y-45891466D01*
X157727523Y-45853371D01*
X157841809Y-45853371D01*
X157918000Y-45891466D01*
X157956095Y-45929561D01*
X157994190Y-46005752D01*
X157994190Y-46234323D01*
X157956095Y-46310514D01*
X157918000Y-46348609D01*
X157841809Y-46386704D01*
X157727523Y-46386704D01*
X158222761Y-45853371D02*
X158527523Y-45853371D01*
X158337047Y-45586704D02*
X158337047Y-46272419D01*
X158375142Y-46348609D01*
X158451333Y-46386704D01*
X158527523Y-46386704D01*
X159639076Y-45675600D02*
X159562885Y-45637504D01*
X159448600Y-45637504D01*
X159334314Y-45675600D01*
X159258123Y-45751790D01*
X159220028Y-45827980D01*
X159181933Y-45980361D01*
X159181933Y-46094647D01*
X159220028Y-46247028D01*
X159258123Y-46323219D01*
X159334314Y-46399409D01*
X159448600Y-46437504D01*
X159524790Y-46437504D01*
X159639076Y-46399409D01*
X159677171Y-46361314D01*
X159677171Y-46094647D01*
X159524790Y-46094647D01*
X160020028Y-46437504D02*
X160020028Y-45637504D01*
X160477171Y-46437504D01*
X160477171Y-45637504D01*
X160858123Y-46437504D02*
X160858123Y-45637504D01*
X161048600Y-45637504D01*
X161162885Y-45675600D01*
X161239076Y-45751790D01*
X161277171Y-45827980D01*
X161315266Y-45980361D01*
X161315266Y-46094647D01*
X161277171Y-46247028D01*
X161239076Y-46323219D01*
X161162885Y-46399409D01*
X161048600Y-46437504D01*
X160858123Y-46437504D01*
X171354704Y-51727000D02*
X170554704Y-51727000D01*
X171354704Y-51346047D02*
X170554704Y-51346047D01*
X171354704Y-50888904D01*
X170554704Y-50888904D01*
X170821371Y-50165095D02*
X171354704Y-50165095D01*
X170516609Y-50355571D02*
X171088038Y-50546047D01*
X171088038Y-50050809D01*
X166706504Y-51701600D02*
X165906504Y-51701600D01*
X166706504Y-51320647D02*
X165906504Y-51320647D01*
X166706504Y-50863504D01*
X165906504Y-50863504D01*
X165906504Y-50558742D02*
X165906504Y-50063504D01*
X166211266Y-50330171D01*
X166211266Y-50215885D01*
X166249361Y-50139695D01*
X166287457Y-50101600D01*
X166363647Y-50063504D01*
X166554123Y-50063504D01*
X166630314Y-50101600D01*
X166668409Y-50139695D01*
X166706504Y-50215885D01*
X166706504Y-50444457D01*
X166668409Y-50520647D01*
X166630314Y-50558742D01*
X166477942Y-49339371D02*
X166477942Y-48729847D01*
X166782704Y-49034609D02*
X166173180Y-49034609D01*
X165982704Y-47967942D02*
X165982704Y-48348895D01*
X166363657Y-48386990D01*
X166325561Y-48348895D01*
X166287466Y-48272704D01*
X166287466Y-48082228D01*
X166325561Y-48006038D01*
X166363657Y-47967942D01*
X166439847Y-47929847D01*
X166630323Y-47929847D01*
X166706514Y-47967942D01*
X166744609Y-48006038D01*
X166782704Y-48082228D01*
X166782704Y-48272704D01*
X166744609Y-48348895D01*
X166706514Y-48386990D01*
X165982704Y-47701276D02*
X166782704Y-47434609D01*
X165982704Y-47167942D01*
X171075342Y-49390171D02*
X171075342Y-48780647D01*
X171380104Y-49085409D02*
X170770580Y-49085409D01*
X170580104Y-48018742D02*
X170580104Y-48399695D01*
X170961057Y-48437790D01*
X170922961Y-48399695D01*
X170884866Y-48323504D01*
X170884866Y-48133028D01*
X170922961Y-48056838D01*
X170961057Y-48018742D01*
X171037247Y-47980647D01*
X171227723Y-47980647D01*
X171303914Y-48018742D01*
X171342009Y-48056838D01*
X171380104Y-48133028D01*
X171380104Y-48323504D01*
X171342009Y-48399695D01*
X171303914Y-48437790D01*
X170580104Y-47752076D02*
X171380104Y-47485409D01*
X170580104Y-47218742D01*
X170694400Y-54076523D02*
X170656304Y-54152714D01*
X170656304Y-54267000D01*
X170694400Y-54381285D01*
X170770590Y-54457476D01*
X170846780Y-54495571D01*
X170999161Y-54533666D01*
X171113447Y-54533666D01*
X171265828Y-54495571D01*
X171342019Y-54457476D01*
X171418209Y-54381285D01*
X171456304Y-54267000D01*
X171456304Y-54190809D01*
X171418209Y-54076523D01*
X171380114Y-54038428D01*
X171113447Y-54038428D01*
X171113447Y-54190809D01*
X171456304Y-53695571D02*
X170656304Y-53695571D01*
X171456304Y-53238428D01*
X170656304Y-53238428D01*
X171456304Y-52857476D02*
X170656304Y-52857476D01*
X170656304Y-52667000D01*
X170694400Y-52552714D01*
X170770590Y-52476523D01*
X170846780Y-52438428D01*
X170999161Y-52400333D01*
X171113447Y-52400333D01*
X171265828Y-52438428D01*
X171342019Y-52476523D01*
X171418209Y-52552714D01*
X171456304Y-52667000D01*
X171456304Y-52857476D01*
X166020800Y-54152723D02*
X165982704Y-54228914D01*
X165982704Y-54343200D01*
X166020800Y-54457485D01*
X166096990Y-54533676D01*
X166173180Y-54571771D01*
X166325561Y-54609866D01*
X166439847Y-54609866D01*
X166592228Y-54571771D01*
X166668419Y-54533676D01*
X166744609Y-54457485D01*
X166782704Y-54343200D01*
X166782704Y-54267009D01*
X166744609Y-54152723D01*
X166706514Y-54114628D01*
X166439847Y-54114628D01*
X166439847Y-54267009D01*
X166782704Y-53771771D02*
X165982704Y-53771771D01*
X166782704Y-53314628D01*
X165982704Y-53314628D01*
X166782704Y-52933676D02*
X165982704Y-52933676D01*
X165982704Y-52743200D01*
X166020800Y-52628914D01*
X166096990Y-52552723D01*
X166173180Y-52514628D01*
X166325561Y-52476533D01*
X166439847Y-52476533D01*
X166592228Y-52514628D01*
X166668419Y-52552723D01*
X166744609Y-52628914D01*
X166782704Y-52743200D01*
X166782704Y-52933676D01*
X146310400Y-53974923D02*
X146272304Y-54051114D01*
X146272304Y-54165400D01*
X146310400Y-54279685D01*
X146386590Y-54355876D01*
X146462780Y-54393971D01*
X146615161Y-54432066D01*
X146729447Y-54432066D01*
X146881828Y-54393971D01*
X146958019Y-54355876D01*
X147034209Y-54279685D01*
X147072304Y-54165400D01*
X147072304Y-54089209D01*
X147034209Y-53974923D01*
X146996114Y-53936828D01*
X146729447Y-53936828D01*
X146729447Y-54089209D01*
X147072304Y-53593971D02*
X146272304Y-53593971D01*
X147072304Y-53136828D01*
X146272304Y-53136828D01*
X147072304Y-52755876D02*
X146272304Y-52755876D01*
X146272304Y-52565400D01*
X146310400Y-52451114D01*
X146386590Y-52374923D01*
X146462780Y-52336828D01*
X146615161Y-52298733D01*
X146729447Y-52298733D01*
X146881828Y-52336828D01*
X146958019Y-52374923D01*
X147034209Y-52451114D01*
X147072304Y-52565400D01*
X147072304Y-52755876D01*
X147046904Y-51727000D02*
X146246904Y-51727000D01*
X147046904Y-51346047D02*
X146246904Y-51346047D01*
X147046904Y-50888904D01*
X146246904Y-50888904D01*
X146323095Y-50546047D02*
X146285000Y-50507952D01*
X146246904Y-50431761D01*
X146246904Y-50241285D01*
X146285000Y-50165095D01*
X146323095Y-50127000D01*
X146399285Y-50088904D01*
X146475476Y-50088904D01*
X146589761Y-50127000D01*
X147046904Y-50584142D01*
X147046904Y-50088904D01*
X146767542Y-49440971D02*
X146767542Y-48831447D01*
X147072304Y-49136209D02*
X146462780Y-49136209D01*
X146272304Y-48069542D02*
X146272304Y-48450495D01*
X146653257Y-48488590D01*
X146615161Y-48450495D01*
X146577066Y-48374304D01*
X146577066Y-48183828D01*
X146615161Y-48107638D01*
X146653257Y-48069542D01*
X146729447Y-48031447D01*
X146919923Y-48031447D01*
X146996114Y-48069542D01*
X147034209Y-48107638D01*
X147072304Y-48183828D01*
X147072304Y-48374304D01*
X147034209Y-48450495D01*
X146996114Y-48488590D01*
X146272304Y-47802876D02*
X147072304Y-47536209D01*
X146272304Y-47269542D01*
X142144742Y-49313971D02*
X142144742Y-48704447D01*
X142449504Y-49009209D02*
X141839980Y-49009209D01*
X141649504Y-47942542D02*
X141649504Y-48323495D01*
X142030457Y-48361590D01*
X141992361Y-48323495D01*
X141954266Y-48247304D01*
X141954266Y-48056828D01*
X141992361Y-47980638D01*
X142030457Y-47942542D01*
X142106647Y-47904447D01*
X142297123Y-47904447D01*
X142373314Y-47942542D01*
X142411409Y-47980638D01*
X142449504Y-48056828D01*
X142449504Y-48247304D01*
X142411409Y-48323495D01*
X142373314Y-48361590D01*
X141649504Y-47675876D02*
X142449504Y-47409209D01*
X141649504Y-47142542D01*
X142322504Y-51727000D02*
X141522504Y-51727000D01*
X142322504Y-51346047D02*
X141522504Y-51346047D01*
X142322504Y-50888904D01*
X141522504Y-50888904D01*
X142322504Y-50088904D02*
X142322504Y-50546047D01*
X142322504Y-50317476D02*
X141522504Y-50317476D01*
X141636790Y-50393666D01*
X141712980Y-50469857D01*
X141751076Y-50546047D01*
X141535200Y-54076523D02*
X141497104Y-54152714D01*
X141497104Y-54267000D01*
X141535200Y-54381285D01*
X141611390Y-54457476D01*
X141687580Y-54495571D01*
X141839961Y-54533666D01*
X141954247Y-54533666D01*
X142106628Y-54495571D01*
X142182819Y-54457476D01*
X142259009Y-54381285D01*
X142297104Y-54267000D01*
X142297104Y-54190809D01*
X142259009Y-54076523D01*
X142220914Y-54038428D01*
X141954247Y-54038428D01*
X141954247Y-54190809D01*
X142297104Y-53695571D02*
X141497104Y-53695571D01*
X142297104Y-53238428D01*
X141497104Y-53238428D01*
X142297104Y-52857476D02*
X141497104Y-52857476D01*
X141497104Y-52667000D01*
X141535200Y-52552714D01*
X141611390Y-52476523D01*
X141687580Y-52438428D01*
X141839961Y-52400333D01*
X141954247Y-52400333D01*
X142106628Y-52438428D01*
X142182819Y-52476523D01*
X142259009Y-52552714D01*
X142297104Y-52667000D01*
X142297104Y-52857476D01*
X177444476Y-99422000D02*
X177368285Y-99383904D01*
X177254000Y-99383904D01*
X177139714Y-99422000D01*
X177063523Y-99498190D01*
X177025428Y-99574380D01*
X176987333Y-99726761D01*
X176987333Y-99841047D01*
X177025428Y-99993428D01*
X177063523Y-100069619D01*
X177139714Y-100145809D01*
X177254000Y-100183904D01*
X177330190Y-100183904D01*
X177444476Y-100145809D01*
X177482571Y-100107714D01*
X177482571Y-99841047D01*
X177330190Y-99841047D01*
X177825428Y-100183904D02*
X177825428Y-99383904D01*
X178282571Y-100183904D01*
X178282571Y-99383904D01*
X178663523Y-100183904D02*
X178663523Y-99383904D01*
X178854000Y-99383904D01*
X178968285Y-99422000D01*
X179044476Y-99498190D01*
X179082571Y-99574380D01*
X179120666Y-99726761D01*
X179120666Y-99841047D01*
X179082571Y-99993428D01*
X179044476Y-100069619D01*
X178968285Y-100145809D01*
X178854000Y-100183904D01*
X178663523Y-100183904D01*
X173317028Y-99853742D02*
X173926552Y-99853742D01*
X173621790Y-100158504D02*
X173621790Y-99548980D01*
X174688457Y-99358504D02*
X174307504Y-99358504D01*
X174269409Y-99739457D01*
X174307504Y-99701361D01*
X174383695Y-99663266D01*
X174574171Y-99663266D01*
X174650361Y-99701361D01*
X174688457Y-99739457D01*
X174726552Y-99815647D01*
X174726552Y-100006123D01*
X174688457Y-100082314D01*
X174650361Y-100120409D01*
X174574171Y-100158504D01*
X174383695Y-100158504D01*
X174307504Y-100120409D01*
X174269409Y-100082314D01*
X174955123Y-99358504D02*
X175221790Y-100158504D01*
X175488457Y-99358504D01*
X168840390Y-99333104D02*
X169107057Y-100133104D01*
X169373723Y-99333104D01*
X169640390Y-100133104D02*
X169640390Y-99333104D01*
X169907057Y-99904533D01*
X170173723Y-99333104D01*
X170173723Y-100133104D01*
X170668961Y-100133104D02*
X170592771Y-100095009D01*
X170554676Y-100056914D01*
X170516580Y-99980723D01*
X170516580Y-99752152D01*
X170554676Y-99675961D01*
X170592771Y-99637866D01*
X170668961Y-99599771D01*
X170783247Y-99599771D01*
X170859438Y-99637866D01*
X170897533Y-99675961D01*
X170935628Y-99752152D01*
X170935628Y-99980723D01*
X170897533Y-100056914D01*
X170859438Y-100095009D01*
X170783247Y-100133104D01*
X170668961Y-100133104D01*
X171164200Y-99599771D02*
X171468961Y-99599771D01*
X171278485Y-99333104D02*
X171278485Y-100018819D01*
X171316580Y-100095009D01*
X171392771Y-100133104D01*
X171468961Y-100133104D01*
X171849914Y-100133104D02*
X171773723Y-100095009D01*
X171735628Y-100056914D01*
X171697533Y-99980723D01*
X171697533Y-99752152D01*
X171735628Y-99675961D01*
X171773723Y-99637866D01*
X171849914Y-99599771D01*
X171964200Y-99599771D01*
X172040390Y-99637866D01*
X172078485Y-99675961D01*
X172116580Y-99752152D01*
X172116580Y-99980723D01*
X172078485Y-100056914D01*
X172040390Y-100095009D01*
X171964200Y-100133104D01*
X171849914Y-100133104D01*
X172459438Y-100133104D02*
X172459438Y-99599771D01*
X172459438Y-99752152D02*
X172497533Y-99675961D01*
X172535628Y-99637866D01*
X172611819Y-99599771D01*
X172688009Y-99599771D01*
X92144971Y-60483704D02*
X92144971Y-59683704D01*
X92335447Y-59683704D01*
X92449733Y-59721800D01*
X92525923Y-59797990D01*
X92564019Y-59874180D01*
X92602114Y-60026561D01*
X92602114Y-60140847D01*
X92564019Y-60293228D01*
X92525923Y-60369419D01*
X92449733Y-60445609D01*
X92335447Y-60483704D01*
X92144971Y-60483704D01*
X93364019Y-60483704D02*
X92906876Y-60483704D01*
X93135447Y-60483704D02*
X93135447Y-59683704D01*
X93059257Y-59797990D01*
X92983066Y-59874180D01*
X92906876Y-59912276D01*
X93744971Y-60483704D02*
X93897352Y-60483704D01*
X93973542Y-60445609D01*
X94011638Y-60407514D01*
X94087828Y-60293228D01*
X94125923Y-60140847D01*
X94125923Y-59836085D01*
X94087828Y-59759895D01*
X94049733Y-59721800D01*
X93973542Y-59683704D01*
X93821161Y-59683704D01*
X93744971Y-59721800D01*
X93706876Y-59759895D01*
X93668780Y-59836085D01*
X93668780Y-60026561D01*
X93706876Y-60102752D01*
X93744971Y-60140847D01*
X93821161Y-60178942D01*
X93973542Y-60178942D01*
X94049733Y-60140847D01*
X94087828Y-60102752D01*
X94125923Y-60026561D01*
X89325571Y-60509104D02*
X89325571Y-59709104D01*
X89516047Y-59709104D01*
X89630333Y-59747200D01*
X89706523Y-59823390D01*
X89744619Y-59899580D01*
X89782714Y-60051961D01*
X89782714Y-60166247D01*
X89744619Y-60318628D01*
X89706523Y-60394819D01*
X89630333Y-60471009D01*
X89516047Y-60509104D01*
X89325571Y-60509104D01*
X90087476Y-59785295D02*
X90125571Y-59747200D01*
X90201761Y-59709104D01*
X90392238Y-59709104D01*
X90468428Y-59747200D01*
X90506523Y-59785295D01*
X90544619Y-59861485D01*
X90544619Y-59937676D01*
X90506523Y-60051961D01*
X90049380Y-60509104D01*
X90544619Y-60509104D01*
X91039857Y-59709104D02*
X91116047Y-59709104D01*
X91192238Y-59747200D01*
X91230333Y-59785295D01*
X91268428Y-59861485D01*
X91306523Y-60013866D01*
X91306523Y-60204342D01*
X91268428Y-60356723D01*
X91230333Y-60432914D01*
X91192238Y-60471009D01*
X91116047Y-60509104D01*
X91039857Y-60509104D01*
X90963666Y-60471009D01*
X90925571Y-60432914D01*
X90887476Y-60356723D01*
X90849380Y-60204342D01*
X90849380Y-60013866D01*
X90887476Y-59861485D01*
X90925571Y-59785295D01*
X90963666Y-59747200D01*
X91039857Y-59709104D01*
X154641714Y-57397704D02*
X154908380Y-58197704D01*
X155175047Y-57397704D01*
X155441714Y-58197704D02*
X155441714Y-57397704D01*
X155708380Y-57969133D01*
X155975047Y-57397704D01*
X155975047Y-58197704D01*
X156470285Y-58197704D02*
X156394095Y-58159609D01*
X156356000Y-58121514D01*
X156317904Y-58045323D01*
X156317904Y-57816752D01*
X156356000Y-57740561D01*
X156394095Y-57702466D01*
X156470285Y-57664371D01*
X156584571Y-57664371D01*
X156660761Y-57702466D01*
X156698857Y-57740561D01*
X156736952Y-57816752D01*
X156736952Y-58045323D01*
X156698857Y-58121514D01*
X156660761Y-58159609D01*
X156584571Y-58197704D01*
X156470285Y-58197704D01*
X156965523Y-57664371D02*
X157270285Y-57664371D01*
X157079809Y-57397704D02*
X157079809Y-58083419D01*
X157117904Y-58159609D01*
X157194095Y-58197704D01*
X157270285Y-58197704D01*
X155346476Y-59950400D02*
X155270285Y-59912304D01*
X155156000Y-59912304D01*
X155041714Y-59950400D01*
X154965523Y-60026590D01*
X154927428Y-60102780D01*
X154889333Y-60255161D01*
X154889333Y-60369447D01*
X154927428Y-60521828D01*
X154965523Y-60598019D01*
X155041714Y-60674209D01*
X155156000Y-60712304D01*
X155232190Y-60712304D01*
X155346476Y-60674209D01*
X155384571Y-60636114D01*
X155384571Y-60369447D01*
X155232190Y-60369447D01*
X155727428Y-60712304D02*
X155727428Y-59912304D01*
X156184571Y-60712304D01*
X156184571Y-59912304D01*
X156565523Y-60712304D02*
X156565523Y-59912304D01*
X156756000Y-59912304D01*
X156870285Y-59950400D01*
X156946476Y-60026590D01*
X156984571Y-60102780D01*
X157022666Y-60255161D01*
X157022666Y-60369447D01*
X156984571Y-60521828D01*
X156946476Y-60598019D01*
X156870285Y-60674209D01*
X156756000Y-60712304D01*
X156565523Y-60712304D01*
X154692428Y-62553895D02*
X154730523Y-62515800D01*
X154806714Y-62477704D01*
X154997190Y-62477704D01*
X155073380Y-62515800D01*
X155111476Y-62553895D01*
X155149571Y-62630085D01*
X155149571Y-62706276D01*
X155111476Y-62820561D01*
X154654333Y-63277704D01*
X155149571Y-63277704D01*
X155759095Y-62858657D02*
X155873380Y-62896752D01*
X155911476Y-62934847D01*
X155949571Y-63011038D01*
X155949571Y-63125323D01*
X155911476Y-63201514D01*
X155873380Y-63239609D01*
X155797190Y-63277704D01*
X155492428Y-63277704D01*
X155492428Y-62477704D01*
X155759095Y-62477704D01*
X155835285Y-62515800D01*
X155873380Y-62553895D01*
X155911476Y-62630085D01*
X155911476Y-62706276D01*
X155873380Y-62782466D01*
X155835285Y-62820561D01*
X155759095Y-62858657D01*
X155492428Y-62858657D01*
X154724171Y-65119295D02*
X154762266Y-65081200D01*
X154838457Y-65043104D01*
X155028933Y-65043104D01*
X155105123Y-65081200D01*
X155143219Y-65119295D01*
X155181314Y-65195485D01*
X155181314Y-65271676D01*
X155143219Y-65385961D01*
X154686076Y-65843104D01*
X155181314Y-65843104D01*
X155486076Y-65614533D02*
X155867028Y-65614533D01*
X155409885Y-65843104D02*
X155676552Y-65043104D01*
X155943219Y-65843104D01*
X155181314Y-68357704D02*
X154724171Y-68357704D01*
X154952742Y-68357704D02*
X154952742Y-67557704D01*
X154876552Y-67671990D01*
X154800361Y-67748180D01*
X154724171Y-67786276D01*
X155486076Y-68129133D02*
X155867028Y-68129133D01*
X155409885Y-68357704D02*
X155676552Y-67557704D01*
X155943219Y-68357704D01*
X155124171Y-70897704D02*
X154667028Y-70897704D01*
X154895600Y-70897704D02*
X154895600Y-70097704D01*
X154819409Y-70211990D01*
X154743219Y-70288180D01*
X154667028Y-70326276D01*
X155733695Y-70478657D02*
X155847980Y-70516752D01*
X155886076Y-70554847D01*
X155924171Y-70631038D01*
X155924171Y-70745323D01*
X155886076Y-70821514D01*
X155847980Y-70859609D01*
X155771790Y-70897704D01*
X155467028Y-70897704D01*
X155467028Y-70097704D01*
X155733695Y-70097704D01*
X155809885Y-70135800D01*
X155847980Y-70173895D01*
X155886076Y-70250085D01*
X155886076Y-70326276D01*
X155847980Y-70402466D01*
X155809885Y-70440561D01*
X155733695Y-70478657D01*
X155467028Y-70478657D01*
X154254333Y-71266104D02*
X154521000Y-72066104D01*
X154787666Y-71266104D01*
X155511476Y-71989914D02*
X155473380Y-72028009D01*
X155359095Y-72066104D01*
X155282904Y-72066104D01*
X155168619Y-72028009D01*
X155092428Y-71951819D01*
X155054333Y-71875628D01*
X155016238Y-71723247D01*
X155016238Y-71608961D01*
X155054333Y-71456580D01*
X155092428Y-71380390D01*
X155168619Y-71304200D01*
X155282904Y-71266104D01*
X155359095Y-71266104D01*
X155473380Y-71304200D01*
X155511476Y-71342295D01*
X156311476Y-71989914D02*
X156273380Y-72028009D01*
X156159095Y-72066104D01*
X156082904Y-72066104D01*
X155968619Y-72028009D01*
X155892428Y-71951819D01*
X155854333Y-71875628D01*
X155816238Y-71723247D01*
X155816238Y-71608961D01*
X155854333Y-71456580D01*
X155892428Y-71380390D01*
X155968619Y-71304200D01*
X156082904Y-71266104D01*
X156159095Y-71266104D01*
X156273380Y-71304200D01*
X156311476Y-71342295D01*
X135534561Y-57715171D02*
X135534561Y-58248504D01*
X135534561Y-57791361D02*
X135572657Y-57753266D01*
X135648847Y-57715171D01*
X135763133Y-57715171D01*
X135839323Y-57753266D01*
X135877419Y-57829457D01*
X135877419Y-58248504D01*
X136258371Y-57829457D02*
X136525038Y-57829457D01*
X136639323Y-58248504D02*
X136258371Y-58248504D01*
X136258371Y-57448504D01*
X136639323Y-57448504D01*
X136982180Y-58248504D02*
X136982180Y-57448504D01*
X137439323Y-58248504D01*
X137439323Y-57448504D01*
X137782180Y-58019933D02*
X138163133Y-58019933D01*
X137705990Y-58248504D02*
X137972657Y-57448504D01*
X138239323Y-58248504D01*
X136080628Y-60712304D02*
X136080628Y-59912304D01*
X136347295Y-60483733D01*
X136613961Y-59912304D01*
X136613961Y-60712304D01*
X136956819Y-60674209D02*
X137071104Y-60712304D01*
X137261580Y-60712304D01*
X137337771Y-60674209D01*
X137375866Y-60636114D01*
X137413961Y-60559923D01*
X137413961Y-60483733D01*
X137375866Y-60407542D01*
X137337771Y-60369447D01*
X137261580Y-60331352D01*
X137109200Y-60293257D01*
X137033009Y-60255161D01*
X136994914Y-60217066D01*
X136956819Y-60140876D01*
X136956819Y-60064685D01*
X136994914Y-59988495D01*
X137033009Y-59950400D01*
X137109200Y-59912304D01*
X137299676Y-59912304D01*
X137413961Y-59950400D01*
X138175866Y-60712304D02*
X137718723Y-60712304D01*
X137947295Y-60712304D02*
X137947295Y-59912304D01*
X137871104Y-60026590D01*
X137794914Y-60102780D01*
X137718723Y-60140876D01*
X136080628Y-63303104D02*
X136080628Y-62503104D01*
X136347295Y-63074533D01*
X136613961Y-62503104D01*
X136613961Y-63303104D01*
X136956819Y-63265009D02*
X137071104Y-63303104D01*
X137261580Y-63303104D01*
X137337771Y-63265009D01*
X137375866Y-63226914D01*
X137413961Y-63150723D01*
X137413961Y-63074533D01*
X137375866Y-62998342D01*
X137337771Y-62960247D01*
X137261580Y-62922152D01*
X137109200Y-62884057D01*
X137033009Y-62845961D01*
X136994914Y-62807866D01*
X136956819Y-62731676D01*
X136956819Y-62655485D01*
X136994914Y-62579295D01*
X137033009Y-62541200D01*
X137109200Y-62503104D01*
X137299676Y-62503104D01*
X137413961Y-62541200D01*
X137718723Y-62579295D02*
X137756819Y-62541200D01*
X137833009Y-62503104D01*
X138023485Y-62503104D01*
X138099676Y-62541200D01*
X138137771Y-62579295D01*
X138175866Y-62655485D01*
X138175866Y-62731676D01*
X138137771Y-62845961D01*
X137680628Y-63303104D01*
X138175866Y-63303104D01*
X136080628Y-65716104D02*
X136080628Y-64916104D01*
X136347295Y-65487533D01*
X136613961Y-64916104D01*
X136613961Y-65716104D01*
X136956819Y-65678009D02*
X137071104Y-65716104D01*
X137261580Y-65716104D01*
X137337771Y-65678009D01*
X137375866Y-65639914D01*
X137413961Y-65563723D01*
X137413961Y-65487533D01*
X137375866Y-65411342D01*
X137337771Y-65373247D01*
X137261580Y-65335152D01*
X137109200Y-65297057D01*
X137033009Y-65258961D01*
X136994914Y-65220866D01*
X136956819Y-65144676D01*
X136956819Y-65068485D01*
X136994914Y-64992295D01*
X137033009Y-64954200D01*
X137109200Y-64916104D01*
X137299676Y-64916104D01*
X137413961Y-64954200D01*
X137680628Y-64916104D02*
X138175866Y-64916104D01*
X137909200Y-65220866D01*
X138023485Y-65220866D01*
X138099676Y-65258961D01*
X138137771Y-65297057D01*
X138175866Y-65373247D01*
X138175866Y-65563723D01*
X138137771Y-65639914D01*
X138099676Y-65678009D01*
X138023485Y-65716104D01*
X137794914Y-65716104D01*
X137718723Y-65678009D01*
X137680628Y-65639914D01*
X135699657Y-67722771D02*
X135699657Y-68256104D01*
X135699657Y-67798961D02*
X135737752Y-67760866D01*
X135813942Y-67722771D01*
X135928228Y-67722771D01*
X136004419Y-67760866D01*
X136042514Y-67837057D01*
X136042514Y-68256104D01*
X136880609Y-68256104D02*
X136613942Y-67875152D01*
X136423466Y-68256104D02*
X136423466Y-67456104D01*
X136728228Y-67456104D01*
X136804419Y-67494200D01*
X136842514Y-67532295D01*
X136880609Y-67608485D01*
X136880609Y-67722771D01*
X136842514Y-67798961D01*
X136804419Y-67837057D01*
X136728228Y-67875152D01*
X136423466Y-67875152D01*
X137185371Y-68218009D02*
X137299657Y-68256104D01*
X137490133Y-68256104D01*
X137566323Y-68218009D01*
X137604419Y-68179914D01*
X137642514Y-68103723D01*
X137642514Y-68027533D01*
X137604419Y-67951342D01*
X137566323Y-67913247D01*
X137490133Y-67875152D01*
X137337752Y-67837057D01*
X137261561Y-67798961D01*
X137223466Y-67760866D01*
X137185371Y-67684676D01*
X137185371Y-67608485D01*
X137223466Y-67532295D01*
X137261561Y-67494200D01*
X137337752Y-67456104D01*
X137528228Y-67456104D01*
X137642514Y-67494200D01*
X137871085Y-67456104D02*
X138328228Y-67456104D01*
X138099657Y-68256104D02*
X138099657Y-67456104D01*
X135680609Y-70364371D02*
X135680609Y-70897704D01*
X135680609Y-70440561D02*
X135718704Y-70402466D01*
X135794895Y-70364371D01*
X135909180Y-70364371D01*
X135985371Y-70402466D01*
X136023466Y-70478657D01*
X136023466Y-70897704D01*
X136366323Y-70859609D02*
X136480609Y-70897704D01*
X136671085Y-70897704D01*
X136747276Y-70859609D01*
X136785371Y-70821514D01*
X136823466Y-70745323D01*
X136823466Y-70669133D01*
X136785371Y-70592942D01*
X136747276Y-70554847D01*
X136671085Y-70516752D01*
X136518704Y-70478657D01*
X136442514Y-70440561D01*
X136404419Y-70402466D01*
X136366323Y-70326276D01*
X136366323Y-70250085D01*
X136404419Y-70173895D01*
X136442514Y-70135800D01*
X136518704Y-70097704D01*
X136709180Y-70097704D01*
X136823466Y-70135800D01*
X137547276Y-70897704D02*
X137166323Y-70897704D01*
X137166323Y-70097704D01*
X137813942Y-70897704D02*
X137813942Y-70097704D01*
X138118704Y-70097704D01*
X138194895Y-70135800D01*
X138232990Y-70173895D01*
X138271085Y-70250085D01*
X138271085Y-70364371D01*
X138232990Y-70440561D01*
X138194895Y-70478657D01*
X138118704Y-70516752D01*
X137813942Y-70516752D01*
X135686961Y-73475809D02*
X135801247Y-73513904D01*
X135991723Y-73513904D01*
X136067914Y-73475809D01*
X136106009Y-73437714D01*
X136144104Y-73361523D01*
X136144104Y-73285333D01*
X136106009Y-73209142D01*
X136067914Y-73171047D01*
X135991723Y-73132952D01*
X135839342Y-73094857D01*
X135763152Y-73056761D01*
X135725057Y-73018666D01*
X135686961Y-72942476D01*
X135686961Y-72866285D01*
X135725057Y-72790095D01*
X135763152Y-72752000D01*
X135839342Y-72713904D01*
X136029819Y-72713904D01*
X136144104Y-72752000D01*
X136372676Y-72713904D02*
X136829819Y-72713904D01*
X136601247Y-73513904D02*
X136601247Y-72713904D01*
X137096485Y-73094857D02*
X137363152Y-73094857D01*
X137477438Y-73513904D02*
X137096485Y-73513904D01*
X137096485Y-72713904D01*
X137477438Y-72713904D01*
X137820295Y-73513904D02*
X137820295Y-72713904D01*
X138125057Y-72713904D01*
X138201247Y-72752000D01*
X138239342Y-72790095D01*
X138277438Y-72866285D01*
X138277438Y-72980571D01*
X138239342Y-73056761D01*
X138201247Y-73094857D01*
X138125057Y-73132952D01*
X137820295Y-73132952D01*
X97205876Y-92919600D02*
X97129685Y-92881504D01*
X97015400Y-92881504D01*
X96901114Y-92919600D01*
X96824923Y-92995790D01*
X96786828Y-93071980D01*
X96748733Y-93224361D01*
X96748733Y-93338647D01*
X96786828Y-93491028D01*
X96824923Y-93567219D01*
X96901114Y-93643409D01*
X97015400Y-93681504D01*
X97091590Y-93681504D01*
X97205876Y-93643409D01*
X97243971Y-93605314D01*
X97243971Y-93338647D01*
X97091590Y-93338647D01*
X97586828Y-93681504D02*
X97586828Y-92881504D01*
X98043971Y-93681504D01*
X98043971Y-92881504D01*
X98424923Y-93681504D02*
X98424923Y-92881504D01*
X98615400Y-92881504D01*
X98729685Y-92919600D01*
X98805876Y-92995790D01*
X98843971Y-93071980D01*
X98882066Y-93224361D01*
X98882066Y-93338647D01*
X98843971Y-93491028D01*
X98805876Y-93567219D01*
X98729685Y-93643409D01*
X98615400Y-93681504D01*
X98424923Y-93681504D01*
X91503628Y-93300542D02*
X92113152Y-93300542D01*
X91808390Y-93605304D02*
X91808390Y-92995780D01*
X92875057Y-92805304D02*
X92494104Y-92805304D01*
X92456009Y-93186257D01*
X92494104Y-93148161D01*
X92570295Y-93110066D01*
X92760771Y-93110066D01*
X92836961Y-93148161D01*
X92875057Y-93186257D01*
X92913152Y-93262447D01*
X92913152Y-93452923D01*
X92875057Y-93529114D01*
X92836961Y-93567209D01*
X92760771Y-93605304D01*
X92570295Y-93605304D01*
X92494104Y-93567209D01*
X92456009Y-93529114D01*
X93141723Y-92805304D02*
X93408390Y-93605304D01*
X93675057Y-92805304D01*
X97307476Y-87001400D02*
X97231285Y-86963304D01*
X97117000Y-86963304D01*
X97002714Y-87001400D01*
X96926523Y-87077590D01*
X96888428Y-87153780D01*
X96850333Y-87306161D01*
X96850333Y-87420447D01*
X96888428Y-87572828D01*
X96926523Y-87649019D01*
X97002714Y-87725209D01*
X97117000Y-87763304D01*
X97193190Y-87763304D01*
X97307476Y-87725209D01*
X97345571Y-87687114D01*
X97345571Y-87420447D01*
X97193190Y-87420447D01*
X97688428Y-87763304D02*
X97688428Y-86963304D01*
X98145571Y-87763304D01*
X98145571Y-86963304D01*
X98526523Y-87763304D02*
X98526523Y-86963304D01*
X98717000Y-86963304D01*
X98831285Y-87001400D01*
X98907476Y-87077590D01*
X98945571Y-87153780D01*
X98983666Y-87306161D01*
X98983666Y-87420447D01*
X98945571Y-87572828D01*
X98907476Y-87649019D01*
X98831285Y-87725209D01*
X98717000Y-87763304D01*
X98526523Y-87763304D01*
X91325828Y-87458542D02*
X91935352Y-87458542D01*
X91630590Y-87763304D02*
X91630590Y-87153780D01*
X92697257Y-86963304D02*
X92316304Y-86963304D01*
X92278209Y-87344257D01*
X92316304Y-87306161D01*
X92392495Y-87268066D01*
X92582971Y-87268066D01*
X92659161Y-87306161D01*
X92697257Y-87344257D01*
X92735352Y-87420447D01*
X92735352Y-87610923D01*
X92697257Y-87687114D01*
X92659161Y-87725209D01*
X92582971Y-87763304D01*
X92392495Y-87763304D01*
X92316304Y-87725209D01*
X92278209Y-87687114D01*
X92963923Y-86963304D02*
X93230590Y-87763304D01*
X93497257Y-86963304D01*
X94399200Y-93641504D02*
X94399200Y-92841504D01*
X94932533Y-92841504D02*
X95084914Y-92841504D01*
X95161104Y-92879600D01*
X95237295Y-92955790D01*
X95275390Y-93108171D01*
X95275390Y-93374838D01*
X95237295Y-93527219D01*
X95161104Y-93603409D01*
X95084914Y-93641504D01*
X94932533Y-93641504D01*
X94856342Y-93603409D01*
X94780152Y-93527219D01*
X94742057Y-93374838D01*
X94742057Y-93108171D01*
X94780152Y-92955790D01*
X94856342Y-92879600D01*
X94932533Y-92841504D01*
X95580152Y-92917695D02*
X95618247Y-92879600D01*
X95694438Y-92841504D01*
X95884914Y-92841504D01*
X95961104Y-92879600D01*
X95999200Y-92917695D01*
X96037295Y-92993885D01*
X96037295Y-93070076D01*
X95999200Y-93184361D01*
X95542057Y-93641504D01*
X96037295Y-93641504D01*
X94323000Y-87763304D02*
X94323000Y-86963304D01*
X94856333Y-86963304D02*
X95008714Y-86963304D01*
X95084904Y-87001400D01*
X95161095Y-87077590D01*
X95199190Y-87229971D01*
X95199190Y-87496638D01*
X95161095Y-87649019D01*
X95084904Y-87725209D01*
X95008714Y-87763304D01*
X94856333Y-87763304D01*
X94780142Y-87725209D01*
X94703952Y-87649019D01*
X94665857Y-87496638D01*
X94665857Y-87229971D01*
X94703952Y-87077590D01*
X94780142Y-87001400D01*
X94856333Y-86963304D01*
X95961095Y-87763304D02*
X95503952Y-87763304D01*
X95732523Y-87763304D02*
X95732523Y-86963304D01*
X95656333Y-87077590D01*
X95580142Y-87153780D01*
X95503952Y-87191876D01*
X154609876Y-76054000D02*
X154533685Y-76015904D01*
X154419400Y-76015904D01*
X154305114Y-76054000D01*
X154228923Y-76130190D01*
X154190828Y-76206380D01*
X154152733Y-76358761D01*
X154152733Y-76473047D01*
X154190828Y-76625428D01*
X154228923Y-76701619D01*
X154305114Y-76777809D01*
X154419400Y-76815904D01*
X154495590Y-76815904D01*
X154609876Y-76777809D01*
X154647971Y-76739714D01*
X154647971Y-76473047D01*
X154495590Y-76473047D01*
X154990828Y-76815904D02*
X154990828Y-76015904D01*
X155447971Y-76815904D01*
X155447971Y-76015904D01*
X155828923Y-76815904D02*
X155828923Y-76015904D01*
X156019400Y-76015904D01*
X156133685Y-76054000D01*
X156209876Y-76130190D01*
X156247971Y-76206380D01*
X156286066Y-76358761D01*
X156286066Y-76473047D01*
X156247971Y-76625428D01*
X156209876Y-76701619D01*
X156133685Y-76777809D01*
X156019400Y-76815904D01*
X155828923Y-76815904D01*
X136563200Y-76079304D02*
X136563200Y-75279304D01*
X136753676Y-75279304D01*
X136867961Y-75317400D01*
X136944152Y-75393590D01*
X136982247Y-75469780D01*
X137020342Y-75622161D01*
X137020342Y-75736447D01*
X136982247Y-75888828D01*
X136944152Y-75965019D01*
X136867961Y-76041209D01*
X136753676Y-76079304D01*
X136563200Y-76079304D01*
X137363200Y-76079304D02*
X137363200Y-75279304D01*
X138201295Y-76079304D02*
X137934628Y-75698352D01*
X137744152Y-76079304D02*
X137744152Y-75279304D01*
X138048914Y-75279304D01*
X138125104Y-75317400D01*
X138163200Y-75355495D01*
X138201295Y-75431685D01*
X138201295Y-75545971D01*
X138163200Y-75622161D01*
X138125104Y-75660257D01*
X138048914Y-75698352D01*
X137744152Y-75698352D01*
X182035657Y-55251304D02*
X181768990Y-54870352D01*
X181578514Y-55251304D02*
X181578514Y-54451304D01*
X181883276Y-54451304D01*
X181959466Y-54489400D01*
X181997561Y-54527495D01*
X182035657Y-54603685D01*
X182035657Y-54717971D01*
X181997561Y-54794161D01*
X181959466Y-54832257D01*
X181883276Y-54870352D01*
X181578514Y-54870352D01*
X182683276Y-55213209D02*
X182607085Y-55251304D01*
X182454704Y-55251304D01*
X182378514Y-55213209D01*
X182340419Y-55137019D01*
X182340419Y-54832257D01*
X182378514Y-54756066D01*
X182454704Y-54717971D01*
X182607085Y-54717971D01*
X182683276Y-54756066D01*
X182721371Y-54832257D01*
X182721371Y-54908447D01*
X182340419Y-54984638D01*
X182988038Y-54717971D02*
X183178514Y-55251304D01*
X183368990Y-54717971D01*
X184702323Y-55251304D02*
X184245180Y-55251304D01*
X184473752Y-55251304D02*
X184473752Y-54451304D01*
X184397561Y-54565590D01*
X184321371Y-54641780D01*
X184245180Y-54679876D01*
X185045180Y-55175114D02*
X185083276Y-55213209D01*
X185045180Y-55251304D01*
X185007085Y-55213209D01*
X185045180Y-55175114D01*
X185045180Y-55251304D01*
X185845180Y-55251304D02*
X185388038Y-55251304D01*
X185616609Y-55251304D02*
X185616609Y-54451304D01*
X185540419Y-54565590D01*
X185464228Y-54641780D01*
X185388038Y-54679876D01*
X93665771Y-73120411D02*
X93665771Y-73548982D01*
X93365771Y-72648982D02*
X93665771Y-73120411D01*
X93965771Y-72648982D01*
X94265771Y-73077554D02*
X94565771Y-73077554D01*
X94694342Y-73548982D02*
X94265771Y-73548982D01*
X94265771Y-72648982D01*
X94694342Y-72648982D01*
X95508628Y-73548982D02*
X95080057Y-73548982D01*
X95080057Y-72648982D01*
X90561245Y-72691840D02*
X90475531Y-72648982D01*
X90346960Y-72648982D01*
X90218388Y-72691840D01*
X90132674Y-72777554D01*
X90089817Y-72863268D01*
X90046960Y-73034697D01*
X90046960Y-73163268D01*
X90089817Y-73334697D01*
X90132674Y-73420411D01*
X90218388Y-73506125D01*
X90346960Y-73548982D01*
X90432674Y-73548982D01*
X90561245Y-73506125D01*
X90604102Y-73463268D01*
X90604102Y-73163268D01*
X90432674Y-73163268D01*
X91504102Y-73548982D02*
X91204102Y-73120411D01*
X90989817Y-73548982D02*
X90989817Y-72648982D01*
X91332674Y-72648982D01*
X91418388Y-72691840D01*
X91461245Y-72734697D01*
X91504102Y-72820411D01*
X91504102Y-72948982D01*
X91461245Y-73034697D01*
X91418388Y-73077554D01*
X91332674Y-73120411D01*
X90989817Y-73120411D01*
X91889817Y-73548982D02*
X91889817Y-72648982D01*
X92404102Y-73548982D01*
X92404102Y-72648982D01*
X97048868Y-73543902D02*
X96748868Y-73115331D01*
X96534582Y-73543902D02*
X96534582Y-72643902D01*
X96877440Y-72643902D01*
X96963154Y-72686760D01*
X97006011Y-72729617D01*
X97048868Y-72815331D01*
X97048868Y-72943902D01*
X97006011Y-73029617D01*
X96963154Y-73072474D01*
X96877440Y-73115331D01*
X96534582Y-73115331D01*
X97434582Y-73072474D02*
X97734582Y-73072474D01*
X97863154Y-73543902D02*
X97434582Y-73543902D01*
X97434582Y-72643902D01*
X97863154Y-72643902D01*
X98248868Y-73543902D02*
X98248868Y-72643902D01*
X98463154Y-72643902D01*
X98591725Y-72686760D01*
X98677440Y-72772474D01*
X98720297Y-72858188D01*
X98763154Y-73029617D01*
X98763154Y-73158188D01*
X98720297Y-73329617D01*
X98677440Y-73415331D01*
X98591725Y-73501045D01*
X98463154Y-73543902D01*
X98248868Y-73543902D01*
X182010200Y-80884502D02*
X182010200Y-79984502D01*
X182353057Y-79984502D01*
X182438771Y-80027360D01*
X182481628Y-80070217D01*
X182524485Y-80155931D01*
X182524485Y-80284502D01*
X182481628Y-80370217D01*
X182438771Y-80413074D01*
X182353057Y-80455931D01*
X182010200Y-80455931D01*
X182824485Y-79984502D02*
X183038771Y-80884502D01*
X183210200Y-80241645D01*
X183381628Y-80884502D01*
X183595914Y-79984502D01*
X184453057Y-80884502D02*
X184153057Y-80455931D01*
X183938771Y-80884502D02*
X183938771Y-79984502D01*
X184281628Y-79984502D01*
X184367342Y-80027360D01*
X184410200Y-80070217D01*
X184453057Y-80155931D01*
X184453057Y-80284502D01*
X184410200Y-80370217D01*
X184367342Y-80413074D01*
X184281628Y-80455931D01*
X183938771Y-80455931D01*
D11*
X109856209Y-75148923D02*
X110098114Y-75148923D01*
X110219066Y-75209400D01*
X110340019Y-75330352D01*
X110400495Y-75572257D01*
X110400495Y-75995590D01*
X110340019Y-76237495D01*
X110219066Y-76358447D01*
X110098114Y-76418923D01*
X109856209Y-76418923D01*
X109735257Y-76358447D01*
X109614304Y-76237495D01*
X109553828Y-75995590D01*
X109553828Y-75572257D01*
X109614304Y-75330352D01*
X109735257Y-75209400D01*
X109856209Y-75148923D01*
X111549542Y-76418923D02*
X110944780Y-76418923D01*
X110944780Y-75148923D01*
X111972876Y-75753685D02*
X112396209Y-75753685D01*
X112577638Y-76418923D02*
X111972876Y-76418923D01*
X111972876Y-75148923D01*
X112577638Y-75148923D01*
X113121923Y-76418923D02*
X113121923Y-75148923D01*
X113424304Y-75148923D01*
X113605733Y-75209400D01*
X113726685Y-75330352D01*
X113787161Y-75451304D01*
X113847638Y-75693209D01*
X113847638Y-75874638D01*
X113787161Y-76116542D01*
X113726685Y-76237495D01*
X113605733Y-76358447D01*
X113424304Y-76418923D01*
X113121923Y-76418923D01*
X116024780Y-76418923D02*
X115299066Y-76418923D01*
X115661923Y-76418923D02*
X115661923Y-75148923D01*
X115540971Y-75330352D01*
X115420019Y-75451304D01*
X115299066Y-75511780D01*
X116508590Y-75269876D02*
X116569066Y-75209400D01*
X116690019Y-75148923D01*
X116992400Y-75148923D01*
X117113352Y-75209400D01*
X117173828Y-75269876D01*
X117234304Y-75390828D01*
X117234304Y-75511780D01*
X117173828Y-75693209D01*
X116448114Y-76418923D01*
X117234304Y-76418923D01*
X117960019Y-75693209D02*
X117839066Y-75632733D01*
X117778590Y-75572257D01*
X117718114Y-75451304D01*
X117718114Y-75390828D01*
X117778590Y-75269876D01*
X117839066Y-75209400D01*
X117960019Y-75148923D01*
X118201923Y-75148923D01*
X118322876Y-75209400D01*
X118383352Y-75269876D01*
X118443828Y-75390828D01*
X118443828Y-75451304D01*
X118383352Y-75572257D01*
X118322876Y-75632733D01*
X118201923Y-75693209D01*
X117960019Y-75693209D01*
X117839066Y-75753685D01*
X117778590Y-75814161D01*
X117718114Y-75935114D01*
X117718114Y-76177019D01*
X117778590Y-76297971D01*
X117839066Y-76358447D01*
X117960019Y-76418923D01*
X118201923Y-76418923D01*
X118322876Y-76358447D01*
X118383352Y-76297971D01*
X118443828Y-76177019D01*
X118443828Y-75935114D01*
X118383352Y-75814161D01*
X118322876Y-75753685D01*
X118201923Y-75693209D01*
X118867161Y-76418923D02*
X119532400Y-75572257D01*
X118867161Y-75572257D02*
X119532400Y-76418923D01*
X120560495Y-75148923D02*
X120318590Y-75148923D01*
X120197638Y-75209400D01*
X120137161Y-75269876D01*
X120016209Y-75451304D01*
X119955733Y-75693209D01*
X119955733Y-76177019D01*
X120016209Y-76297971D01*
X120076685Y-76358447D01*
X120197638Y-76418923D01*
X120439542Y-76418923D01*
X120560495Y-76358447D01*
X120620971Y-76297971D01*
X120681447Y-76177019D01*
X120681447Y-75874638D01*
X120620971Y-75753685D01*
X120560495Y-75693209D01*
X120439542Y-75632733D01*
X120197638Y-75632733D01*
X120076685Y-75693209D01*
X120016209Y-75753685D01*
X119955733Y-75874638D01*
X121770019Y-75572257D02*
X121770019Y-76418923D01*
X121467638Y-75088447D02*
X121165257Y-75995590D01*
X121951447Y-75995590D01*
X105505552Y-58911066D02*
X106110314Y-58911066D01*
X105384600Y-59273923D02*
X105807933Y-58003923D01*
X106231266Y-59273923D01*
X106654600Y-59273923D02*
X106654600Y-58427257D01*
X106654600Y-58669161D02*
X106715076Y-58548209D01*
X106775552Y-58487733D01*
X106896504Y-58427257D01*
X107017457Y-58427257D01*
X107985076Y-59273923D02*
X107985076Y-58003923D01*
X107985076Y-59213447D02*
X107864123Y-59273923D01*
X107622219Y-59273923D01*
X107501266Y-59213447D01*
X107440790Y-59152971D01*
X107380314Y-59032019D01*
X107380314Y-58669161D01*
X107440790Y-58548209D01*
X107501266Y-58487733D01*
X107622219Y-58427257D01*
X107864123Y-58427257D01*
X107985076Y-58487733D01*
X109134123Y-58427257D02*
X109134123Y-59273923D01*
X108589838Y-58427257D02*
X108589838Y-59092495D01*
X108650314Y-59213447D01*
X108771266Y-59273923D01*
X108952695Y-59273923D01*
X109073647Y-59213447D01*
X109134123Y-59152971D01*
X109738885Y-59273923D02*
X109738885Y-58427257D01*
X109738885Y-58003923D02*
X109678409Y-58064400D01*
X109738885Y-58124876D01*
X109799361Y-58064400D01*
X109738885Y-58003923D01*
X109738885Y-58124876D01*
X110343647Y-58427257D02*
X110343647Y-59273923D01*
X110343647Y-58548209D02*
X110404123Y-58487733D01*
X110525076Y-58427257D01*
X110706504Y-58427257D01*
X110827457Y-58487733D01*
X110887933Y-58608685D01*
X110887933Y-59273923D01*
X111674123Y-59273923D02*
X111553171Y-59213447D01*
X111492695Y-59152971D01*
X111432219Y-59032019D01*
X111432219Y-58669161D01*
X111492695Y-58548209D01*
X111553171Y-58487733D01*
X111674123Y-58427257D01*
X111855552Y-58427257D01*
X111976504Y-58487733D01*
X112036980Y-58548209D01*
X112097457Y-58669161D01*
X112097457Y-59032019D01*
X112036980Y-59152971D01*
X111976504Y-59213447D01*
X111855552Y-59273923D01*
X111674123Y-59273923D01*
X113609361Y-59273923D02*
X113609361Y-58003923D01*
X114093171Y-58003923D01*
X114214123Y-58064400D01*
X114274600Y-58124876D01*
X114335076Y-58245828D01*
X114335076Y-58427257D01*
X114274600Y-58548209D01*
X114214123Y-58608685D01*
X114093171Y-58669161D01*
X113609361Y-58669161D01*
X114879361Y-59273923D02*
X114879361Y-58427257D01*
X114879361Y-58669161D02*
X114939838Y-58548209D01*
X115000314Y-58487733D01*
X115121266Y-58427257D01*
X115242219Y-58427257D01*
X115846980Y-59273923D02*
X115726028Y-59213447D01*
X115665552Y-59152971D01*
X115605076Y-59032019D01*
X115605076Y-58669161D01*
X115665552Y-58548209D01*
X115726028Y-58487733D01*
X115846980Y-58427257D01*
X116028409Y-58427257D01*
X116149361Y-58487733D01*
X116209838Y-58548209D01*
X116270314Y-58669161D01*
X116270314Y-59032019D01*
X116209838Y-59152971D01*
X116149361Y-59213447D01*
X116028409Y-59273923D01*
X115846980Y-59273923D01*
X117782219Y-59273923D02*
X117782219Y-58003923D01*
X118205552Y-58911066D01*
X118628885Y-58003923D01*
X118628885Y-59273923D01*
X119233647Y-59273923D02*
X119233647Y-58427257D01*
X119233647Y-58003923D02*
X119173171Y-58064400D01*
X119233647Y-58124876D01*
X119294123Y-58064400D01*
X119233647Y-58003923D01*
X119233647Y-58124876D01*
X120382695Y-59213447D02*
X120261742Y-59273923D01*
X120019838Y-59273923D01*
X119898885Y-59213447D01*
X119838409Y-59152971D01*
X119777933Y-59032019D01*
X119777933Y-58669161D01*
X119838409Y-58548209D01*
X119898885Y-58487733D01*
X120019838Y-58427257D01*
X120261742Y-58427257D01*
X120382695Y-58487733D01*
X120926980Y-59273923D02*
X120926980Y-58427257D01*
X120926980Y-58669161D02*
X120987457Y-58548209D01*
X121047933Y-58487733D01*
X121168885Y-58427257D01*
X121289838Y-58427257D01*
X121894599Y-59273923D02*
X121773647Y-59213447D01*
X121713171Y-59152971D01*
X121652695Y-59032019D01*
X121652695Y-58669161D01*
X121713171Y-58548209D01*
X121773647Y-58487733D01*
X121894599Y-58427257D01*
X122076028Y-58427257D01*
X122196980Y-58487733D01*
X122257457Y-58548209D01*
X122317933Y-58669161D01*
X122317933Y-59032019D01*
X122257457Y-59152971D01*
X122196980Y-59213447D01*
X122076028Y-59273923D01*
X121894599Y-59273923D01*
X124434600Y-58003923D02*
X123829838Y-58003923D01*
X123769361Y-58608685D01*
X123829838Y-58548209D01*
X123950790Y-58487733D01*
X124253171Y-58487733D01*
X124374123Y-58548209D01*
X124434600Y-58608685D01*
X124495076Y-58729638D01*
X124495076Y-59032019D01*
X124434600Y-59152971D01*
X124374123Y-59213447D01*
X124253171Y-59273923D01*
X123950790Y-59273923D01*
X123829838Y-59213447D01*
X123769361Y-59152971D01*
X124857933Y-58003923D02*
X125281266Y-59273923D01*
X125704600Y-58003923D01*
X100636735Y-54102483D02*
X100213401Y-53497721D01*
X99911020Y-54102483D02*
X99911020Y-52832483D01*
X100394830Y-52832483D01*
X100515782Y-52892960D01*
X100576259Y-52953436D01*
X100636735Y-53074388D01*
X100636735Y-53255817D01*
X100576259Y-53376769D01*
X100515782Y-53437245D01*
X100394830Y-53497721D01*
X99911020Y-53497721D01*
X101120544Y-53739626D02*
X101725306Y-53739626D01*
X100999592Y-54102483D02*
X101422925Y-52832483D01*
X101846259Y-54102483D01*
X102148640Y-52832483D02*
X102451020Y-54102483D01*
X102692925Y-53195340D01*
X102934830Y-54102483D01*
X103237211Y-52832483D01*
X100980723Y-60556019D02*
X102008819Y-60556019D01*
X102129771Y-60495542D01*
X102190247Y-60435066D01*
X102250723Y-60314114D01*
X102250723Y-60072209D01*
X102190247Y-59951257D01*
X102129771Y-59890780D01*
X102008819Y-59830304D01*
X100980723Y-59830304D01*
X102190247Y-59286019D02*
X102250723Y-59104590D01*
X102250723Y-58802209D01*
X102190247Y-58681257D01*
X102129771Y-58620780D01*
X102008819Y-58560304D01*
X101887866Y-58560304D01*
X101766914Y-58620780D01*
X101706438Y-58681257D01*
X101645961Y-58802209D01*
X101585485Y-59044114D01*
X101525009Y-59165066D01*
X101464533Y-59225542D01*
X101343580Y-59286019D01*
X101222628Y-59286019D01*
X101101676Y-59225542D01*
X101041200Y-59165066D01*
X100980723Y-59044114D01*
X100980723Y-58741733D01*
X101041200Y-58560304D01*
X101585485Y-57592685D02*
X101645961Y-57411257D01*
X101706438Y-57350780D01*
X101827390Y-57290304D01*
X102008819Y-57290304D01*
X102129771Y-57350780D01*
X102190247Y-57411257D01*
X102250723Y-57532209D01*
X102250723Y-58016019D01*
X100980723Y-58016019D01*
X100980723Y-57592685D01*
X101041200Y-57471733D01*
X101101676Y-57411257D01*
X101222628Y-57350780D01*
X101343580Y-57350780D01*
X101464533Y-57411257D01*
X101525009Y-57471733D01*
X101585485Y-57592685D01*
X101585485Y-58016019D01*
D10*
X118550811Y-73714569D02*
X118665097Y-73752664D01*
X118855573Y-73752664D01*
X118931763Y-73714569D01*
X118969859Y-73676474D01*
X119007954Y-73600283D01*
X119007954Y-73524093D01*
X118969859Y-73447902D01*
X118931763Y-73409807D01*
X118855573Y-73371712D01*
X118703192Y-73333617D01*
X118627001Y-73295521D01*
X118588906Y-73257426D01*
X118550811Y-73181236D01*
X118550811Y-73105045D01*
X118588906Y-73028855D01*
X118627001Y-72990760D01*
X118703192Y-72952664D01*
X118893668Y-72952664D01*
X119007954Y-72990760D01*
X119350811Y-73752664D02*
X119350811Y-72952664D01*
X119541287Y-72952664D01*
X119655573Y-72990760D01*
X119731763Y-73066950D01*
X119769859Y-73143140D01*
X119807954Y-73295521D01*
X119807954Y-73409807D01*
X119769859Y-73562188D01*
X119731763Y-73638379D01*
X119655573Y-73714569D01*
X119541287Y-73752664D01*
X119350811Y-73752664D01*
X120112716Y-73524093D02*
X120493668Y-73524093D01*
X120036525Y-73752664D02*
X120303192Y-72952664D01*
X120569859Y-73752664D01*
X115702208Y-73757749D02*
X115816494Y-73795844D01*
X116006970Y-73795844D01*
X116083160Y-73757749D01*
X116121256Y-73719654D01*
X116159351Y-73643463D01*
X116159351Y-73567273D01*
X116121256Y-73491082D01*
X116083160Y-73452987D01*
X116006970Y-73414892D01*
X115854589Y-73376797D01*
X115778399Y-73338701D01*
X115740303Y-73300606D01*
X115702208Y-73224416D01*
X115702208Y-73148225D01*
X115740303Y-73072035D01*
X115778399Y-73033940D01*
X115854589Y-72995844D01*
X116045065Y-72995844D01*
X116159351Y-73033940D01*
X116959351Y-73719654D02*
X116921256Y-73757749D01*
X116806970Y-73795844D01*
X116730780Y-73795844D01*
X116616494Y-73757749D01*
X116540303Y-73681559D01*
X116502208Y-73605368D01*
X116464113Y-73452987D01*
X116464113Y-73338701D01*
X116502208Y-73186320D01*
X116540303Y-73110130D01*
X116616494Y-73033940D01*
X116730780Y-72995844D01*
X116806970Y-72995844D01*
X116921256Y-73033940D01*
X116959351Y-73072035D01*
X117302208Y-73795844D02*
X117302208Y-72995844D01*
X117759351Y-73795844D02*
X117416494Y-73338701D01*
X117759351Y-72995844D02*
X117302208Y-73452987D01*
X114122219Y-73036484D02*
X113741266Y-73036484D01*
X113703171Y-73417437D01*
X113741266Y-73379341D01*
X113817457Y-73341246D01*
X114007933Y-73341246D01*
X114084123Y-73379341D01*
X114122219Y-73417437D01*
X114160314Y-73493627D01*
X114160314Y-73684103D01*
X114122219Y-73760294D01*
X114084123Y-73798389D01*
X114007933Y-73836484D01*
X113817457Y-73836484D01*
X113741266Y-73798389D01*
X113703171Y-73760294D01*
X114388885Y-73036484D02*
X114655552Y-73836484D01*
X114922219Y-73036484D01*
X111301594Y-73033940D02*
X111225403Y-72995844D01*
X111111118Y-72995844D01*
X110996832Y-73033940D01*
X110920641Y-73110130D01*
X110882546Y-73186320D01*
X110844451Y-73338701D01*
X110844451Y-73452987D01*
X110882546Y-73605368D01*
X110920641Y-73681559D01*
X110996832Y-73757749D01*
X111111118Y-73795844D01*
X111187308Y-73795844D01*
X111301594Y-73757749D01*
X111339689Y-73719654D01*
X111339689Y-73452987D01*
X111187308Y-73452987D01*
X111682546Y-73262511D02*
X111682546Y-73795844D01*
X111682546Y-73338701D02*
X111720641Y-73300606D01*
X111796832Y-73262511D01*
X111911118Y-73262511D01*
X111987308Y-73300606D01*
X112025403Y-73376797D01*
X112025403Y-73795844D01*
X112749213Y-73795844D02*
X112749213Y-72995844D01*
X112749213Y-73757749D02*
X112673022Y-73795844D01*
X112520641Y-73795844D01*
X112444451Y-73757749D01*
X112406356Y-73719654D01*
X112368260Y-73643463D01*
X112368260Y-73414892D01*
X112406356Y-73338701D01*
X112444451Y-73300606D01*
X112520641Y-73262511D01*
X112673022Y-73262511D01*
X112749213Y-73300606D01*
X136339942Y-97002600D02*
X136194800Y-96930028D01*
X135977085Y-96930028D01*
X135759371Y-97002600D01*
X135614228Y-97147742D01*
X135541657Y-97292885D01*
X135469085Y-97583171D01*
X135469085Y-97800885D01*
X135541657Y-98091171D01*
X135614228Y-98236314D01*
X135759371Y-98381457D01*
X135977085Y-98454028D01*
X136122228Y-98454028D01*
X136339942Y-98381457D01*
X136412514Y-98308885D01*
X136412514Y-97800885D01*
X136122228Y-97800885D01*
X137936514Y-98454028D02*
X137428514Y-97728314D01*
X137065657Y-98454028D02*
X137065657Y-96930028D01*
X137646228Y-96930028D01*
X137791371Y-97002600D01*
X137863942Y-97075171D01*
X137936514Y-97220314D01*
X137936514Y-97438028D01*
X137863942Y-97583171D01*
X137791371Y-97655742D01*
X137646228Y-97728314D01*
X137065657Y-97728314D01*
X134819571Y-100769057D02*
X135037285Y-100841628D01*
X135400142Y-100841628D01*
X135545285Y-100769057D01*
X135617857Y-100696485D01*
X135690428Y-100551342D01*
X135690428Y-100406200D01*
X135617857Y-100261057D01*
X135545285Y-100188485D01*
X135400142Y-100115914D01*
X135109857Y-100043342D01*
X134964714Y-99970771D01*
X134892142Y-99898200D01*
X134819571Y-99753057D01*
X134819571Y-99607914D01*
X134892142Y-99462771D01*
X134964714Y-99390200D01*
X135109857Y-99317628D01*
X135472714Y-99317628D01*
X135690428Y-99390200D01*
X136125857Y-99825628D02*
X136706428Y-99825628D01*
X136343571Y-99317628D02*
X136343571Y-100623914D01*
X136416142Y-100769057D01*
X136561285Y-100841628D01*
X136706428Y-100841628D01*
X137795000Y-100769057D02*
X137649857Y-100841628D01*
X137359571Y-100841628D01*
X137214428Y-100769057D01*
X137141857Y-100623914D01*
X137141857Y-100043342D01*
X137214428Y-99898200D01*
X137359571Y-99825628D01*
X137649857Y-99825628D01*
X137795000Y-99898200D01*
X137867571Y-100043342D01*
X137867571Y-100188485D01*
X137141857Y-100333628D01*
X138520714Y-99825628D02*
X138520714Y-101349628D01*
X138520714Y-99898200D02*
X138665857Y-99825628D01*
X138956142Y-99825628D01*
X139101285Y-99898200D01*
X139173857Y-99970771D01*
X139246428Y-100115914D01*
X139246428Y-100551342D01*
X139173857Y-100696485D01*
X139101285Y-100769057D01*
X138956142Y-100841628D01*
X138665857Y-100841628D01*
X138520714Y-100769057D01*
X139899571Y-99825628D02*
X139899571Y-101349628D01*
X139899571Y-99898200D02*
X140044714Y-99825628D01*
X140335000Y-99825628D01*
X140480142Y-99898200D01*
X140552714Y-99970771D01*
X140625285Y-100115914D01*
X140625285Y-100551342D01*
X140552714Y-100696485D01*
X140480142Y-100769057D01*
X140335000Y-100841628D01*
X140044714Y-100841628D01*
X139899571Y-100769057D01*
X141859000Y-100769057D02*
X141713857Y-100841628D01*
X141423571Y-100841628D01*
X141278428Y-100769057D01*
X141205857Y-100623914D01*
X141205857Y-100043342D01*
X141278428Y-99898200D01*
X141423571Y-99825628D01*
X141713857Y-99825628D01*
X141859000Y-99898200D01*
X141931571Y-100043342D01*
X141931571Y-100188485D01*
X141205857Y-100333628D01*
X142584714Y-100841628D02*
X142584714Y-99825628D01*
X142584714Y-100115914D02*
X142657285Y-99970771D01*
X142729857Y-99898200D01*
X142875000Y-99825628D01*
X143020142Y-99825628D01*
X144689285Y-100841628D02*
X144689285Y-99317628D01*
X145705285Y-99317628D02*
X145995571Y-99317628D01*
X146140714Y-99390200D01*
X146285857Y-99535342D01*
X146358428Y-99825628D01*
X146358428Y-100333628D01*
X146285857Y-100623914D01*
X146140714Y-100769057D01*
X145995571Y-100841628D01*
X145705285Y-100841628D01*
X145560142Y-100769057D01*
X145415000Y-100623914D01*
X145342428Y-100333628D01*
X145342428Y-99825628D01*
X145415000Y-99535342D01*
X145560142Y-99390200D01*
X145705285Y-99317628D01*
D12*
G36*
X130984814Y-96249531D02*
G01*
X131068635Y-96694155D01*
X131377920Y-96821653D01*
X131687206Y-96949151D01*
X132058246Y-96696846D01*
X132162157Y-96626596D01*
X132256087Y-96563872D01*
X132335652Y-96511538D01*
X132396470Y-96472457D01*
X132434157Y-96449493D01*
X132444421Y-96444542D01*
X132462910Y-96457276D01*
X132502420Y-96492482D01*
X132558522Y-96545662D01*
X132626787Y-96612318D01*
X132702786Y-96687954D01*
X132782092Y-96768072D01*
X132860275Y-96848174D01*
X132932907Y-96923764D01*
X132995559Y-96990345D01*
X133043803Y-97043418D01*
X133073210Y-97078487D01*
X133080241Y-97090223D01*
X133070123Y-97111860D01*
X133041759Y-97159262D01*
X132998129Y-97227793D01*
X132942218Y-97312815D01*
X132877006Y-97409693D01*
X132839219Y-97464950D01*
X132770343Y-97565848D01*
X132709140Y-97656899D01*
X132658578Y-97733570D01*
X132621628Y-97791328D01*
X132601258Y-97825643D01*
X132598197Y-97832854D01*
X132605136Y-97853348D01*
X132624051Y-97901113D01*
X132652087Y-97969432D01*
X132686391Y-98051589D01*
X132724109Y-98140870D01*
X132762387Y-98230558D01*
X132798370Y-98313938D01*
X132829206Y-98384294D01*
X132852039Y-98434910D01*
X132864017Y-98459071D01*
X132864724Y-98460022D01*
X132883531Y-98464636D01*
X132933618Y-98474928D01*
X133009793Y-98489887D01*
X133106865Y-98508501D01*
X133219643Y-98529759D01*
X133285442Y-98542018D01*
X133405950Y-98564962D01*
X133514797Y-98586795D01*
X133606476Y-98606322D01*
X133675481Y-98622348D01*
X133716304Y-98633679D01*
X133724511Y-98637274D01*
X133732548Y-98661606D01*
X133739033Y-98716559D01*
X133743970Y-98795708D01*
X133747364Y-98892626D01*
X133749218Y-99000887D01*
X133749538Y-99114065D01*
X133748327Y-99225735D01*
X133745590Y-99329468D01*
X133741331Y-99418841D01*
X133735555Y-99487426D01*
X133728267Y-99528797D01*
X133723895Y-99537410D01*
X133697764Y-99547733D01*
X133642393Y-99562492D01*
X133565107Y-99579952D01*
X133473230Y-99598380D01*
X133441158Y-99604341D01*
X133286524Y-99632666D01*
X133164375Y-99655476D01*
X133070673Y-99673680D01*
X133001384Y-99688183D01*
X132952471Y-99699892D01*
X132919897Y-99709715D01*
X132899628Y-99718556D01*
X132887626Y-99727324D01*
X132885947Y-99729057D01*
X132869184Y-99756971D01*
X132843614Y-99811295D01*
X132811788Y-99885377D01*
X132776260Y-99972565D01*
X132739583Y-100066208D01*
X132704311Y-100159652D01*
X132672996Y-100246247D01*
X132648193Y-100319340D01*
X132632454Y-100372278D01*
X132628332Y-100398411D01*
X132628676Y-100399326D01*
X132642641Y-100420686D01*
X132674322Y-100467684D01*
X132720391Y-100535427D01*
X132777518Y-100619023D01*
X132842373Y-100713582D01*
X132860843Y-100740454D01*
X132926699Y-100837875D01*
X132984650Y-100926763D01*
X133031538Y-101002012D01*
X133064207Y-101058520D01*
X133079500Y-101091181D01*
X133080241Y-101095193D01*
X133067392Y-101116284D01*
X133031888Y-101158064D01*
X132978293Y-101216045D01*
X132911171Y-101285735D01*
X132835087Y-101362645D01*
X132754604Y-101442283D01*
X132674287Y-101520161D01*
X132598699Y-101591786D01*
X132532405Y-101652670D01*
X132479969Y-101698321D01*
X132445955Y-101724250D01*
X132436545Y-101728483D01*
X132414643Y-101718512D01*
X132369800Y-101691620D01*
X132309321Y-101652336D01*
X132262789Y-101620717D01*
X132178475Y-101562698D01*
X132078626Y-101494384D01*
X131978473Y-101426179D01*
X131924627Y-101389675D01*
X131742371Y-101266400D01*
X131589381Y-101349120D01*
X131519682Y-101385359D01*
X131460414Y-101413526D01*
X131420311Y-101429591D01*
X131410103Y-101431826D01*
X131397829Y-101415322D01*
X131373613Y-101368682D01*
X131339263Y-101296209D01*
X131296588Y-101202206D01*
X131247394Y-101090974D01*
X131193490Y-100966815D01*
X131136684Y-100834032D01*
X131078782Y-100696927D01*
X131021593Y-100559802D01*
X130966924Y-100426958D01*
X130916584Y-100302698D01*
X130872380Y-100191325D01*
X130836119Y-100097139D01*
X130809609Y-100024444D01*
X130794658Y-99977541D01*
X130792254Y-99961433D01*
X130811311Y-99940886D01*
X130853036Y-99907533D01*
X130908706Y-99868302D01*
X130913378Y-99865199D01*
X131057264Y-99750023D01*
X131173283Y-99615653D01*
X131260430Y-99466384D01*
X131317699Y-99306513D01*
X131344086Y-99140337D01*
X131338585Y-98972152D01*
X131300190Y-98806255D01*
X131227895Y-98646942D01*
X131206626Y-98612087D01*
X131095996Y-98471337D01*
X130965302Y-98358314D01*
X130819064Y-98273603D01*
X130661808Y-98217794D01*
X130498057Y-98191474D01*
X130332333Y-98195230D01*
X130169162Y-98229650D01*
X130013065Y-98295323D01*
X129868567Y-98392835D01*
X129823869Y-98432413D01*
X129710112Y-98556303D01*
X129627218Y-98686724D01*
X129570356Y-98832915D01*
X129538687Y-98977688D01*
X129530869Y-99140460D01*
X129556938Y-99304040D01*
X129614245Y-99462898D01*
X129700144Y-99611506D01*
X129811986Y-99744335D01*
X129947123Y-99855856D01*
X129964883Y-99867611D01*
X130021150Y-99906108D01*
X130063923Y-99939463D01*
X130084372Y-99960760D01*
X130084669Y-99961433D01*
X130080279Y-99984471D01*
X130062876Y-100036757D01*
X130034268Y-100113990D01*
X129996265Y-100211868D01*
X129950674Y-100326091D01*
X129899303Y-100452358D01*
X129843962Y-100586367D01*
X129786458Y-100723818D01*
X129728601Y-100860408D01*
X129672198Y-100991837D01*
X129619058Y-101113805D01*
X129570990Y-101222009D01*
X129529801Y-101312149D01*
X129497301Y-101379923D01*
X129475297Y-101421030D01*
X129466436Y-101431826D01*
X129439360Y-101423419D01*
X129388697Y-101400872D01*
X129323183Y-101368213D01*
X129287159Y-101349120D01*
X129134168Y-101266400D01*
X128951912Y-101389675D01*
X128858875Y-101452828D01*
X128757015Y-101522327D01*
X128661562Y-101587765D01*
X128613750Y-101620717D01*
X128546505Y-101665873D01*
X128489564Y-101701657D01*
X128450354Y-101723538D01*
X128437619Y-101728163D01*
X128419083Y-101715685D01*
X128378059Y-101680852D01*
X128318525Y-101627278D01*
X128244458Y-101558583D01*
X128159835Y-101478381D01*
X128106315Y-101426886D01*
X128012681Y-101334886D01*
X127931759Y-101252599D01*
X127866823Y-101183545D01*
X127821142Y-101131244D01*
X127797989Y-101099216D01*
X127795768Y-101092716D01*
X127806076Y-101067994D01*
X127834561Y-101018005D01*
X127878063Y-100947812D01*
X127933423Y-100862475D01*
X127997480Y-100767056D01*
X128015697Y-100740454D01*
X128082073Y-100643767D01*
X128141622Y-100556717D01*
X128191016Y-100484195D01*
X128226925Y-100431093D01*
X128246019Y-100402303D01*
X128247864Y-100399326D01*
X128245105Y-100376382D01*
X128230462Y-100325936D01*
X128206487Y-100254641D01*
X128175734Y-100169147D01*
X128140756Y-100076107D01*
X128104107Y-99982174D01*
X128068339Y-99893999D01*
X128036006Y-99818234D01*
X128009662Y-99761531D01*
X127991858Y-99730543D01*
X127990593Y-99729057D01*
X127979706Y-99720201D01*
X127961318Y-99711443D01*
X127931394Y-99701877D01*
X127885897Y-99690596D01*
X127820791Y-99676693D01*
X127732039Y-99659263D01*
X127615607Y-99637398D01*
X127467458Y-99610191D01*
X127435382Y-99604341D01*
X127340314Y-99585974D01*
X127257435Y-99568005D01*
X127194070Y-99552169D01*
X127157542Y-99540200D01*
X127152644Y-99537410D01*
X127144573Y-99512672D01*
X127138013Y-99457390D01*
X127132967Y-99377989D01*
X127129441Y-99280896D01*
X127127439Y-99172538D01*
X127126964Y-99059340D01*
X127128023Y-98947728D01*
X127130618Y-98844129D01*
X127134754Y-98754968D01*
X127140437Y-98686672D01*
X127147669Y-98645666D01*
X127152029Y-98637274D01*
X127176302Y-98628808D01*
X127231574Y-98615035D01*
X127312338Y-98597150D01*
X127413088Y-98576348D01*
X127528317Y-98553823D01*
X127591098Y-98542018D01*
X127710213Y-98519751D01*
X127816435Y-98499579D01*
X127904573Y-98482515D01*
X127969434Y-98469569D01*
X128005826Y-98461755D01*
X128011816Y-98460022D01*
X128021939Y-98440490D01*
X128043338Y-98393443D01*
X128073161Y-98325603D01*
X128108555Y-98243691D01*
X128146668Y-98154428D01*
X128184647Y-98064535D01*
X128219640Y-97980735D01*
X128248794Y-97909747D01*
X128269257Y-97858294D01*
X128278177Y-97833097D01*
X128278343Y-97831996D01*
X128268231Y-97812119D01*
X128239883Y-97766377D01*
X128196277Y-97699317D01*
X128140394Y-97615484D01*
X128075213Y-97519426D01*
X128037321Y-97464250D01*
X127968275Y-97363081D01*
X127906950Y-97271230D01*
X127856337Y-97193344D01*
X127819429Y-97134069D01*
X127799218Y-97098051D01*
X127796299Y-97089977D01*
X127808847Y-97071184D01*
X127843537Y-97031057D01*
X127895937Y-96974093D01*
X127961616Y-96904785D01*
X128036144Y-96827631D01*
X128115087Y-96747125D01*
X128194017Y-96667763D01*
X128268500Y-96594040D01*
X128334106Y-96530452D01*
X128386404Y-96481494D01*
X128420961Y-96451661D01*
X128432522Y-96444542D01*
X128451346Y-96454553D01*
X128496369Y-96482678D01*
X128563213Y-96526054D01*
X128647501Y-96581818D01*
X128744856Y-96647106D01*
X128818293Y-96696846D01*
X129189333Y-96949151D01*
X129807905Y-96694155D01*
X129891725Y-96249531D01*
X129975546Y-95804907D01*
X130900994Y-95804907D01*
X130984814Y-96249531D01*
X130984814Y-96249531D01*
G37*
X130984814Y-96249531D02*
X131068635Y-96694155D01*
X131377920Y-96821653D01*
X131687206Y-96949151D01*
X132058246Y-96696846D01*
X132162157Y-96626596D01*
X132256087Y-96563872D01*
X132335652Y-96511538D01*
X132396470Y-96472457D01*
X132434157Y-96449493D01*
X132444421Y-96444542D01*
X132462910Y-96457276D01*
X132502420Y-96492482D01*
X132558522Y-96545662D01*
X132626787Y-96612318D01*
X132702786Y-96687954D01*
X132782092Y-96768072D01*
X132860275Y-96848174D01*
X132932907Y-96923764D01*
X132995559Y-96990345D01*
X133043803Y-97043418D01*
X133073210Y-97078487D01*
X133080241Y-97090223D01*
X133070123Y-97111860D01*
X133041759Y-97159262D01*
X132998129Y-97227793D01*
X132942218Y-97312815D01*
X132877006Y-97409693D01*
X132839219Y-97464950D01*
X132770343Y-97565848D01*
X132709140Y-97656899D01*
X132658578Y-97733570D01*
X132621628Y-97791328D01*
X132601258Y-97825643D01*
X132598197Y-97832854D01*
X132605136Y-97853348D01*
X132624051Y-97901113D01*
X132652087Y-97969432D01*
X132686391Y-98051589D01*
X132724109Y-98140870D01*
X132762387Y-98230558D01*
X132798370Y-98313938D01*
X132829206Y-98384294D01*
X132852039Y-98434910D01*
X132864017Y-98459071D01*
X132864724Y-98460022D01*
X132883531Y-98464636D01*
X132933618Y-98474928D01*
X133009793Y-98489887D01*
X133106865Y-98508501D01*
X133219643Y-98529759D01*
X133285442Y-98542018D01*
X133405950Y-98564962D01*
X133514797Y-98586795D01*
X133606476Y-98606322D01*
X133675481Y-98622348D01*
X133716304Y-98633679D01*
X133724511Y-98637274D01*
X133732548Y-98661606D01*
X133739033Y-98716559D01*
X133743970Y-98795708D01*
X133747364Y-98892626D01*
X133749218Y-99000887D01*
X133749538Y-99114065D01*
X133748327Y-99225735D01*
X133745590Y-99329468D01*
X133741331Y-99418841D01*
X133735555Y-99487426D01*
X133728267Y-99528797D01*
X133723895Y-99537410D01*
X133697764Y-99547733D01*
X133642393Y-99562492D01*
X133565107Y-99579952D01*
X133473230Y-99598380D01*
X133441158Y-99604341D01*
X133286524Y-99632666D01*
X133164375Y-99655476D01*
X133070673Y-99673680D01*
X133001384Y-99688183D01*
X132952471Y-99699892D01*
X132919897Y-99709715D01*
X132899628Y-99718556D01*
X132887626Y-99727324D01*
X132885947Y-99729057D01*
X132869184Y-99756971D01*
X132843614Y-99811295D01*
X132811788Y-99885377D01*
X132776260Y-99972565D01*
X132739583Y-100066208D01*
X132704311Y-100159652D01*
X132672996Y-100246247D01*
X132648193Y-100319340D01*
X132632454Y-100372278D01*
X132628332Y-100398411D01*
X132628676Y-100399326D01*
X132642641Y-100420686D01*
X132674322Y-100467684D01*
X132720391Y-100535427D01*
X132777518Y-100619023D01*
X132842373Y-100713582D01*
X132860843Y-100740454D01*
X132926699Y-100837875D01*
X132984650Y-100926763D01*
X133031538Y-101002012D01*
X133064207Y-101058520D01*
X133079500Y-101091181D01*
X133080241Y-101095193D01*
X133067392Y-101116284D01*
X133031888Y-101158064D01*
X132978293Y-101216045D01*
X132911171Y-101285735D01*
X132835087Y-101362645D01*
X132754604Y-101442283D01*
X132674287Y-101520161D01*
X132598699Y-101591786D01*
X132532405Y-101652670D01*
X132479969Y-101698321D01*
X132445955Y-101724250D01*
X132436545Y-101728483D01*
X132414643Y-101718512D01*
X132369800Y-101691620D01*
X132309321Y-101652336D01*
X132262789Y-101620717D01*
X132178475Y-101562698D01*
X132078626Y-101494384D01*
X131978473Y-101426179D01*
X131924627Y-101389675D01*
X131742371Y-101266400D01*
X131589381Y-101349120D01*
X131519682Y-101385359D01*
X131460414Y-101413526D01*
X131420311Y-101429591D01*
X131410103Y-101431826D01*
X131397829Y-101415322D01*
X131373613Y-101368682D01*
X131339263Y-101296209D01*
X131296588Y-101202206D01*
X131247394Y-101090974D01*
X131193490Y-100966815D01*
X131136684Y-100834032D01*
X131078782Y-100696927D01*
X131021593Y-100559802D01*
X130966924Y-100426958D01*
X130916584Y-100302698D01*
X130872380Y-100191325D01*
X130836119Y-100097139D01*
X130809609Y-100024444D01*
X130794658Y-99977541D01*
X130792254Y-99961433D01*
X130811311Y-99940886D01*
X130853036Y-99907533D01*
X130908706Y-99868302D01*
X130913378Y-99865199D01*
X131057264Y-99750023D01*
X131173283Y-99615653D01*
X131260430Y-99466384D01*
X131317699Y-99306513D01*
X131344086Y-99140337D01*
X131338585Y-98972152D01*
X131300190Y-98806255D01*
X131227895Y-98646942D01*
X131206626Y-98612087D01*
X131095996Y-98471337D01*
X130965302Y-98358314D01*
X130819064Y-98273603D01*
X130661808Y-98217794D01*
X130498057Y-98191474D01*
X130332333Y-98195230D01*
X130169162Y-98229650D01*
X130013065Y-98295323D01*
X129868567Y-98392835D01*
X129823869Y-98432413D01*
X129710112Y-98556303D01*
X129627218Y-98686724D01*
X129570356Y-98832915D01*
X129538687Y-98977688D01*
X129530869Y-99140460D01*
X129556938Y-99304040D01*
X129614245Y-99462898D01*
X129700144Y-99611506D01*
X129811986Y-99744335D01*
X129947123Y-99855856D01*
X129964883Y-99867611D01*
X130021150Y-99906108D01*
X130063923Y-99939463D01*
X130084372Y-99960760D01*
X130084669Y-99961433D01*
X130080279Y-99984471D01*
X130062876Y-100036757D01*
X130034268Y-100113990D01*
X129996265Y-100211868D01*
X129950674Y-100326091D01*
X129899303Y-100452358D01*
X129843962Y-100586367D01*
X129786458Y-100723818D01*
X129728601Y-100860408D01*
X129672198Y-100991837D01*
X129619058Y-101113805D01*
X129570990Y-101222009D01*
X129529801Y-101312149D01*
X129497301Y-101379923D01*
X129475297Y-101421030D01*
X129466436Y-101431826D01*
X129439360Y-101423419D01*
X129388697Y-101400872D01*
X129323183Y-101368213D01*
X129287159Y-101349120D01*
X129134168Y-101266400D01*
X128951912Y-101389675D01*
X128858875Y-101452828D01*
X128757015Y-101522327D01*
X128661562Y-101587765D01*
X128613750Y-101620717D01*
X128546505Y-101665873D01*
X128489564Y-101701657D01*
X128450354Y-101723538D01*
X128437619Y-101728163D01*
X128419083Y-101715685D01*
X128378059Y-101680852D01*
X128318525Y-101627278D01*
X128244458Y-101558583D01*
X128159835Y-101478381D01*
X128106315Y-101426886D01*
X128012681Y-101334886D01*
X127931759Y-101252599D01*
X127866823Y-101183545D01*
X127821142Y-101131244D01*
X127797989Y-101099216D01*
X127795768Y-101092716D01*
X127806076Y-101067994D01*
X127834561Y-101018005D01*
X127878063Y-100947812D01*
X127933423Y-100862475D01*
X127997480Y-100767056D01*
X128015697Y-100740454D01*
X128082073Y-100643767D01*
X128141622Y-100556717D01*
X128191016Y-100484195D01*
X128226925Y-100431093D01*
X128246019Y-100402303D01*
X128247864Y-100399326D01*
X128245105Y-100376382D01*
X128230462Y-100325936D01*
X128206487Y-100254641D01*
X128175734Y-100169147D01*
X128140756Y-100076107D01*
X128104107Y-99982174D01*
X128068339Y-99893999D01*
X128036006Y-99818234D01*
X128009662Y-99761531D01*
X127991858Y-99730543D01*
X127990593Y-99729057D01*
X127979706Y-99720201D01*
X127961318Y-99711443D01*
X127931394Y-99701877D01*
X127885897Y-99690596D01*
X127820791Y-99676693D01*
X127732039Y-99659263D01*
X127615607Y-99637398D01*
X127467458Y-99610191D01*
X127435382Y-99604341D01*
X127340314Y-99585974D01*
X127257435Y-99568005D01*
X127194070Y-99552169D01*
X127157542Y-99540200D01*
X127152644Y-99537410D01*
X127144573Y-99512672D01*
X127138013Y-99457390D01*
X127132967Y-99377989D01*
X127129441Y-99280896D01*
X127127439Y-99172538D01*
X127126964Y-99059340D01*
X127128023Y-98947728D01*
X127130618Y-98844129D01*
X127134754Y-98754968D01*
X127140437Y-98686672D01*
X127147669Y-98645666D01*
X127152029Y-98637274D01*
X127176302Y-98628808D01*
X127231574Y-98615035D01*
X127312338Y-98597150D01*
X127413088Y-98576348D01*
X127528317Y-98553823D01*
X127591098Y-98542018D01*
X127710213Y-98519751D01*
X127816435Y-98499579D01*
X127904573Y-98482515D01*
X127969434Y-98469569D01*
X128005826Y-98461755D01*
X128011816Y-98460022D01*
X128021939Y-98440490D01*
X128043338Y-98393443D01*
X128073161Y-98325603D01*
X128108555Y-98243691D01*
X128146668Y-98154428D01*
X128184647Y-98064535D01*
X128219640Y-97980735D01*
X128248794Y-97909747D01*
X128269257Y-97858294D01*
X128278177Y-97833097D01*
X128278343Y-97831996D01*
X128268231Y-97812119D01*
X128239883Y-97766377D01*
X128196277Y-97699317D01*
X128140394Y-97615484D01*
X128075213Y-97519426D01*
X128037321Y-97464250D01*
X127968275Y-97363081D01*
X127906950Y-97271230D01*
X127856337Y-97193344D01*
X127819429Y-97134069D01*
X127799218Y-97098051D01*
X127796299Y-97089977D01*
X127808847Y-97071184D01*
X127843537Y-97031057D01*
X127895937Y-96974093D01*
X127961616Y-96904785D01*
X128036144Y-96827631D01*
X128115087Y-96747125D01*
X128194017Y-96667763D01*
X128268500Y-96594040D01*
X128334106Y-96530452D01*
X128386404Y-96481494D01*
X128420961Y-96451661D01*
X128432522Y-96444542D01*
X128451346Y-96454553D01*
X128496369Y-96482678D01*
X128563213Y-96526054D01*
X128647501Y-96581818D01*
X128744856Y-96647106D01*
X128818293Y-96696846D01*
X129189333Y-96949151D01*
X129807905Y-96694155D01*
X129891725Y-96249531D01*
X129975546Y-95804907D01*
X130900994Y-95804907D01*
X130984814Y-96249531D01*
D13*
X118574452Y-77420400D02*
X118051948Y-77420400D01*
X118574452Y-78840400D02*
X118051948Y-78840400D01*
X96912360Y-79844532D02*
X96912360Y-79322028D01*
X98332360Y-79844532D02*
X98332360Y-79322028D01*
X95111640Y-79859772D02*
X95111640Y-79337268D01*
X93691640Y-79859772D02*
X93691640Y-79337268D01*
X90552200Y-79854692D02*
X90552200Y-79332188D01*
X91972200Y-79854692D02*
X91972200Y-79332188D01*
X154611000Y-73728948D02*
X154611000Y-74251452D01*
X156031000Y-73728948D02*
X156031000Y-74251452D01*
X130715652Y-54382600D02*
X130193148Y-54382600D01*
X130715652Y-55802600D02*
X130193148Y-55802600D01*
X130664852Y-57910800D02*
X130142348Y-57910800D01*
X130664852Y-56490800D02*
X130142348Y-56490800D01*
X109752200Y-72092452D02*
X109752200Y-71569948D01*
X108332200Y-72092452D02*
X108332200Y-71569948D01*
X101245600Y-85249652D02*
X101245600Y-84727148D01*
X102665600Y-85249652D02*
X102665600Y-84727148D01*
X101194800Y-90755948D02*
X101194800Y-91278452D01*
X102614800Y-90755948D02*
X102614800Y-91278452D01*
X183935040Y-83944360D02*
X183935040Y-81484360D01*
X183935040Y-81484360D02*
X182465040Y-81484360D01*
X182465040Y-81484360D02*
X182465040Y-83944360D01*
X98362440Y-76603760D02*
X98362440Y-74143760D01*
X98362440Y-74143760D02*
X96892440Y-74143760D01*
X96892440Y-74143760D02*
X96892440Y-76603760D01*
X93666640Y-74118360D02*
X93666640Y-76578360D01*
X95136640Y-74118360D02*
X93666640Y-74118360D01*
X95136640Y-76578360D02*
X95136640Y-74118360D01*
X90517040Y-74118360D02*
X90517040Y-76578360D01*
X91987040Y-74118360D02*
X90517040Y-74118360D01*
X91987040Y-76578360D02*
X91987040Y-74118360D01*
X130870000Y-67370000D02*
X130870000Y-64710000D01*
X102870000Y-67370000D02*
X130870000Y-67370000D01*
X102870000Y-64710000D02*
X130870000Y-64710000D01*
X102870000Y-67370000D02*
X102870000Y-64710000D01*
X101600000Y-67370000D02*
X100270000Y-67370000D01*
X100270000Y-67370000D02*
X100270000Y-66040000D01*
X100270000Y-52130000D02*
X100270000Y-50800000D01*
X101600000Y-52130000D02*
X100270000Y-52130000D01*
X102870000Y-52130000D02*
X102870000Y-49470000D01*
X102870000Y-49470000D02*
X130870000Y-49470000D01*
X102870000Y-52130000D02*
X130870000Y-52130000D01*
X130870000Y-52130000D02*
X130870000Y-49470000D01*
X120659200Y-72119800D02*
X120659200Y-69459800D01*
X112979200Y-72119800D02*
X120659200Y-72119800D01*
X112979200Y-69459800D02*
X120659200Y-69459800D01*
X112979200Y-72119800D02*
X112979200Y-69459800D01*
X111709200Y-72119800D02*
X110379200Y-72119800D01*
X110379200Y-72119800D02*
X110379200Y-70789800D01*
X118574452Y-82294800D02*
X118051948Y-82294800D01*
X118574452Y-80874800D02*
X118051948Y-80874800D01*
X183899880Y-87180052D02*
X183899880Y-86657548D01*
X182479880Y-87180052D02*
X182479880Y-86657548D01*
X157926800Y-97267400D02*
X158926800Y-97267400D01*
X158426800Y-96767400D02*
X158426800Y-97767400D01*
X164526800Y-100767400D02*
X164526800Y-103167400D01*
X164526800Y-95967400D02*
X164526800Y-98567400D01*
X164526800Y-91367400D02*
X164526800Y-93767400D01*
X151226800Y-93167400D02*
X150926800Y-93467400D01*
X150626800Y-93167400D02*
X151226800Y-93167400D01*
X150926800Y-93467400D02*
X150626800Y-93167400D01*
X152326800Y-91367400D02*
X152326800Y-103167400D01*
X156426800Y-91367400D02*
X152326800Y-91367400D01*
X156426800Y-103167400D02*
X152326800Y-103167400D01*
X164526800Y-103167400D02*
X160426800Y-103167400D01*
X160426800Y-91367400D02*
X164526800Y-91367400D01*
X161426800Y-97267400D02*
G75*
G03X161426800Y-97267400I-3000000J0D01*
G01*
X151479251Y-50751600D02*
X151479251Y-51351600D01*
X151179251Y-51051600D02*
X151779251Y-51051600D01*
X157453417Y-53866600D02*
G75*
G02X151584584Y-53866600I-2934417J1060000D01*
G01*
X157453417Y-51746600D02*
G75*
G03X151584584Y-51746600I-2934417J-1060000D01*
G01*
X159386183Y-53917400D02*
G75*
G03X165255016Y-53917400I2934417J1060000D01*
G01*
X159386183Y-51797400D02*
G75*
G02X165255016Y-51797400I2934417J-1060000D01*
G01*
X165660349Y-54612400D02*
X165060349Y-54612400D01*
X165360349Y-54912400D02*
X165360349Y-54312400D01*
X180592800Y-73881348D02*
X180592800Y-74403852D01*
X179172800Y-73881348D02*
X179172800Y-74403852D01*
X154094548Y-81837600D02*
X154617052Y-81837600D01*
X154094548Y-80417600D02*
X154617052Y-80417600D01*
X178554748Y-80443000D02*
X179077252Y-80443000D01*
X178554748Y-81863000D02*
X179077252Y-81863000D01*
X141180452Y-45441800D02*
X140657948Y-45441800D01*
X141180452Y-46861800D02*
X140657948Y-46861800D01*
X151478348Y-45467200D02*
X152000852Y-45467200D01*
X151478348Y-46887200D02*
X152000852Y-46887200D01*
X165386652Y-45467200D02*
X164864148Y-45467200D01*
X165386652Y-46887200D02*
X164864148Y-46887200D01*
X175684548Y-45416400D02*
X176207052Y-45416400D01*
X175684548Y-46836400D02*
X176207052Y-46836400D01*
X138427000Y-76965000D02*
X151257000Y-76965000D01*
X138427000Y-56385000D02*
X138427000Y-76965000D01*
X153927000Y-56385000D02*
X138427000Y-56385000D01*
X153927000Y-74295000D02*
X153927000Y-56385000D01*
X151257000Y-74295000D02*
X153927000Y-74295000D01*
X151257000Y-76965000D02*
X151257000Y-74295000D01*
X153927000Y-76965000D02*
X153927000Y-75565000D01*
X152527000Y-76965000D02*
X153927000Y-76965000D01*
X151257000Y-74295000D02*
X151257000Y-56385000D01*
X141097000Y-76965000D02*
X141097000Y-56385000D01*
X165709600Y-77015800D02*
X165709600Y-56435800D01*
X175869600Y-74345800D02*
X175869600Y-56435800D01*
X177139600Y-77015800D02*
X178539600Y-77015800D01*
X178539600Y-77015800D02*
X178539600Y-75615800D01*
X175869600Y-77015800D02*
X175869600Y-74345800D01*
X175869600Y-74345800D02*
X178539600Y-74345800D01*
X178539600Y-74345800D02*
X178539600Y-56435800D01*
X178539600Y-56435800D02*
X163039600Y-56435800D01*
X163039600Y-56435800D02*
X163039600Y-77015800D01*
X163039600Y-77015800D02*
X175869600Y-77015800D01*
X156327800Y-49564600D02*
X156327800Y-48234600D01*
X157657800Y-49564600D02*
X156327800Y-49564600D01*
X158927800Y-49564600D02*
X158927800Y-46904600D01*
X158927800Y-46904600D02*
X161527800Y-46904600D01*
X158927800Y-49564600D02*
X161527800Y-49564600D01*
X161527800Y-49564600D02*
X161527800Y-46904600D01*
X159978400Y-61611200D02*
X157318400Y-61611200D01*
X159978400Y-69291200D02*
X159978400Y-61611200D01*
X157318400Y-69291200D02*
X157318400Y-61611200D01*
X159978400Y-69291200D02*
X157318400Y-69291200D01*
X159978400Y-70561200D02*
X159978400Y-71891200D01*
X159978400Y-71891200D02*
X158648400Y-71891200D01*
X184514800Y-71891200D02*
X183184800Y-71891200D01*
X184514800Y-70561200D02*
X184514800Y-71891200D01*
X184514800Y-69291200D02*
X181854800Y-69291200D01*
X181854800Y-69291200D02*
X181854800Y-61611200D01*
X184514800Y-69291200D02*
X184514800Y-61611200D01*
X184514800Y-61611200D02*
X181854800Y-61611200D01*
X142785801Y-46901401D02*
X144115801Y-46901401D01*
X142785801Y-48231401D02*
X142785801Y-46901401D01*
X142785801Y-49501401D02*
X145445801Y-49501401D01*
X145445801Y-49501401D02*
X145445801Y-54641401D01*
X142785801Y-49501401D02*
X142785801Y-54641401D01*
X142785801Y-54641401D02*
X145445801Y-54641401D01*
X147435801Y-54641401D02*
X150095801Y-54641401D01*
X147435801Y-49501401D02*
X147435801Y-54641401D01*
X150095801Y-49501401D02*
X150095801Y-54641401D01*
X147435801Y-49501401D02*
X150095801Y-49501401D01*
X147435801Y-48231401D02*
X147435801Y-46901401D01*
X147435801Y-46901401D02*
X148765801Y-46901401D01*
X167046401Y-54692201D02*
X169706401Y-54692201D01*
X167046401Y-49552201D02*
X167046401Y-54692201D01*
X169706401Y-49552201D02*
X169706401Y-54692201D01*
X167046401Y-49552201D02*
X169706401Y-49552201D01*
X167046401Y-48282201D02*
X167046401Y-46952201D01*
X167046401Y-46952201D02*
X168376401Y-46952201D01*
X171696401Y-46952201D02*
X173026401Y-46952201D01*
X171696401Y-48282201D02*
X171696401Y-46952201D01*
X171696401Y-49552201D02*
X174356401Y-49552201D01*
X174356401Y-49552201D02*
X174356401Y-54692201D01*
X171696401Y-49552201D02*
X171696401Y-54692201D01*
X171696401Y-54692201D02*
X174356401Y-54692201D01*
X99145400Y-86547000D02*
X99145400Y-83887000D01*
X94005400Y-86547000D02*
X99145400Y-86547000D01*
X94005400Y-83887000D02*
X99145400Y-83887000D01*
X94005400Y-86547000D02*
X94005400Y-83887000D01*
X92735400Y-86547000D02*
X91405400Y-86547000D01*
X91405400Y-86547000D02*
X91405400Y-85217000D01*
X91405400Y-92363600D02*
X91405400Y-91033600D01*
X92735400Y-92363600D02*
X91405400Y-92363600D01*
X94005400Y-92363600D02*
X94005400Y-89703600D01*
X94005400Y-89703600D02*
X99145400Y-89703600D01*
X94005400Y-92363600D02*
X99145400Y-92363600D01*
X99145400Y-92363600D02*
X99145400Y-89703600D01*
X169459600Y-96206000D02*
X170789600Y-96206000D01*
X169459600Y-97536000D02*
X169459600Y-96206000D01*
X169459600Y-98806000D02*
X172119600Y-98806000D01*
X172119600Y-98806000D02*
X172119600Y-98866000D01*
X169459600Y-98806000D02*
X169459600Y-98866000D01*
X169459600Y-98866000D02*
X172119600Y-98866000D01*
X172990200Y-98891400D02*
X175650200Y-98891400D01*
X172990200Y-98831400D02*
X172990200Y-98891400D01*
X175650200Y-98831400D02*
X175650200Y-98891400D01*
X172990200Y-98831400D02*
X175650200Y-98831400D01*
X172990200Y-97561400D02*
X172990200Y-96231400D01*
X172990200Y-96231400D02*
X174320200Y-96231400D01*
X89094000Y-59216600D02*
X91754000Y-59216600D01*
X89094000Y-59156600D02*
X89094000Y-59216600D01*
X91754000Y-59156600D02*
X91754000Y-59216600D01*
X89094000Y-59156600D02*
X91754000Y-59156600D01*
X89094000Y-57886600D02*
X89094000Y-56556600D01*
X89094000Y-56556600D02*
X90424000Y-56556600D01*
X91634000Y-59216600D02*
X94294000Y-59216600D01*
X91634000Y-59156600D02*
X91634000Y-59216600D01*
X94294000Y-59156600D02*
X94294000Y-59216600D01*
X91634000Y-59156600D02*
X94294000Y-59156600D01*
X91634000Y-57886600D02*
X91634000Y-56556600D01*
X91634000Y-56556600D02*
X92964000Y-56556600D01*
X176647800Y-96231400D02*
X177977800Y-96231400D01*
X176647800Y-97561400D02*
X176647800Y-96231400D01*
X176647800Y-98831400D02*
X179307800Y-98831400D01*
X179307800Y-98831400D02*
X179307800Y-98891400D01*
X176647800Y-98831400D02*
X176647800Y-98891400D01*
X176647800Y-98891400D02*
X179307800Y-98891400D01*
X142342400Y-80669200D02*
X140527400Y-80669200D01*
X142342400Y-80414200D02*
X142342400Y-80669200D01*
X146202400Y-80414200D02*
X142342400Y-80414200D01*
X150062400Y-80414200D02*
X150062400Y-80669200D01*
X146202400Y-80414200D02*
X150062400Y-80414200D01*
X142342400Y-90934200D02*
X142342400Y-90679200D01*
X146202400Y-90934200D02*
X142342400Y-90934200D01*
X150062400Y-90934200D02*
X150062400Y-90679200D01*
X146202400Y-90934200D02*
X150062400Y-90934200D01*
X170713400Y-90934200D02*
X174573400Y-90934200D01*
X174573400Y-90934200D02*
X174573400Y-90679200D01*
X170713400Y-90934200D02*
X166853400Y-90934200D01*
X166853400Y-90934200D02*
X166853400Y-90679200D01*
X170713400Y-80414200D02*
X174573400Y-80414200D01*
X174573400Y-80414200D02*
X174573400Y-80669200D01*
X170713400Y-80414200D02*
X166853400Y-80414200D01*
X166853400Y-80414200D02*
X166853400Y-80669200D01*
X166853400Y-80669200D02*
X165038400Y-80669200D01*
X149579400Y-59200148D02*
X149579400Y-59722652D01*
X148159400Y-59200148D02*
X148159400Y-59722652D01*
X173711800Y-58615948D02*
X173711800Y-59138452D01*
X175131800Y-58615948D02*
X175131800Y-59138452D01*
D10*
X121367504Y-78532925D02*
X120986552Y-78799592D01*
X121367504Y-78990068D02*
X120567504Y-78990068D01*
X120567504Y-78685306D01*
X120605600Y-78609116D01*
X120643695Y-78571020D01*
X120719885Y-78532925D01*
X120834171Y-78532925D01*
X120910361Y-78571020D01*
X120948457Y-78609116D01*
X120986552Y-78685306D01*
X120986552Y-78990068D01*
X121367504Y-77771020D02*
X121367504Y-78228163D01*
X121367504Y-77999592D02*
X120567504Y-77999592D01*
X120681790Y-78075782D01*
X120757980Y-78151973D01*
X120796076Y-78228163D01*
X120567504Y-77275782D02*
X120567504Y-77199592D01*
X120605600Y-77123401D01*
X120643695Y-77085306D01*
X120719885Y-77047211D01*
X120872266Y-77009116D01*
X121062742Y-77009116D01*
X121215123Y-77047211D01*
X121291314Y-77085306D01*
X121329409Y-77123401D01*
X121367504Y-77199592D01*
X121367504Y-77275782D01*
X121329409Y-77351973D01*
X121291314Y-77390068D01*
X121215123Y-77428163D01*
X121062742Y-77466259D01*
X120872266Y-77466259D01*
X120719885Y-77428163D01*
X120643695Y-77390068D01*
X120605600Y-77351973D01*
X120567504Y-77275782D01*
X99650504Y-79868965D02*
X99269552Y-80135632D01*
X99650504Y-80326108D02*
X98850504Y-80326108D01*
X98850504Y-80021346D01*
X98888600Y-79945156D01*
X98926695Y-79907060D01*
X99002885Y-79868965D01*
X99117171Y-79868965D01*
X99193361Y-79907060D01*
X99231457Y-79945156D01*
X99269552Y-80021346D01*
X99269552Y-80326108D01*
X99650504Y-79107060D02*
X99650504Y-79564203D01*
X99650504Y-79335632D02*
X98850504Y-79335632D01*
X98964790Y-79411822D01*
X99040980Y-79488013D01*
X99079076Y-79564203D01*
X98850504Y-78421346D02*
X98850504Y-78573727D01*
X98888600Y-78649918D01*
X98926695Y-78688013D01*
X99040980Y-78764203D01*
X99193361Y-78802299D01*
X99498123Y-78802299D01*
X99574314Y-78764203D01*
X99612409Y-78726108D01*
X99650504Y-78649918D01*
X99650504Y-78497537D01*
X99612409Y-78421346D01*
X99574314Y-78383251D01*
X99498123Y-78345156D01*
X99307647Y-78345156D01*
X99231457Y-78383251D01*
X99193361Y-78421346D01*
X99155266Y-78497537D01*
X99155266Y-78649918D01*
X99193361Y-78726108D01*
X99231457Y-78764203D01*
X99307647Y-78802299D01*
X96363744Y-79818165D02*
X95982792Y-80084832D01*
X96363744Y-80275308D02*
X95563744Y-80275308D01*
X95563744Y-79970546D01*
X95601840Y-79894356D01*
X95639935Y-79856260D01*
X95716125Y-79818165D01*
X95830411Y-79818165D01*
X95906601Y-79856260D01*
X95944697Y-79894356D01*
X95982792Y-79970546D01*
X95982792Y-80275308D01*
X96363744Y-79056260D02*
X96363744Y-79513403D01*
X96363744Y-79284832D02*
X95563744Y-79284832D01*
X95678030Y-79361022D01*
X95754220Y-79437213D01*
X95792316Y-79513403D01*
X95563744Y-78789594D02*
X95563744Y-78256260D01*
X96363744Y-78599118D01*
X93153184Y-79792765D02*
X92772232Y-80059432D01*
X93153184Y-80249908D02*
X92353184Y-80249908D01*
X92353184Y-79945146D01*
X92391280Y-79868956D01*
X92429375Y-79830860D01*
X92505565Y-79792765D01*
X92619851Y-79792765D01*
X92696041Y-79830860D01*
X92734137Y-79868956D01*
X92772232Y-79945146D01*
X92772232Y-80249908D01*
X93153184Y-79030860D02*
X93153184Y-79488003D01*
X93153184Y-79259432D02*
X92353184Y-79259432D01*
X92467470Y-79335622D01*
X92543660Y-79411813D01*
X92581756Y-79488003D01*
X92696041Y-78573718D02*
X92657946Y-78649908D01*
X92619851Y-78688003D01*
X92543660Y-78726099D01*
X92505565Y-78726099D01*
X92429375Y-78688003D01*
X92391280Y-78649908D01*
X92353184Y-78573718D01*
X92353184Y-78421337D01*
X92391280Y-78345146D01*
X92429375Y-78307051D01*
X92505565Y-78268956D01*
X92543660Y-78268956D01*
X92619851Y-78307051D01*
X92657946Y-78345146D01*
X92696041Y-78421337D01*
X92696041Y-78573718D01*
X92734137Y-78649908D01*
X92772232Y-78688003D01*
X92848422Y-78726099D01*
X93000803Y-78726099D01*
X93076994Y-78688003D01*
X93115089Y-78649908D01*
X93153184Y-78573718D01*
X93153184Y-78421337D01*
X93115089Y-78345146D01*
X93076994Y-78307051D01*
X93000803Y-78268956D01*
X92848422Y-78268956D01*
X92772232Y-78307051D01*
X92734137Y-78345146D01*
X92696041Y-78421337D01*
X157206914Y-74402933D02*
X157245009Y-74441028D01*
X157283104Y-74555314D01*
X157283104Y-74631504D01*
X157245009Y-74745790D01*
X157168819Y-74821980D01*
X157092628Y-74860076D01*
X156940247Y-74898171D01*
X156825961Y-74898171D01*
X156673580Y-74860076D01*
X156597390Y-74821980D01*
X156521200Y-74745790D01*
X156483104Y-74631504D01*
X156483104Y-74555314D01*
X156521200Y-74441028D01*
X156559295Y-74402933D01*
X156483104Y-73679123D02*
X156483104Y-74060076D01*
X156864057Y-74098171D01*
X156825961Y-74060076D01*
X156787866Y-73983885D01*
X156787866Y-73793409D01*
X156825961Y-73717219D01*
X156864057Y-73679123D01*
X156940247Y-73641028D01*
X157130723Y-73641028D01*
X157206914Y-73679123D01*
X157245009Y-73717219D01*
X157283104Y-73793409D01*
X157283104Y-73983885D01*
X157245009Y-74060076D01*
X157206914Y-74098171D01*
X133000714Y-55200533D02*
X133038809Y-55238628D01*
X133076904Y-55352914D01*
X133076904Y-55429104D01*
X133038809Y-55543390D01*
X132962619Y-55619580D01*
X132886428Y-55657676D01*
X132734047Y-55695771D01*
X132619761Y-55695771D01*
X132467380Y-55657676D01*
X132391190Y-55619580D01*
X132315000Y-55543390D01*
X132276904Y-55429104D01*
X132276904Y-55352914D01*
X132315000Y-55238628D01*
X132353095Y-55200533D01*
X133076904Y-54438628D02*
X133076904Y-54895771D01*
X133076904Y-54667200D02*
X132276904Y-54667200D01*
X132391190Y-54743390D01*
X132467380Y-54819580D01*
X132505476Y-54895771D01*
X133026114Y-57283333D02*
X133064209Y-57321428D01*
X133102304Y-57435714D01*
X133102304Y-57511904D01*
X133064209Y-57626190D01*
X132988019Y-57702380D01*
X132911828Y-57740476D01*
X132759447Y-57778571D01*
X132645161Y-57778571D01*
X132492780Y-57740476D01*
X132416590Y-57702380D01*
X132340400Y-57626190D01*
X132302304Y-57511904D01*
X132302304Y-57435714D01*
X132340400Y-57321428D01*
X132378495Y-57283333D01*
X132378495Y-56978571D02*
X132340400Y-56940476D01*
X132302304Y-56864285D01*
X132302304Y-56673809D01*
X132340400Y-56597619D01*
X132378495Y-56559523D01*
X132454685Y-56521428D01*
X132530876Y-56521428D01*
X132645161Y-56559523D01*
X133102304Y-57016666D01*
X133102304Y-56521428D01*
X107925834Y-72111853D02*
X107963929Y-72149948D01*
X108002024Y-72264234D01*
X108002024Y-72340424D01*
X107963929Y-72454710D01*
X107887739Y-72530900D01*
X107811548Y-72568996D01*
X107659167Y-72607091D01*
X107544881Y-72607091D01*
X107392500Y-72568996D01*
X107316310Y-72530900D01*
X107240120Y-72454710D01*
X107202024Y-72340424D01*
X107202024Y-72264234D01*
X107240120Y-72149948D01*
X107278215Y-72111853D01*
X107202024Y-71426139D02*
X107202024Y-71578520D01*
X107240120Y-71654710D01*
X107278215Y-71692805D01*
X107392500Y-71768996D01*
X107544881Y-71807091D01*
X107849643Y-71807091D01*
X107925834Y-71768996D01*
X107963929Y-71730900D01*
X108002024Y-71654710D01*
X108002024Y-71502329D01*
X107963929Y-71426139D01*
X107925834Y-71388043D01*
X107849643Y-71349948D01*
X107659167Y-71349948D01*
X107582977Y-71388043D01*
X107544881Y-71426139D01*
X107506786Y-71502329D01*
X107506786Y-71654710D01*
X107544881Y-71730900D01*
X107582977Y-71768996D01*
X107659167Y-71807091D01*
X103917714Y-85375733D02*
X103955809Y-85413828D01*
X103993904Y-85528114D01*
X103993904Y-85604304D01*
X103955809Y-85718590D01*
X103879619Y-85794780D01*
X103803428Y-85832876D01*
X103651047Y-85870971D01*
X103536761Y-85870971D01*
X103384380Y-85832876D01*
X103308190Y-85794780D01*
X103232000Y-85718590D01*
X103193904Y-85604304D01*
X103193904Y-85528114D01*
X103232000Y-85413828D01*
X103270095Y-85375733D01*
X103193904Y-85109066D02*
X103193904Y-84575733D01*
X103993904Y-84918590D01*
X103917714Y-90633533D02*
X103955809Y-90671628D01*
X103993904Y-90785914D01*
X103993904Y-90862104D01*
X103955809Y-90976390D01*
X103879619Y-91052580D01*
X103803428Y-91090676D01*
X103651047Y-91128771D01*
X103536761Y-91128771D01*
X103384380Y-91090676D01*
X103308190Y-91052580D01*
X103232000Y-90976390D01*
X103193904Y-90862104D01*
X103193904Y-90785914D01*
X103232000Y-90671628D01*
X103270095Y-90633533D01*
X103536761Y-90176390D02*
X103498666Y-90252580D01*
X103460571Y-90290676D01*
X103384380Y-90328771D01*
X103346285Y-90328771D01*
X103270095Y-90290676D01*
X103232000Y-90252580D01*
X103193904Y-90176390D01*
X103193904Y-90024009D01*
X103232000Y-89947819D01*
X103270095Y-89909723D01*
X103346285Y-89871628D01*
X103384380Y-89871628D01*
X103460571Y-89909723D01*
X103498666Y-89947819D01*
X103536761Y-90024009D01*
X103536761Y-90176390D01*
X103574857Y-90252580D01*
X103612952Y-90290676D01*
X103689142Y-90328771D01*
X103841523Y-90328771D01*
X103917714Y-90290676D01*
X103955809Y-90252580D01*
X103993904Y-90176390D01*
X103993904Y-90024009D01*
X103955809Y-89947819D01*
X103917714Y-89909723D01*
X103841523Y-89871628D01*
X103689142Y-89871628D01*
X103612952Y-89909723D01*
X103574857Y-89947819D01*
X103536761Y-90024009D01*
X184991944Y-83734836D02*
X184191944Y-83734836D01*
X184191944Y-83544360D01*
X184230040Y-83430074D01*
X184306230Y-83353883D01*
X184382420Y-83315788D01*
X184534801Y-83277693D01*
X184649087Y-83277693D01*
X184801468Y-83315788D01*
X184877659Y-83353883D01*
X184953849Y-83430074D01*
X184991944Y-83544360D01*
X184991944Y-83734836D01*
X184268135Y-82972931D02*
X184230040Y-82934836D01*
X184191944Y-82858645D01*
X184191944Y-82668169D01*
X184230040Y-82591979D01*
X184268135Y-82553883D01*
X184344325Y-82515788D01*
X184420516Y-82515788D01*
X184534801Y-82553883D01*
X184991944Y-83011026D01*
X184991944Y-82515788D01*
X99419344Y-76394236D02*
X98619344Y-76394236D01*
X98619344Y-76203760D01*
X98657440Y-76089474D01*
X98733630Y-76013283D01*
X98809820Y-75975188D01*
X98962201Y-75937093D01*
X99076487Y-75937093D01*
X99228868Y-75975188D01*
X99305059Y-76013283D01*
X99381249Y-76089474D01*
X99419344Y-76203760D01*
X99419344Y-76394236D01*
X98619344Y-75670426D02*
X98619344Y-75175188D01*
X98924106Y-75441855D01*
X98924106Y-75327569D01*
X98962201Y-75251379D01*
X99000297Y-75213283D01*
X99076487Y-75175188D01*
X99266963Y-75175188D01*
X99343154Y-75213283D01*
X99381249Y-75251379D01*
X99419344Y-75327569D01*
X99419344Y-75556140D01*
X99381249Y-75632331D01*
X99343154Y-75670426D01*
X96193544Y-76368836D02*
X95393544Y-76368836D01*
X95393544Y-76178360D01*
X95431640Y-76064074D01*
X95507830Y-75987883D01*
X95584020Y-75949788D01*
X95736401Y-75911693D01*
X95850687Y-75911693D01*
X96003068Y-75949788D01*
X96079259Y-75987883D01*
X96155449Y-76064074D01*
X96193544Y-76178360D01*
X96193544Y-76368836D01*
X95660211Y-75225979D02*
X96193544Y-75225979D01*
X95355449Y-75416455D02*
X95926878Y-75606931D01*
X95926878Y-75111693D01*
X93043944Y-76368836D02*
X92243944Y-76368836D01*
X92243944Y-76178360D01*
X92282040Y-76064074D01*
X92358230Y-75987883D01*
X92434420Y-75949788D01*
X92586801Y-75911693D01*
X92701087Y-75911693D01*
X92853468Y-75949788D01*
X92929659Y-75987883D01*
X93005849Y-76064074D01*
X93043944Y-76178360D01*
X93043944Y-76368836D01*
X92243944Y-75187883D02*
X92243944Y-75568836D01*
X92624897Y-75606931D01*
X92586801Y-75568836D01*
X92548706Y-75492645D01*
X92548706Y-75302169D01*
X92586801Y-75225979D01*
X92624897Y-75187883D01*
X92701087Y-75149788D01*
X92891563Y-75149788D01*
X92967754Y-75187883D01*
X93005849Y-75225979D01*
X93043944Y-75302169D01*
X93043944Y-75492645D01*
X93005849Y-75568836D01*
X92967754Y-75606931D01*
X121057420Y-71295853D02*
X121771706Y-71295853D01*
X121914563Y-71343472D01*
X122009801Y-71438710D01*
X122057420Y-71581567D01*
X122057420Y-71676805D01*
X121057420Y-70343472D02*
X121057420Y-70819662D01*
X121533611Y-70867281D01*
X121485992Y-70819662D01*
X121438373Y-70724424D01*
X121438373Y-70486329D01*
X121485992Y-70391091D01*
X121533611Y-70343472D01*
X121628849Y-70295853D01*
X121866944Y-70295853D01*
X121962182Y-70343472D01*
X122009801Y-70391091D01*
X122057420Y-70486329D01*
X122057420Y-70724424D01*
X122009801Y-70819662D01*
X121962182Y-70867281D01*
X121311624Y-81763853D02*
X120930672Y-82030520D01*
X121311624Y-82220996D02*
X120511624Y-82220996D01*
X120511624Y-81916234D01*
X120549720Y-81840043D01*
X120587815Y-81801948D01*
X120664005Y-81763853D01*
X120778291Y-81763853D01*
X120854481Y-81801948D01*
X120892577Y-81840043D01*
X120930672Y-81916234D01*
X120930672Y-82220996D01*
X121311624Y-81382900D02*
X121311624Y-81230520D01*
X121273529Y-81154329D01*
X121235434Y-81116234D01*
X121121148Y-81040043D01*
X120968767Y-81001948D01*
X120664005Y-81001948D01*
X120587815Y-81040043D01*
X120549720Y-81078139D01*
X120511624Y-81154329D01*
X120511624Y-81306710D01*
X120549720Y-81382900D01*
X120587815Y-81420996D01*
X120664005Y-81459091D01*
X120854481Y-81459091D01*
X120930672Y-81420996D01*
X120968767Y-81382900D01*
X121006862Y-81306710D01*
X121006862Y-81154329D01*
X120968767Y-81078139D01*
X120930672Y-81040043D01*
X120854481Y-81001948D01*
X185085944Y-87240045D02*
X184704992Y-87506712D01*
X185085944Y-87697188D02*
X184285944Y-87697188D01*
X184285944Y-87392426D01*
X184324040Y-87316236D01*
X184362135Y-87278140D01*
X184438325Y-87240045D01*
X184552611Y-87240045D01*
X184628801Y-87278140D01*
X184666897Y-87316236D01*
X184704992Y-87392426D01*
X184704992Y-87697188D01*
X185085944Y-86478140D02*
X185085944Y-86935283D01*
X185085944Y-86706712D02*
X184285944Y-86706712D01*
X184400230Y-86782902D01*
X184476420Y-86859093D01*
X184514516Y-86935283D01*
X184285944Y-85754331D02*
X184285944Y-86135283D01*
X184666897Y-86173379D01*
X184628801Y-86135283D01*
X184590706Y-86059093D01*
X184590706Y-85868617D01*
X184628801Y-85792426D01*
X184666897Y-85754331D01*
X184743087Y-85716236D01*
X184933563Y-85716236D01*
X185009754Y-85754331D01*
X185047849Y-85792426D01*
X185085944Y-85868617D01*
X185085944Y-86059093D01*
X185047849Y-86135283D01*
X185009754Y-86173379D01*
X165189066Y-102969961D02*
X165331923Y-103017580D01*
X165570019Y-103017580D01*
X165665257Y-102969961D01*
X165712876Y-102922342D01*
X165760495Y-102827104D01*
X165760495Y-102731866D01*
X165712876Y-102636628D01*
X165665257Y-102589009D01*
X165570019Y-102541390D01*
X165379542Y-102493771D01*
X165284304Y-102446152D01*
X165236685Y-102398533D01*
X165189066Y-102303295D01*
X165189066Y-102208057D01*
X165236685Y-102112819D01*
X165284304Y-102065200D01*
X165379542Y-102017580D01*
X165617638Y-102017580D01*
X165760495Y-102065200D01*
X166093828Y-102017580D02*
X166331923Y-103017580D01*
X166522400Y-102303295D01*
X166712876Y-103017580D01*
X166950971Y-102017580D01*
X167855733Y-103017580D02*
X167284304Y-103017580D01*
X167570019Y-103017580D02*
X167570019Y-102017580D01*
X167474780Y-102160438D01*
X167379542Y-102255676D01*
X167284304Y-102303295D01*
X151403066Y-50196714D02*
X151364971Y-50234809D01*
X151250685Y-50272904D01*
X151174495Y-50272904D01*
X151060209Y-50234809D01*
X150984019Y-50158619D01*
X150945923Y-50082428D01*
X150907828Y-49930047D01*
X150907828Y-49815761D01*
X150945923Y-49663380D01*
X150984019Y-49587190D01*
X151060209Y-49511000D01*
X151174495Y-49472904D01*
X151250685Y-49472904D01*
X151364971Y-49511000D01*
X151403066Y-49549095D01*
X151669733Y-49472904D02*
X152164971Y-49472904D01*
X151898304Y-49777666D01*
X152012590Y-49777666D01*
X152088780Y-49815761D01*
X152126876Y-49853857D01*
X152164971Y-49930047D01*
X152164971Y-50120523D01*
X152126876Y-50196714D01*
X152088780Y-50234809D01*
X152012590Y-50272904D01*
X151784019Y-50272904D01*
X151707828Y-50234809D01*
X151669733Y-50196714D01*
X158896066Y-50628514D02*
X158857971Y-50666609D01*
X158743685Y-50704704D01*
X158667495Y-50704704D01*
X158553209Y-50666609D01*
X158477019Y-50590419D01*
X158438923Y-50514228D01*
X158400828Y-50361847D01*
X158400828Y-50247561D01*
X158438923Y-50095180D01*
X158477019Y-50018990D01*
X158553209Y-49942800D01*
X158667495Y-49904704D01*
X158743685Y-49904704D01*
X158857971Y-49942800D01*
X158896066Y-49980895D01*
X159581780Y-50171371D02*
X159581780Y-50704704D01*
X159391304Y-49866609D02*
X159200828Y-50438038D01*
X159696066Y-50438038D01*
X181889942Y-74309266D02*
X181937561Y-74356885D01*
X181985180Y-74499742D01*
X181985180Y-74594980D01*
X181937561Y-74737838D01*
X181842323Y-74833076D01*
X181747085Y-74880695D01*
X181556609Y-74928314D01*
X181413752Y-74928314D01*
X181223276Y-74880695D01*
X181128038Y-74833076D01*
X181032800Y-74737838D01*
X180985180Y-74594980D01*
X180985180Y-74499742D01*
X181032800Y-74356885D01*
X181080419Y-74309266D01*
X181985180Y-73833076D02*
X181985180Y-73642600D01*
X181937561Y-73547361D01*
X181889942Y-73499742D01*
X181747085Y-73404504D01*
X181556609Y-73356885D01*
X181175657Y-73356885D01*
X181080419Y-73404504D01*
X181032800Y-73452123D01*
X180985180Y-73547361D01*
X180985180Y-73737838D01*
X181032800Y-73833076D01*
X181080419Y-73880695D01*
X181175657Y-73928314D01*
X181413752Y-73928314D01*
X181508990Y-73880695D01*
X181556609Y-73833076D01*
X181604228Y-73737838D01*
X181604228Y-73547361D01*
X181556609Y-73452123D01*
X181508990Y-73404504D01*
X181413752Y-73356885D01*
X153028714Y-79965514D02*
X152990619Y-80003609D01*
X152876333Y-80041704D01*
X152800142Y-80041704D01*
X152685857Y-80003609D01*
X152609666Y-79927419D01*
X152571571Y-79851228D01*
X152533476Y-79698847D01*
X152533476Y-79584561D01*
X152571571Y-79432180D01*
X152609666Y-79355990D01*
X152685857Y-79279800D01*
X152800142Y-79241704D01*
X152876333Y-79241704D01*
X152990619Y-79279800D01*
X153028714Y-79317895D01*
X153790619Y-80041704D02*
X153333476Y-80041704D01*
X153562047Y-80041704D02*
X153562047Y-79241704D01*
X153485857Y-79355990D01*
X153409666Y-79432180D01*
X153333476Y-79470276D01*
X154285857Y-79241704D02*
X154362047Y-79241704D01*
X154438238Y-79279800D01*
X154476333Y-79317895D01*
X154514428Y-79394085D01*
X154552523Y-79546466D01*
X154552523Y-79736942D01*
X154514428Y-79889323D01*
X154476333Y-79965514D01*
X154438238Y-80003609D01*
X154362047Y-80041704D01*
X154285857Y-80041704D01*
X154209666Y-80003609D01*
X154171571Y-79965514D01*
X154133476Y-79889323D01*
X154095380Y-79736942D01*
X154095380Y-79546466D01*
X154133476Y-79394085D01*
X154171571Y-79317895D01*
X154209666Y-79279800D01*
X154285857Y-79241704D01*
X177463514Y-79736914D02*
X177425419Y-79775009D01*
X177311133Y-79813104D01*
X177234942Y-79813104D01*
X177120657Y-79775009D01*
X177044466Y-79698819D01*
X177006371Y-79622628D01*
X176968276Y-79470247D01*
X176968276Y-79355961D01*
X177006371Y-79203580D01*
X177044466Y-79127390D01*
X177120657Y-79051200D01*
X177234942Y-79013104D01*
X177311133Y-79013104D01*
X177425419Y-79051200D01*
X177463514Y-79089295D01*
X178225419Y-79813104D02*
X177768276Y-79813104D01*
X177996847Y-79813104D02*
X177996847Y-79013104D01*
X177920657Y-79127390D01*
X177844466Y-79203580D01*
X177768276Y-79241676D01*
X178987323Y-79813104D02*
X178530180Y-79813104D01*
X178758752Y-79813104D02*
X178758752Y-79013104D01*
X178682561Y-79127390D01*
X178606371Y-79203580D01*
X178530180Y-79241676D01*
X141027114Y-48825085D02*
X141065209Y-48863180D01*
X141103304Y-48977466D01*
X141103304Y-49053657D01*
X141065209Y-49167942D01*
X140989019Y-49244133D01*
X140912828Y-49282228D01*
X140760447Y-49320323D01*
X140646161Y-49320323D01*
X140493780Y-49282228D01*
X140417590Y-49244133D01*
X140341400Y-49167942D01*
X140303304Y-49053657D01*
X140303304Y-48977466D01*
X140341400Y-48863180D01*
X140379495Y-48825085D01*
X141103304Y-48063180D02*
X141103304Y-48520323D01*
X141103304Y-48291752D02*
X140303304Y-48291752D01*
X140417590Y-48367942D01*
X140493780Y-48444133D01*
X140531876Y-48520323D01*
X140379495Y-47758419D02*
X140341400Y-47720323D01*
X140303304Y-47644133D01*
X140303304Y-47453657D01*
X140341400Y-47377466D01*
X140379495Y-47339371D01*
X140455685Y-47301276D01*
X140531876Y-47301276D01*
X140646161Y-47339371D01*
X141103304Y-47796514D01*
X141103304Y-47301276D01*
X152025314Y-48596485D02*
X152063409Y-48634580D01*
X152101504Y-48748866D01*
X152101504Y-48825057D01*
X152063409Y-48939342D01*
X151987219Y-49015533D01*
X151911028Y-49053628D01*
X151758647Y-49091723D01*
X151644361Y-49091723D01*
X151491980Y-49053628D01*
X151415790Y-49015533D01*
X151339600Y-48939342D01*
X151301504Y-48825057D01*
X151301504Y-48748866D01*
X151339600Y-48634580D01*
X151377695Y-48596485D01*
X152101504Y-47834580D02*
X152101504Y-48291723D01*
X152101504Y-48063152D02*
X151301504Y-48063152D01*
X151415790Y-48139342D01*
X151491980Y-48215533D01*
X151530076Y-48291723D01*
X151301504Y-47567914D02*
X151301504Y-47072676D01*
X151606266Y-47339342D01*
X151606266Y-47225057D01*
X151644361Y-47148866D01*
X151682457Y-47110771D01*
X151758647Y-47072676D01*
X151949123Y-47072676D01*
X152025314Y-47110771D01*
X152063409Y-47148866D01*
X152101504Y-47225057D01*
X152101504Y-47453628D01*
X152063409Y-47529819D01*
X152025314Y-47567914D01*
X163226714Y-48469485D02*
X163264809Y-48507580D01*
X163302904Y-48621866D01*
X163302904Y-48698057D01*
X163264809Y-48812342D01*
X163188619Y-48888533D01*
X163112428Y-48926628D01*
X162960047Y-48964723D01*
X162845761Y-48964723D01*
X162693380Y-48926628D01*
X162617190Y-48888533D01*
X162541000Y-48812342D01*
X162502904Y-48698057D01*
X162502904Y-48621866D01*
X162541000Y-48507580D01*
X162579095Y-48469485D01*
X163302904Y-47707580D02*
X163302904Y-48164723D01*
X163302904Y-47936152D02*
X162502904Y-47936152D01*
X162617190Y-48012342D01*
X162693380Y-48088533D01*
X162731476Y-48164723D01*
X162769571Y-47021866D02*
X163302904Y-47021866D01*
X162464809Y-47212342D02*
X163036238Y-47402819D01*
X163036238Y-46907580D01*
X176180714Y-48799685D02*
X176218809Y-48837780D01*
X176256904Y-48952066D01*
X176256904Y-49028257D01*
X176218809Y-49142542D01*
X176142619Y-49218733D01*
X176066428Y-49256828D01*
X175914047Y-49294923D01*
X175799761Y-49294923D01*
X175647380Y-49256828D01*
X175571190Y-49218733D01*
X175495000Y-49142542D01*
X175456904Y-49028257D01*
X175456904Y-48952066D01*
X175495000Y-48837780D01*
X175533095Y-48799685D01*
X176256904Y-48037780D02*
X176256904Y-48494923D01*
X176256904Y-48266352D02*
X175456904Y-48266352D01*
X175571190Y-48342542D01*
X175647380Y-48418733D01*
X175685476Y-48494923D01*
X175456904Y-47313971D02*
X175456904Y-47694923D01*
X175837857Y-47733019D01*
X175799761Y-47694923D01*
X175761666Y-47618733D01*
X175761666Y-47428257D01*
X175799761Y-47352066D01*
X175837857Y-47313971D01*
X175914047Y-47275876D01*
X176104523Y-47275876D01*
X176180714Y-47313971D01*
X176218809Y-47352066D01*
X176256904Y-47428257D01*
X176256904Y-47618733D01*
X176218809Y-47694923D01*
X176180714Y-47733019D01*
X145046866Y-55987904D02*
X145046866Y-55187904D01*
X145237342Y-55187904D01*
X145351628Y-55226000D01*
X145427819Y-55302190D01*
X145465914Y-55378380D01*
X145504009Y-55530761D01*
X145504009Y-55645047D01*
X145465914Y-55797428D01*
X145427819Y-55873619D01*
X145351628Y-55949809D01*
X145237342Y-55987904D01*
X145046866Y-55987904D01*
X146304009Y-55987904D02*
X146037342Y-55606952D01*
X145846866Y-55987904D02*
X145846866Y-55187904D01*
X146151628Y-55187904D01*
X146227819Y-55226000D01*
X146265914Y-55264095D01*
X146304009Y-55340285D01*
X146304009Y-55454571D01*
X146265914Y-55530761D01*
X146227819Y-55568857D01*
X146151628Y-55606952D01*
X145846866Y-55606952D01*
X146532580Y-55187904D02*
X146799247Y-55987904D01*
X147065914Y-55187904D01*
X147751628Y-55987904D02*
X147294485Y-55987904D01*
X147523057Y-55987904D02*
X147523057Y-55187904D01*
X147446866Y-55302190D01*
X147370676Y-55378380D01*
X147294485Y-55416476D01*
X169507066Y-55911704D02*
X169507066Y-55111704D01*
X169697542Y-55111704D01*
X169811828Y-55149800D01*
X169888019Y-55225990D01*
X169926114Y-55302180D01*
X169964209Y-55454561D01*
X169964209Y-55568847D01*
X169926114Y-55721228D01*
X169888019Y-55797419D01*
X169811828Y-55873609D01*
X169697542Y-55911704D01*
X169507066Y-55911704D01*
X170764209Y-55911704D02*
X170497542Y-55530752D01*
X170307066Y-55911704D02*
X170307066Y-55111704D01*
X170611828Y-55111704D01*
X170688019Y-55149800D01*
X170726114Y-55187895D01*
X170764209Y-55264085D01*
X170764209Y-55378371D01*
X170726114Y-55454561D01*
X170688019Y-55492657D01*
X170611828Y-55530752D01*
X170307066Y-55530752D01*
X170992780Y-55111704D02*
X171259447Y-55911704D01*
X171526114Y-55111704D01*
X171754685Y-55187895D02*
X171792780Y-55149800D01*
X171868971Y-55111704D01*
X172059447Y-55111704D01*
X172135638Y-55149800D01*
X172173733Y-55187895D01*
X172211828Y-55264085D01*
X172211828Y-55340276D01*
X172173733Y-55454561D01*
X171716590Y-55911704D01*
X172211828Y-55911704D01*
X154780180Y-48567933D02*
X155494466Y-48567933D01*
X155637323Y-48615552D01*
X155732561Y-48710790D01*
X155780180Y-48853647D01*
X155780180Y-48948885D01*
X155113514Y-47663171D02*
X155780180Y-47663171D01*
X154732561Y-47901266D02*
X155446847Y-48139361D01*
X155446847Y-47520314D01*
X158315066Y-72343580D02*
X158315066Y-73057866D01*
X158267447Y-73200723D01*
X158172209Y-73295961D01*
X158029352Y-73343580D01*
X157934114Y-73343580D01*
X159219828Y-72343580D02*
X159029352Y-72343580D01*
X158934114Y-72391200D01*
X158886495Y-72438819D01*
X158791257Y-72581676D01*
X158743638Y-72772152D01*
X158743638Y-73153104D01*
X158791257Y-73248342D01*
X158838876Y-73295961D01*
X158934114Y-73343580D01*
X159124590Y-73343580D01*
X159219828Y-73295961D01*
X159267447Y-73248342D01*
X159315066Y-73153104D01*
X159315066Y-72915009D01*
X159267447Y-72819771D01*
X159219828Y-72772152D01*
X159124590Y-72724533D01*
X158934114Y-72724533D01*
X158838876Y-72772152D01*
X158791257Y-72819771D01*
X158743638Y-72915009D01*
X182851466Y-72343580D02*
X182851466Y-73057866D01*
X182803847Y-73200723D01*
X182708609Y-73295961D01*
X182565752Y-73343580D01*
X182470514Y-73343580D01*
X183232419Y-72343580D02*
X183899085Y-72343580D01*
X183470514Y-73343580D01*
X143468181Y-45463305D02*
X143468181Y-46034734D01*
X143430086Y-46149020D01*
X143353896Y-46225210D01*
X143239610Y-46263305D01*
X143163420Y-46263305D01*
X144268181Y-46263305D02*
X143811039Y-46263305D01*
X144039610Y-46263305D02*
X144039610Y-45463305D01*
X143963420Y-45577591D01*
X143887229Y-45653781D01*
X143811039Y-45691877D01*
X144763420Y-45463305D02*
X144839610Y-45463305D01*
X144915801Y-45501401D01*
X144953896Y-45539496D01*
X144991991Y-45615686D01*
X145030086Y-45768067D01*
X145030086Y-45958543D01*
X144991991Y-46110924D01*
X144953896Y-46187115D01*
X144915801Y-46225210D01*
X144839610Y-46263305D01*
X144763420Y-46263305D01*
X144687229Y-46225210D01*
X144649134Y-46187115D01*
X144611039Y-46110924D01*
X144572943Y-45958543D01*
X144572943Y-45768067D01*
X144611039Y-45615686D01*
X144649134Y-45539496D01*
X144687229Y-45501401D01*
X144763420Y-45463305D01*
X148118181Y-45463305D02*
X148118181Y-46034734D01*
X148080086Y-46149020D01*
X148003896Y-46225210D01*
X147889610Y-46263305D01*
X147813420Y-46263305D01*
X148918181Y-46263305D02*
X148461039Y-46263305D01*
X148689610Y-46263305D02*
X148689610Y-45463305D01*
X148613420Y-45577591D01*
X148537229Y-45653781D01*
X148461039Y-45691877D01*
X149680086Y-46263305D02*
X149222943Y-46263305D01*
X149451515Y-46263305D02*
X149451515Y-45463305D01*
X149375324Y-45577591D01*
X149299134Y-45653781D01*
X149222943Y-45691877D01*
X167728781Y-45514105D02*
X167728781Y-46085534D01*
X167690686Y-46199820D01*
X167614496Y-46276010D01*
X167500210Y-46314105D01*
X167424020Y-46314105D01*
X168528781Y-46314105D02*
X168071639Y-46314105D01*
X168300210Y-46314105D02*
X168300210Y-45514105D01*
X168224020Y-45628391D01*
X168147829Y-45704581D01*
X168071639Y-45742677D01*
X168833543Y-45590296D02*
X168871639Y-45552201D01*
X168947829Y-45514105D01*
X169138305Y-45514105D01*
X169214496Y-45552201D01*
X169252591Y-45590296D01*
X169290686Y-45666486D01*
X169290686Y-45742677D01*
X169252591Y-45856962D01*
X168795448Y-46314105D01*
X169290686Y-46314105D01*
X172148580Y-45485104D02*
X172148580Y-46056533D01*
X172110485Y-46170819D01*
X172034295Y-46247009D01*
X171920009Y-46285104D01*
X171843819Y-46285104D01*
X172948580Y-46285104D02*
X172491438Y-46285104D01*
X172720009Y-46285104D02*
X172720009Y-45485104D01*
X172643819Y-45599390D01*
X172567628Y-45675580D01*
X172491438Y-45713676D01*
X173215247Y-45485104D02*
X173710485Y-45485104D01*
X173443819Y-45789866D01*
X173558104Y-45789866D01*
X173634295Y-45827961D01*
X173672390Y-45866057D01*
X173710485Y-45942247D01*
X173710485Y-46132723D01*
X173672390Y-46208914D01*
X173634295Y-46247009D01*
X173558104Y-46285104D01*
X173329533Y-46285104D01*
X173253342Y-46247009D01*
X173215247Y-46208914D01*
X90214504Y-85940819D02*
X90785933Y-85940819D01*
X90900219Y-85978914D01*
X90976409Y-86055104D01*
X91014504Y-86169390D01*
X91014504Y-86245580D01*
X91014504Y-85140819D02*
X91014504Y-85597961D01*
X91014504Y-85369390D02*
X90214504Y-85369390D01*
X90328790Y-85445580D01*
X90404980Y-85521771D01*
X90443076Y-85597961D01*
X90481171Y-84455104D02*
X91014504Y-84455104D01*
X90176409Y-84645580D02*
X90747838Y-84836057D01*
X90747838Y-84340819D01*
X90214504Y-91833619D02*
X90785933Y-91833619D01*
X90900219Y-91871714D01*
X90976409Y-91947904D01*
X91014504Y-92062190D01*
X91014504Y-92138380D01*
X91014504Y-91033619D02*
X91014504Y-91490761D01*
X91014504Y-91262190D02*
X90214504Y-91262190D01*
X90328790Y-91338380D01*
X90404980Y-91414571D01*
X90443076Y-91490761D01*
X90214504Y-90309809D02*
X90214504Y-90690761D01*
X90595457Y-90728857D01*
X90557361Y-90690761D01*
X90519266Y-90614571D01*
X90519266Y-90424095D01*
X90557361Y-90347904D01*
X90595457Y-90309809D01*
X90671647Y-90271714D01*
X90862123Y-90271714D01*
X90938314Y-90309809D01*
X90976409Y-90347904D01*
X91014504Y-90424095D01*
X91014504Y-90614571D01*
X90976409Y-90690761D01*
X90938314Y-90728857D01*
X134740666Y-89236504D02*
X134474000Y-88855552D01*
X134283523Y-89236504D02*
X134283523Y-88436504D01*
X134588285Y-88436504D01*
X134664476Y-88474600D01*
X134702571Y-88512695D01*
X134740666Y-88588885D01*
X134740666Y-88703171D01*
X134702571Y-88779361D01*
X134664476Y-88817457D01*
X134588285Y-88855552D01*
X134283523Y-88855552D01*
X135502571Y-89236504D02*
X135045428Y-89236504D01*
X135274000Y-89236504D02*
X135274000Y-88436504D01*
X135197809Y-88550790D01*
X135121619Y-88626980D01*
X135045428Y-88665076D01*
X134740666Y-90811304D02*
X134474000Y-90430352D01*
X134283523Y-90811304D02*
X134283523Y-90011304D01*
X134588285Y-90011304D01*
X134664476Y-90049400D01*
X134702571Y-90087495D01*
X134740666Y-90163685D01*
X134740666Y-90277971D01*
X134702571Y-90354161D01*
X134664476Y-90392257D01*
X134588285Y-90430352D01*
X134283523Y-90430352D01*
X135045428Y-90087495D02*
X135083523Y-90049400D01*
X135159714Y-90011304D01*
X135350190Y-90011304D01*
X135426380Y-90049400D01*
X135464476Y-90087495D01*
X135502571Y-90163685D01*
X135502571Y-90239876D01*
X135464476Y-90354161D01*
X135007333Y-90811304D01*
X135502571Y-90811304D01*
X159835866Y-89160304D02*
X159569200Y-88779352D01*
X159378723Y-89160304D02*
X159378723Y-88360304D01*
X159683485Y-88360304D01*
X159759676Y-88398400D01*
X159797771Y-88436495D01*
X159835866Y-88512685D01*
X159835866Y-88626971D01*
X159797771Y-88703161D01*
X159759676Y-88741257D01*
X159683485Y-88779352D01*
X159378723Y-88779352D01*
X160102533Y-88360304D02*
X160597771Y-88360304D01*
X160331104Y-88665066D01*
X160445390Y-88665066D01*
X160521580Y-88703161D01*
X160559676Y-88741257D01*
X160597771Y-88817447D01*
X160597771Y-89007923D01*
X160559676Y-89084114D01*
X160521580Y-89122209D01*
X160445390Y-89160304D01*
X160216819Y-89160304D01*
X160140628Y-89122209D01*
X160102533Y-89084114D01*
X159886666Y-90277904D02*
X159620000Y-89896952D01*
X159429523Y-90277904D02*
X159429523Y-89477904D01*
X159734285Y-89477904D01*
X159810476Y-89516000D01*
X159848571Y-89554095D01*
X159886666Y-89630285D01*
X159886666Y-89744571D01*
X159848571Y-89820761D01*
X159810476Y-89858857D01*
X159734285Y-89896952D01*
X159429523Y-89896952D01*
X160572380Y-89744571D02*
X160572380Y-90277904D01*
X160381904Y-89439809D02*
X160191428Y-90011238D01*
X160686666Y-90011238D01*
X169527695Y-94658380D02*
X170099123Y-94658380D01*
X169813409Y-95658380D02*
X169813409Y-94658380D01*
X170432457Y-95658380D02*
X170432457Y-94658380D01*
X170813409Y-94658380D01*
X170908647Y-94706000D01*
X170956266Y-94753619D01*
X171003885Y-94848857D01*
X171003885Y-94991714D01*
X170956266Y-95086952D01*
X170908647Y-95134571D01*
X170813409Y-95182190D01*
X170432457Y-95182190D01*
X171956266Y-95658380D02*
X171384838Y-95658380D01*
X171670552Y-95658380D02*
X171670552Y-94658380D01*
X171575314Y-94801238D01*
X171480076Y-94896476D01*
X171384838Y-94944095D01*
X173058295Y-94683780D02*
X173629723Y-94683780D01*
X173344009Y-95683780D02*
X173344009Y-94683780D01*
X173963057Y-95683780D02*
X173963057Y-94683780D01*
X174344009Y-94683780D01*
X174439247Y-94731400D01*
X174486866Y-94779019D01*
X174534485Y-94874257D01*
X174534485Y-95017114D01*
X174486866Y-95112352D01*
X174439247Y-95159971D01*
X174344009Y-95207590D01*
X173963057Y-95207590D01*
X174915438Y-94779019D02*
X174963057Y-94731400D01*
X175058295Y-94683780D01*
X175296390Y-94683780D01*
X175391628Y-94731400D01*
X175439247Y-94779019D01*
X175486866Y-94874257D01*
X175486866Y-94969495D01*
X175439247Y-95112352D01*
X174867819Y-95683780D01*
X175486866Y-95683780D01*
X89287476Y-55543504D02*
X89744619Y-55543504D01*
X89516047Y-56343504D02*
X89516047Y-55543504D01*
X90011285Y-56343504D02*
X90011285Y-55543504D01*
X90316047Y-55543504D01*
X90392238Y-55581600D01*
X90430333Y-55619695D01*
X90468428Y-55695885D01*
X90468428Y-55810171D01*
X90430333Y-55886361D01*
X90392238Y-55924457D01*
X90316047Y-55962552D01*
X90011285Y-55962552D01*
X90735095Y-55543504D02*
X91230333Y-55543504D01*
X90963666Y-55848266D01*
X91077952Y-55848266D01*
X91154142Y-55886361D01*
X91192238Y-55924457D01*
X91230333Y-56000647D01*
X91230333Y-56191123D01*
X91192238Y-56267314D01*
X91154142Y-56305409D01*
X91077952Y-56343504D01*
X90849380Y-56343504D01*
X90773190Y-56305409D01*
X90735095Y-56267314D01*
X91979876Y-55543504D02*
X92437019Y-55543504D01*
X92208447Y-56343504D02*
X92208447Y-55543504D01*
X92703685Y-56343504D02*
X92703685Y-55543504D01*
X93008447Y-55543504D01*
X93084638Y-55581600D01*
X93122733Y-55619695D01*
X93160828Y-55695885D01*
X93160828Y-55810171D01*
X93122733Y-55886361D01*
X93084638Y-55924457D01*
X93008447Y-55962552D01*
X92703685Y-55962552D01*
X93846542Y-55810171D02*
X93846542Y-56343504D01*
X93656066Y-55505409D02*
X93465590Y-56076838D01*
X93960828Y-56076838D01*
X176715895Y-94683780D02*
X177287323Y-94683780D01*
X177001609Y-95683780D02*
X177001609Y-94683780D01*
X177620657Y-95683780D02*
X177620657Y-94683780D01*
X178001609Y-94683780D01*
X178096847Y-94731400D01*
X178144466Y-94779019D01*
X178192085Y-94874257D01*
X178192085Y-95017114D01*
X178144466Y-95112352D01*
X178096847Y-95159971D01*
X178001609Y-95207590D01*
X177620657Y-95207590D01*
X179096847Y-94683780D02*
X178620657Y-94683780D01*
X178573038Y-95159971D01*
X178620657Y-95112352D01*
X178715895Y-95064733D01*
X178953990Y-95064733D01*
X179049228Y-95112352D01*
X179096847Y-95159971D01*
X179144466Y-95255209D01*
X179144466Y-95493304D01*
X179096847Y-95588542D01*
X179049228Y-95636161D01*
X178953990Y-95683780D01*
X178715895Y-95683780D01*
X178620657Y-95636161D01*
X178573038Y-95588542D01*
X145592876Y-79136104D02*
X145592876Y-79783723D01*
X145630971Y-79859914D01*
X145669066Y-79898009D01*
X145745257Y-79936104D01*
X145897638Y-79936104D01*
X145973828Y-79898009D01*
X146011923Y-79859914D01*
X146050019Y-79783723D01*
X146050019Y-79136104D01*
X146850019Y-79936104D02*
X146392876Y-79936104D01*
X146621447Y-79936104D02*
X146621447Y-79136104D01*
X146545257Y-79250390D01*
X146469066Y-79326580D01*
X146392876Y-79364676D01*
X170103876Y-79136104D02*
X170103876Y-79783723D01*
X170141971Y-79859914D01*
X170180066Y-79898009D01*
X170256257Y-79936104D01*
X170408638Y-79936104D01*
X170484828Y-79898009D01*
X170522923Y-79859914D01*
X170561019Y-79783723D01*
X170561019Y-79136104D01*
X170903876Y-79212295D02*
X170941971Y-79174200D01*
X171018161Y-79136104D01*
X171208638Y-79136104D01*
X171284828Y-79174200D01*
X171322923Y-79212295D01*
X171361019Y-79288485D01*
X171361019Y-79364676D01*
X171322923Y-79478961D01*
X170865780Y-79936104D01*
X171361019Y-79936104D01*
X148405914Y-57359514D02*
X148367819Y-57397609D01*
X148253533Y-57435704D01*
X148177342Y-57435704D01*
X148063057Y-57397609D01*
X147986866Y-57321419D01*
X147948771Y-57245228D01*
X147910676Y-57092847D01*
X147910676Y-56978561D01*
X147948771Y-56826180D01*
X147986866Y-56749990D01*
X148063057Y-56673800D01*
X148177342Y-56635704D01*
X148253533Y-56635704D01*
X148367819Y-56673800D01*
X148405914Y-56711895D01*
X149167819Y-57435704D02*
X148710676Y-57435704D01*
X148939247Y-57435704D02*
X148939247Y-56635704D01*
X148863057Y-56749990D01*
X148786866Y-56826180D01*
X148710676Y-56864276D01*
X149853533Y-56635704D02*
X149701152Y-56635704D01*
X149624961Y-56673800D01*
X149586866Y-56711895D01*
X149510676Y-56826180D01*
X149472580Y-56978561D01*
X149472580Y-57283323D01*
X149510676Y-57359514D01*
X149548771Y-57397609D01*
X149624961Y-57435704D01*
X149777342Y-57435704D01*
X149853533Y-57397609D01*
X149891628Y-57359514D01*
X149929723Y-57283323D01*
X149929723Y-57092847D01*
X149891628Y-57016657D01*
X149853533Y-56978561D01*
X149777342Y-56940466D01*
X149624961Y-56940466D01*
X149548771Y-56978561D01*
X149510676Y-57016657D01*
X149472580Y-57092847D01*
X171723114Y-59188314D02*
X171685019Y-59226409D01*
X171570733Y-59264504D01*
X171494542Y-59264504D01*
X171380257Y-59226409D01*
X171304066Y-59150219D01*
X171265971Y-59074028D01*
X171227876Y-58921647D01*
X171227876Y-58807361D01*
X171265971Y-58654980D01*
X171304066Y-58578790D01*
X171380257Y-58502600D01*
X171494542Y-58464504D01*
X171570733Y-58464504D01*
X171685019Y-58502600D01*
X171723114Y-58540695D01*
X172485019Y-59264504D02*
X172027876Y-59264504D01*
X172256447Y-59264504D02*
X172256447Y-58464504D01*
X172180257Y-58578790D01*
X172104066Y-58654980D01*
X172027876Y-58693076D01*
X172751685Y-58464504D02*
X173285019Y-58464504D01*
X172942161Y-59264504D01*
M02*
